<?xml version="1.0"?><svg width="744.09448" height="875" xmlns="http://www.w3.org/2000/svg">

 <g>
  <title>Layer 1</title>
  <g id="layer1">
   <path fill="#8cba4d" id="path1364" d="m468.714661,833.607971c-0.607208,-0.966492 -2.865265,-1.769409 -5.017883,-1.78418c-2.152618,-0.014832 -5.119629,-0.800232 -6.593353,-1.745422c-1.844879,-1.183228 0.102631,-1.413208 6.252197,-0.738342c13.289734,1.458496 16.970276,2.391418 16.970276,4.301453c0,2.26593 -10.18512,2.236511 -11.611237,-0.033508zm143.091492,-15.099548c-0.668457,-1.713684 0.069214,-4.321472 1.734436,-6.131653c5.086426,-5.529053 -0.085632,-9.316284 -5.47821,-4.011353c-2.180725,2.145264 -3.436584,2.368164 -4.950745,0.878662c-2.904541,-2.857422 -9.415405,-2.461731 -12.11322,0.736084c-2.819214,3.341797 -7.649475,5.96106 -14.618835,7.927368c-4.37085,1.233154 -6.007385,0.761536 -9.591553,-2.764404c-3.753235,-3.692261 -17.394287,-9.652222 -22.091858,-9.652222c-0.879822,0 -1.856567,1.759521 -2.170471,3.910034c-0.668274,4.577393 -7.375427,8.379639 -12.469971,7.069031c-1.957397,-0.503601 -4.299622,-2.832031 -5.204895,-5.174377c-0.905212,-2.342346 -2.396301,-3.802612 -3.313416,-3.244995c-0.917053,0.557556 -2.830811,-0.620178 -4.252686,-2.617188c-2.031006,-2.8526 -3.684753,-3.370972 -7.714203,-2.418152c-2.820923,0.666992 -4.575653,0.623169 -3.899445,-0.097534c0.676239,-0.720642 -0.84787,-3.204285 -3.386932,-5.519165c-2.539063,-2.31488 -3.695251,-4.208862 -2.569275,-4.208862c1.125946,0 2.047211,-1.186157 2.047211,-2.635986c0,-1.449768 -1.205811,-2.635986 -2.679535,-2.635986c-1.473755,0 -2.679535,-1.186157 -2.679535,-2.635925c0,-1.449829 1.004822,-2.648132 2.232941,-2.662903c1.550476,-0.018677 1.449097,-0.514832 -0.331726,-1.623413c-2.104553,-1.310059 -2.152832,-2.084595 -0.269165,-4.317383c1.893341,-2.244263 1.78418,-3.223877 -0.623138,-5.592041c-2.408325,-2.369202 -2.517395,-3.351257 -0.623962,-5.61731c2.021698,-2.419617 1.604126,-2.611694 -3.511047,-1.615051c-4.75589,0.926575 -5.800659,0.582947 -5.778259,-1.90033c0.06897,-7.645386 8.015076,-10.716492 28.554199,-11.036072c6.386169,-0.099365 10.405457,-0.666016 8.931702,-1.259216c-1.76825,-0.711731 -0.249512,-1.813904 4.465881,-3.240845c4.044006,-1.223816 5.555908,-2.220947 3.483337,-2.297363c-3.491211,-0.128784 -7.949219,-3.161072 -7.949219,-5.406982c0,-1.221375 14.675049,-0.493164 21.860535,1.084778c3.533142,0.775879 5.1922,0.299683 5.978455,-1.715942c1.913513,-4.905396 23.297852,-13.620789 32.625,-13.29657c4.570679,0.158813 9.64447,-0.258179 11.275024,-0.926758c2.049133,-0.840149 3.308716,-0.149475 4.078491,2.23645c1.23938,3.841492 7.526062,6.231567 9.235229,3.510986c0.603943,-0.961243 2.039246,0.10144 3.189575,2.361633c1.150391,2.260193 3.671509,4.191467 5.602539,4.291687c1.93103,0.100281 5.922546,1.158142 8.870056,2.350891c8.366516,3.385681 15.730347,4.119446 22.60376,2.252441c4.152466,-1.127869 7.407104,-1.115479 9.499146,0.036255c3.549255,1.953979 15.997498,-0.930298 20.594299,-4.77179c1.473694,-1.231567 6.44281,-2.631958 11.042419,-3.111877c7.804016,-0.814331 8.735046,-0.459167 13.931091,5.314514c3.718994,4.132385 4.973816,6.771851 3.778503,7.947693c-1.052185,1.035156 -1.160583,2.91687 -0.263062,4.566711c0.8396,1.543335 1.806824,3.596863 2.149353,4.563416c0.342468,0.966492 2.632385,1.757263 5.088562,1.757263c4.086487,0 4.6427,0.890686 3.840637,6.150635c-0.147339,0.966553 -1.559692,1.757324 -3.13855,1.757324c-1.947693,0 -2.502563,0.943604 -1.72583,2.934814c3.180542,8.153748 4.604919,18.661499 2.817017,20.780823c-1.358459,1.610168 -1.192932,2.49469 0.592773,3.168823c1.362488,0.514343 2.908325,2.556885 3.435242,4.53894c0.909607,3.421814 0.336975,3.569092 -11.340637,2.916321c-6.86377,-0.383667 -12.773621,0.068604 -13.373535,1.02356c-0.679932,1.082214 -1.94281,1.002502 -3.436401,-0.216919c-1.633301,-1.333496 -2.718445,-1.359802 -3.519104,-0.085327c-0.636658,1.013428 -4.697754,1.842651 -9.024658,1.842651c-4.326843,0 -11.979431,1.594604 -17.005737,3.543579c-7.910889,3.067566 -10.095398,3.261719 -16.258362,1.445251c-5.562805,-1.639526 -8.448608,-1.62561 -13.197815,0.063843c-4.638855,1.650146 -6.992004,1.681091 -9.937012,0.130615c-3.032104,-1.596375 -4.18866,-1.522156 -5.399109,0.346497c-0.847229,1.307983 -1.15564,3.408875 -0.685364,4.668762c0.470215,1.259827 -0.641907,3.871155 -2.471375,5.80304c-3.035828,3.205566 -3.427979,3.251892 -4.489563,0.530518zm-532.721481,-0.303833c-1.096138,-0.710083 -3.679718,-4.564697 -5.741348,-8.565735c-2.502472,-4.856689 -5.551003,-7.892822 -9.171692,-9.134521c-6.059589,-2.078064 -6.914101,-5.597046 -2.430229,-10.008057c2.44416,-2.404419 2.597755,-3.567139 0.837418,-6.340088c-1.725338,-2.717834 -1.632259,-4.130737 0.46632,-7.078247c2.312572,-3.247986 2.29855,-4.168152 -0.118877,-7.797668c-2.484463,-3.730164 -2.460903,-4.390503 0.251987,-7.059326c1.646084,-1.619324 2.603977,-4.407104 2.128674,-6.195129c-0.475296,-1.788025 -0.083565,-3.725525 0.870514,-4.305603c0.954102,-0.580078 1.505882,-3.200745 1.226196,-5.823669c-0.310806,-2.915039 1.082809,-6.759155 3.584839,-9.888306c2.348511,-2.937134 3.277229,-5.386841 2.178787,-5.747009c-1.052979,-0.345337 -1.91452,-2.143555 -1.91452,-3.996033c0,-2.517395 -1.26339,-3.368164 -5.001762,-3.368164c-2.750977,0 -5.779297,0.764893 -6.729618,1.699768c-1.995289,1.96283 -9.704769,0.423157 -9.704769,-1.938232c0,-0.872192 -2.00964,-1.089661 -4.465858,-0.483154c-3.828941,0.945374 -4.46587,0.504639 -4.46587,-3.09021c0,-2.305969 -1.275551,-5.984253 -2.834572,-8.173889c-2.23465,-3.138611 -2.38084,-4.518921 -0.690758,-6.522278c1.179089,-1.397644 2.784019,-2.151855 3.566528,-1.676147c2.315102,1.407593 7.104191,-1.082764 7.104191,-3.694214c0,-3.36261 8.37035,-5.127441 11.643669,-2.454956c1.674641,1.367249 5.918182,1.868835 11.415184,1.349182c4.812279,-0.454834 10.234169,0.028137 12.048599,1.073303c1.814438,1.045166 10.935608,2.083984 20.269257,2.30835c20.843178,0.501099 28.732353,1.449341 30.162819,3.625488c2.529617,3.848267 12.586365,7.135437 21.709229,7.095947c14.995911,-0.06488 16.009094,0.135193 16.009094,3.161133c0,1.700684 0.996338,2.447876 2.504868,1.878357c1.377686,-0.520081 2.982239,-0.476013 3.565659,0.097961c1.896851,1.866028 11.792938,2.249329 11.792938,0.456787c0,-0.958374 0.803848,-1.742493 1.786346,-1.742493c0.982483,0 1.786346,2.231934 1.786346,4.959778c0,5.774292 -8.445663,12.11322 -21.084015,15.824768c-4.227509,1.241577 -8.187653,3.596985 -8.800293,5.234253c-0.612625,1.637329 -4.340164,7.516235 -8.283371,13.064209l-7.169464,10.08728l2.939987,6.065002c2.91188,6.00708 2.889526,6.118225 -2.340271,11.625732c-2.904144,3.05835 -5.280258,7.058655 -5.280258,8.889465c0,2.115356 -1.254974,3.328796 -3.442642,3.328796c-1.893463,0 -5.8629,2.888489 -8.820999,6.418823c-4.864563,5.805664 -6.199539,6.409241 -13.974243,6.318054c-4.72773,-0.055481 -13.292519,0.73822 -19.032867,1.763733c-8.201698,1.465271 -10.845551,2.746704 -12.344582,5.983215c-2.041397,4.407593 -2.883904,4.796631 -6.006569,2.773743zm358.30629,-9.624634c-1.664825,-3.511902 -2.878571,-4.333801 -4.474976,-3.030457c-2.699219,2.203735 -4.990234,-2.283813 -2.444489,-4.788208c1.036316,-1.01947 -0.018219,-3.203857 -2.777985,-5.754395l-4.448395,-4.111145l3.804901,-3.246277c2.092682,-1.785522 4.686707,-3.243408 5.764496,-3.239807c2.903076,0.009766 14.240601,7.068848 15.913544,9.908325c0.797272,1.353149 2.20401,2.001587 3.126099,1.440918c0.922119,-0.560608 1.676575,-0.181824 1.676575,0.841736c0,2.359314 -2.830109,2.37561 -7.262817,0.04187c-4.126068,-2.172302 -4.276764,-1.326477 -0.906189,5.085632c2.677368,5.093262 1.082642,11.636475 -1.740753,7.142334c-1.068329,-1.7005 -1.739868,-1.417786 -2.685089,1.130371c-1.148193,3.095215 -1.46405,2.968567 -3.544922,-1.420898zm-98.600922,-3.08905c-1.227142,-1.933044 -3.846497,-3.528076 -5.82077,-3.544556c-5.085907,-0.04248 -20.155945,-9.215576 -19.27597,-11.733215c0.40329,-1.15387 1.805817,-1.693054 3.116699,-1.198181c1.310883,0.494873 2.895386,0.084839 3.521088,-0.911133c0.773834,-1.23175 2.408539,-1.241211 5.112,-0.029419c2.562378,1.148499 7.616852,1.219482 14.226959,0.199768c5.638947,-0.869934 10.224152,-1.108276 10.189331,-0.529724c-0.03479,0.578613 -1.168396,3.01593 -2.519073,5.416382c-1.613831,2.868103 -1.900543,5.38501 -0.836273,7.341309c3.779449,6.947205 -3.487305,11.64679 -7.713989,4.98877zm-292.687988,-2.987061c-4.330551,-0.660828 -4.575581,-1.231262 -4.073841,-9.48291c0.29364,-4.828857 0.91917,-9.393005 1.390099,-10.142639c1.21104,-1.927673 -4.94598,-6.76355 -7.531769,-5.915649c-2.89904,0.950684 -2.724689,-5.008423 0.272171,-9.302368c4.26569,-6.111938 8.337269,-27.960083 6.429878,-34.502747c-2.275177,-7.804138 -2.244038,-7.954285 1.868973,-9.01239c2.04974,-0.527283 3.576099,-0.052856 3.580688,1.113037c0.00441,1.117676 2.817909,2.173584 6.252209,2.346558c3.434311,0.172913 6.244213,-0.420227 6.244213,-1.317993c0,-0.897827 1.922478,-1.632385 4.272205,-1.632385c5.832634,0 7.9431,7.760925 3.441254,12.654602c-1.863647,2.025818 -2.959801,5.502441 -2.65023,8.40564c0.290337,2.723022 -0.252708,5.425537 -1.206787,6.005615c-0.954094,0.580078 -1.302063,2.68219 -0.773285,4.671387c0.708855,2.666687 -0.05122,3.877258 -2.893589,4.608459l-3.855011,0.991699l3.45908,5.767395c3.119732,5.20166 3.196682,6.135986 0.784492,9.523865c-2.048191,2.876709 -2.191902,4.328552 -0.613659,6.199341c1.584839,1.878601 1.368958,3.481689 -0.934551,6.940186c-1.647491,2.473572 -2.535072,5.677551 -1.97237,7.120056c0.845188,2.166748 -4.21188,6.911133 -6.318432,5.927734c-0.310219,-0.144836 -2.637489,-0.579773 -5.171738,-0.966492zm411.873566,-11.104858c-0.618774,-0.984924 -4.886444,-3.662109 -9.483734,-5.949341c-6.185211,-3.077271 -10.748993,-4.03894 -17.550842,-3.698242c-8.10498,0.405945 -9.414795,-0.020447 -11.075104,-3.605225c-1.630005,-3.519348 -1.355011,-4.166382 2.046722,-4.815613c3.605499,-0.688171 3.629883,-0.769775 0.295593,-0.98938c-6.223419,-0.40979 -12.12851,-16.055176 -6.059814,-16.055176c0.910461,0 1.655396,-1.089355 1.655396,-2.420776c0,-1.331421 1.19693,-3.39801 2.659851,-4.592407c1.462891,-1.194397 2.21933,-2.872803 1.680908,-3.729797c-0.836823,-1.332031 2.787842,-2.325012 6.652557,-1.82251c0.642639,0.083557 2.147797,-1.008972 3.344818,-2.427856c1.197052,-1.418884 4.489563,-2.579773 7.316711,-2.579773c2.827179,0 5.14032,-0.790833 5.14032,-1.757324c0,-0.966553 1.957306,-1.757324 4.349579,-1.757324c2.392273,0 6.548889,-0.822632 9.236969,-1.828003c3.620117,-1.354004 6.545197,-1.202637 11.280945,0.583618c3.516449,1.326416 8.957123,2.243958 12.090393,2.039001c3.637299,-0.237915 6.061127,0.561401 6.70459,2.210938c1.692383,4.338684 -0.55603,5.60907 -6.619873,3.740417c-6.317749,-1.946899 -7.223511,-1.992981 -13.820099,-0.703186c-2.456238,0.480225 -6.073578,1.173706 -8.038574,1.541077c-1.964966,0.367371 -3.680908,1.776794 -3.813202,3.131958c-0.132294,1.355225 -0.333832,3.254822 -0.447876,4.221375c-0.114014,0.966553 -2.171967,1.868652 -4.573242,2.0047c-3.172546,0.179749 -4.543579,-0.780884 -5.015869,-3.514648c-0.605988,-3.507507 -0.81485,-3.431824 -3.087006,1.118286c-1.864166,3.733093 -1.944519,5.364807 -0.341888,6.941406c1.152344,1.133606 2.095154,3.484558 2.095154,5.224304c0,1.739685 1.20578,3.163147 2.679535,3.163147c1.473724,0 2.679504,0.837463 2.679504,1.861023c0,1.02356 -0.803864,1.372314 -1.786346,0.774963c-3.124054,-1.899414 -5.763947,0.917236 -3.440704,3.671082c1.672668,1.982727 1.4216,2.494263 -1.253021,2.553162c-2.489075,0.05481 -1.945221,0.841614 2.125732,3.075317c9.223083,5.060608 12.719299,8.104797 14.043365,12.227539c1.306519,4.068298 0.324158,5.339722 -1.671448,2.163269zm-103.175293,-2.783264c-1.31778,-1.296326 1.851288,-9.902588 4.164246,-11.308838c0.970459,-0.590088 0.128174,-5.517273 -2.005829,-11.733765c-2.816345,-8.204102 -4.654266,-10.957397 -7.839386,-11.743835c-2.481384,-0.612671 -4.614563,-2.80658 -5.28537,-5.435852c-0.72168,-2.828674 -2.378143,-4.40863 -4.622253,-4.40863c-1.923584,0 -4.757996,-1.892517 -6.298615,-4.205627c-1.946594,-2.922607 -5.156311,-4.55304 -10.521271,-5.344482c-6.658691,-0.9823 -9.594818,-3.034058 -21.355682,-14.923096c-7.499573,-7.581299 -13.640076,-14.863464 -13.645538,-16.182617c-0.005493,-1.319092 -0.80191,-5.202759 -1.769836,-8.63031c-1.405396,-4.976746 -3.432434,-7.03125 -10.064789,-10.201172l-8.304962,-3.969238l-6.790771,5.36853c-7.446762,5.887146 -9.013153,6.482849 -8.340012,3.171875c0.245621,-1.208191 -1.06604,-2.20105 -2.91481,-2.206421c-1.84874,-0.00531 -4.559311,-1.784607 -6.023499,-3.953918c-1.95285,-2.893372 -2.073395,-3.944275 -0.452438,-3.944275c1.610245,0 1.473312,-1.10553 -0.504715,-4.075378c-2.489975,-3.738403 -2.429733,-4.250244 0.728745,-6.190674c2.713821,-1.667236 3.056076,-2.826843 1.615768,-5.474365c-2.69017,-4.944885 -2.476044,-5.203796 5.318008,-6.429871c6.449509,-1.014526 8.002701,-2.362732 7.356918,-6.386108c-0.454865,-2.833984 3.276947,-1.098999 6.614716,3.075317c4.140991,5.178894 5.657227,5.527344 5.734985,1.317993c0.076904,-4.163086 4.703613,-10.113953 5.66272,-7.283325c1.097778,3.239807 8.571228,3.834778 8.571228,0.682373c0,-1.443726 0.803864,-2.624939 1.786346,-2.624939c0.982483,0 1.786346,-1.270813 1.786346,-2.824036c0,-1.916016 0.959167,-2.461853 2.983276,-1.697754c1.640839,0.619385 3.555267,0.215759 4.254303,-0.896912c2.137024,-3.401611 13.021576,-3.789978 15.438782,-0.550842c1.173309,1.572266 4.706543,3.376465 7.851532,4.009216c4.953278,0.996582 5.804688,1.979614 6.364563,7.34845c0.586151,5.620605 0.10437,6.395325 -5.172028,8.316833c-9.77533,3.559937 -10.62619,4.512085 -8.635406,9.663086c1.203796,3.114746 1.19223,4.986389 -0.03537,5.732727c-1.080444,0.656921 -1.296509,3.365845 -0.530548,6.652161c0.710663,3.049194 1.209625,6.927917 1.108765,8.619324c-0.10083,1.691406 0.570557,3.075317 1.492004,3.075317c0.921417,0 1.675323,-0.798096 1.675323,-1.773499c0,-0.975403 2.830017,0.013062 6.288971,2.196655c4.853058,3.06366 6.917023,6.062073 9.039703,13.132507c3.733246,12.434937 13.667969,20.575317 23.007141,18.851746c6.341553,-1.170349 8.026398,0.360107 4.363403,3.963562c-1.421631,1.39856 1.152252,3.666077 9.378326,8.262085c16.437195,9.183716 24.401703,16.099792 21.667755,18.815491c-1.717407,1.705994 -2.419861,1.530518 -3.34256,-0.834961c-0.642517,-1.647156 -3.613251,-4.238647 -6.601624,-5.75885c-5.204834,-2.647827 -5.573608,-2.589661 -8.766083,1.382935c-6.935944,8.630859 -7.17926,9.974548 -2.368042,13.075745c5.393768,3.476746 5.871368,8.856873 0.92337,10.401794c-1.964996,0.613586 -3.572693,2.276245 -3.572693,3.694885c0,3.001648 -5.169983,11.24231 -7.053101,11.24231c-0.70575,0 -1.767761,-0.476685 -2.360016,-1.059326zm-91.595886,-17.233032c-2.98233,-2.145325 -3.20697,-3.252441 -1.540863,-7.594727c1.439423,-3.751465 1.388031,-6.957153 -0.196228,-12.235413c-2.12915,-7.093811 -2.100311,-7.173828 3.537537,-9.818665c5.374664,-2.521362 5.81424,-2.461731 8.072296,1.095215c1.313446,2.06897 2.660339,6.062256 2.993134,8.873962c0.761536,6.434204 -2.593872,19.071838 -4.720428,17.778931c-0.876251,-0.532776 -2.281891,0.242004 -3.123657,1.721741c-1.335754,2.348022 -1.974701,2.370789 -5.02179,0.178955zm145.707367,-11.959534c-0.02182,-1.65741 -1.716278,-3.896118 -3.765411,-4.974976c-2.049103,-1.078857 -3.283173,-2.396851 -2.742371,-2.928833c0.540833,-0.532104 0.236053,-2.341003 -0.677307,-4.019897c-0.913361,-1.678894 -1.154724,-3.550171 -0.536407,-4.158447c1.836761,-1.806946 1.958496,-17.54718 0.162384,-20.995667c-2.12207,-4.07428 1.28772,-8.439148 5.417053,-6.934448c5.935638,2.162903 9.031067,7.437866 8.007172,13.644958c-0.705261,4.275391 0.116394,7.660217 2.957184,12.182007c2.163574,3.443909 3.11853,6.261597 2.122131,6.261597c-0.996399,0 -2.281036,1.383911 -2.854736,3.075317c-0.5737,1.691406 -2.619629,5.052307 -4.546509,7.468567c-2.779785,3.48584 -3.511658,3.770874 -3.543182,1.379822zm84.998505,-13.497742c-3.472565,-1.32019 -5.633881,-9.923218 -2.909149,-11.579773c0.821564,-0.499512 1.077301,-2.474915 0.568268,-4.389832c-1.165985,-4.386292 7.372864,-8.332886 11.224854,-5.187988c1.311188,1.070557 3.219635,1.438354 4.240967,0.817383c1.021362,-0.620972 2.713898,0.721069 3.761261,2.982361c1.047333,2.261292 4.467102,5.271362 7.599548,6.689026l5.695313,2.577637l-9.549377,0.536987c-7.325745,0.411926 -10.445496,1.503906 -13.397583,4.689209c-2.724976,2.940308 -4.836487,3.77655 -7.2341,2.86499zm-75.113953,-6.487183c-1.528381,-1.50354 -2.7789,-4.645203 -2.7789,-6.981384c0,-4.647034 5.117706,-11.671326 7.46405,-10.244751c0.80722,0.490784 1.467682,0.148071 1.467682,-0.761536c0,-2.979614 13.764099,-2.048157 16.545013,1.119629c5.98233,6.814575 4.01062,14.385376 -3.74646,14.385376c-1.886139,0 -4.281097,1.009583 -5.322083,2.24353c-2.75766,3.268738 -10.413116,3.403076 -13.629303,0.239136zm50.749847,-7.427002c-4.568542,-2.176697 -6.565765,-2.235718 -12.329498,-0.36438c-7.372498,2.393555 -11.253662,1.40686 -9.739044,-2.476013c0.514923,-1.320129 -0.691132,-3.891785 -2.680176,-5.714722c-3.292542,-3.017639 -3.65921,-5.540222 -2.188507,-15.056946c0.11203,-0.724915 1.409454,-1.317993 2.883209,-1.317993c1.473724,0 2.679504,-1.186218 2.679504,-2.635986c0,-1.449829 -0.783203,-2.635986 -1.740479,-2.635986c-0.957275,0 -3.000061,-2.39624 -4.539581,-5.324951c-2.420105,-4.603882 -2.455109,-5.663391 -0.258545,-7.824219c2.834625,-2.788574 4.981873,-1.785461 3.624878,1.69342c-1.000702,2.565308 6.546326,4.190186 23.456696,5.050232c8.153564,0.414673 11.857544,-0.228882 15.480194,-2.689636c7.854828,-5.335571 14.835236,-5.859436 22.075897,-1.656738c3.527466,2.047424 7.573425,3.722656 8.991028,3.722656c3.807068,0 3.130676,2.962341 -0.91394,4.002869c-1.95636,0.503296 -4.052277,3.096741 -4.767181,5.898804c-0.701691,2.750366 -2.346008,6.053467 -3.654022,7.340271c-2.661804,2.61853 -3.262329,6.348083 -0.779053,4.838318c2.312469,-1.406006 4.20932,4.540222 2.107788,6.607605c-1.16803,1.149048 -2.631592,1.036377 -4.307129,-0.331604c-3.442413,-2.810547 -11.945953,0.416748 -13.163147,4.995667c-1.570557,5.908264 -11.846375,7.877869 -20.238892,3.879333zm-203.175568,-2.524292c-0.104095,-1.20813 -0.680389,-4.71759 -1.28067,-7.798828c-0.892456,-4.580811 -0.382324,-5.975525 2.798218,-7.650024c3.974365,-2.092468 6.912994,-0.138 6.980621,4.642761c0.106354,7.520325 -7.903748,17.705811 -8.498169,10.806091zm149.64682,-8.472778c0,-2.642883 -3.949036,-6.226624 -8.388916,-7.612915c-2.760254,-0.861816 -4.690491,-0.0047 -7.278534,3.231995c-3.300415,4.127625 -3.691925,4.214478 -6.220459,1.380371c-3.634094,-4.073425 -5.667694,-10.932434 -3.241302,-10.932434c1.048706,0 1.906738,-1.23291 1.906738,-2.739746c0,-1.506775 0.80954,-2.247437 1.79895,-1.645874c0.989441,0.601563 2.281219,-0.142578 2.870636,-1.653625c0.589417,-1.511047 2.191437,-2.747375 3.560089,-2.747375c2.991669,0 3.28598,-2.822266 0.472656,-4.532776c-1.368927,-0.832275 -1.048981,-1.757751 0.997101,-2.884216c2.751434,-1.514709 2.684631,-1.93866 -0.769653,-4.885864c-3.226135,-2.752563 -3.454285,-3.744141 -1.551147,-6.742065c1.796478,-2.829834 1.774475,-4.056274 -0.112885,-6.293457c-1.566101,-1.856384 -1.67865,-2.778687 -0.339081,-2.778687c1.102783,0 2.005066,-0.790771 2.005066,-1.757324c0,-3.240234 -3.896027,-1.799194 -4.851288,1.794373c-0.733093,2.75769 -1.484375,3.110596 -3.36087,1.578552c-2.225983,-1.817383 -10.191895,-2.803711 -31.087463,-3.849304c-7.040222,-0.352295 -8.107117,0.07135 -8.590668,3.411133c-0.336273,2.322754 2.640228,8.306396 7.614594,15.307556l8.166687,11.49408l-5.794891,-0.3703c-6.031311,-0.385437 -16.99115,-9.913635 -13.70285,-11.912842c0.92041,-0.559631 0.046783,-2.465698 -1.941406,-4.235779c-1.98819,-1.77002 -3.614929,-4.646484 -3.614929,-6.39209c0,-1.745605 -1.565674,-4.608765 -3.479248,-6.362549c-2.214386,-2.029541 -2.944977,-4.039246 -2.009644,-5.528076c1.028137,-1.636536 1.83667,-1.755005 2.691498,-0.394287c2.01474,3.206848 7.834198,2.197449 9.049622,-1.569702c0.623657,-1.933044 1.977386,-3.514648 3.00824,-3.514648c1.030853,0 1.451141,-1.591919 0.933899,-3.537659c-1.017731,-3.828674 2.918549,-6.880371 7.858002,-6.092102c1.577606,0.25177 6.011963,2.504272 9.854126,5.005554c8.096252,5.270813 18.538513,7.940796 18.538513,4.740173c0,-1.144409 0.825165,-1.578979 1.83371,-0.96582c1.008545,0.613159 1.717163,2.043762 1.574707,3.179016c-0.529144,4.216553 0.220062,6.457397 2.158966,6.457397c1.097076,0 1.596985,-1.38385 1.110931,-3.075317c-0.486053,-1.691406 -1.182709,-4.156433 -1.548096,-5.477844c-0.365387,-1.32135 0.541412,-2.69104 2.015167,-3.043762c11.53952,-2.761597 12.238861,-2.722839 15.902283,0.881042c2.061127,2.027649 3.747528,4.847595 3.747528,6.266479c0,1.418945 1.808655,3.593628 4.019257,4.832642c2.210602,1.239014 4.019287,3.748169 4.019287,5.575867c0,1.827698 1.607697,4.200073 3.572693,5.271912c1.964966,1.071899 4.236755,2.739685 5.048431,3.706177c0.956085,1.138489 1.79483,0.983765 2.381805,-0.439331c0.498322,-1.20813 1.471832,-2.196655 2.163391,-2.196655c2.003967,0 2.030975,7.532043 0.035461,9.8974c-1.912628,2.26709 1.898438,11.603333 5.67334,13.898438c1.210388,0.735901 0.491608,2.164856 -1.927338,3.831665c-2.436279,1.67865 -3.533661,3.876587 -2.978424,5.965332c1.084503,4.079834 -0.741486,5.281067 -8.187592,5.386353c-3.179962,0.044922 -7.562164,1.177917 -9.73822,2.517761c-4.757111,2.929016 -5.868469,3.033752 -5.868469,0.553162zm-238.96962,-5.978943c-2.114777,-3.45929 -11.35849,-5.648315 -21.694717,-5.137451c-9.963913,0.492432 -20.859589,-3.210083 -18.851746,-6.406067c0.58136,-0.925354 -0.131546,-1.682495 -1.584229,-1.682495c-2.29158,0 -2.320755,-0.872375 -0.220367,-6.589905c1.331497,-3.624512 3.129532,-12.520935 3.995636,-19.769836c1.40625,-11.769592 0.908325,-15.915649 1.623276,-19.432251c0.859818,-4.229309 0.267288,-5.396729 -3.624619,-7.141174c-5.194336,-2.328247 -10.74836,-9.572754 -9.212791,-12.016968c0.548515,-0.873108 -0.711021,-2.764526 -2.798943,-4.203247c-2.087936,-1.43866 -3.25972,-3.469727 -2.603989,-4.513489c0.709023,-1.12854 -0.3274,-1.897766 -2.557007,-1.897766c-2.062103,0 -6.960274,-1.611511 -10.884773,-3.581116c-3.924515,-1.969604 -7.943985,-3.089539 -8.932159,-2.488708c-1.122078,0.68219 -1.378006,-0.548645 -0.681641,-3.278137c0.810555,-3.177063 0.224464,-4.860779 -2.146461,-6.166077c-4.293648,-2.36377 -2.11393,-4.270752 5.150345,-4.505859c3.217049,-0.104065 6.843941,-1.375427 8.059769,-2.825256c1.925049,-2.295471 2.643288,-2.09259 5.560524,1.57074c1.996704,2.507446 4.218353,3.678711 5.499809,2.899597c1.182457,-0.718933 4.77047,-1.307129 7.973373,-1.307129l5.823441,0l-1.23616,-7.292908c-0.679886,-4.011047 -1.867905,-8.768738 -2.640076,-10.572571c-1.24588,-2.910583 -0.971298,-3.052002 2.439651,-1.256165c2.113953,1.112976 3.843552,2.685486 3.843552,3.494446c0,1.898804 13.173904,3.988708 16.71553,2.651794c1.489777,-0.562439 2.269165,-2.149292 1.731949,-3.526489c-0.662781,-1.699158 1.6147,-3.631592 7.086044,-6.012512c7.976212,-3.470886 11.979736,-9.366943 11.979736,-17.642761c0,-1.820557 2.122849,-3.808533 5.190369,-4.860474c4.513275,-1.547791 5.312546,-1.320374 6.126862,1.742981c0.701065,2.637329 1.866104,3.232666 4.634537,2.368286c2.488724,-0.777039 3.698029,-0.381653 3.698029,1.209229c0,3.131226 5.854965,7.961365 8.571014,7.07074c1.180893,-0.387268 2.247559,0.152649 2.370361,1.199707c0.122818,1.047058 0.34317,2.892273 0.48967,4.100403c0.146515,1.20813 1.744064,2.072021 3.550095,1.919678c1.80603,-0.152344 5.604889,1.757568 8.44191,4.244324c2.837036,2.486694 7.177582,4.733093 9.645676,4.991943c2.468094,0.25885 8.849228,2.50061 14.180283,4.981567c5.331055,2.481079 10.546463,4.510986 11.589767,4.510986c2.475174,0 2.406265,2.80957 -0.18576,7.574097c-1.145538,2.105652 -3.006729,7.391479 -4.136017,11.746338c-1.214417,4.683167 -3.10025,7.950562 -4.616043,7.997803c-1.409531,0.043945 -2.393723,0.938293 -2.187103,1.987427c0.206635,1.049133 -1.200119,3.310425 -3.126099,5.025146c-1.92598,1.714661 -3.501785,4.096558 -3.501785,5.293152c0,1.196594 -1.256744,2.650024 -2.79274,3.229858c-1.536011,0.579834 -2.27066,1.885254 -1.632553,2.901001c0.638092,1.015686 0.086151,3.182251 -1.226547,4.814636c-2.034042,2.52948 -1.616852,2.483765 2.823486,-0.309387c5.04303,-3.172241 5.286896,-3.174316 7.598679,-0.064148c1.512894,2.0354 1.764709,3.826904 0.686935,4.887207c-1.077774,1.060242 -0.748962,3.485901 0.896957,6.617004c2.407669,4.580261 2.326889,5.086182 -1.100052,6.890442c-2.942047,1.54895 -3.268677,2.456726 -1.59697,4.438232c1.155838,1.370056 1.654587,3.636841 1.108322,5.037231c-1.43277,3.673096 5.435822,11.641846 8.905594,10.332031c2.387527,-0.901306 2.505157,-0.483459 0.764618,2.715942c-1.131363,2.07959 -2.804871,3.781128 -3.718933,3.781128c-0.914032,0 -4.198715,2.439514 -7.299271,5.421082c-3.319244,3.191956 -6.83371,5.060547 -8.546722,4.544067c-1.600159,-0.482361 -5.521896,-1.735718 -8.714996,-2.785156c-15.224899,-5.003784 -15.709488,-5.026245 -22.930069,-1.060547c-4.594543,2.523438 -7.196167,5.29541 -7.589066,8.085999c-0.328827,2.33551 -1.232544,4.898132 -2.008316,5.694824c-2.321014,2.383606 -10.786041,2.63031 -12.177078,0.35498zm204.561264,-5.598755c-3.672668,-2.570679 -6.677582,-6.044617 -6.677582,-7.71991c0,-1.675293 -1.030548,-3.434998 -2.2901,-3.910461c-3.507446,-1.324097 -17.359711,-22.012146 -17.359711,-25.926453c0,-4.276978 1.555847,-4.405273 4.658722,-0.384155c2.085907,2.703186 2.379913,2.732422 2.429871,0.241638c0.041595,-2.075256 1.371521,-2.652161 4.969238,-2.155457c2.701874,0.372986 8.840424,1.047729 13.641296,1.499451c4.800842,0.451721 9.814728,1.707825 11.141907,2.791382c1.327209,1.083557 3.629089,1.511108 5.115356,0.950012c1.656158,-0.625183 2.70224,-0.020996 2.70224,1.56073c0,1.419434 -0.803833,2.580811 -1.786316,2.580811c-0.982513,0 -1.786346,1.581604 -1.786346,3.514648c0,1.933044 0.778625,3.514648 1.730286,3.514648c0.95163,0 1.263641,1.196289 0.693298,2.658325c-0.570313,1.462097 -0.044739,3.834534 1.167969,5.271973c1.832001,2.17157 1.57312,2.613586 -1.530426,2.613586c-2.750092,0 -3.434479,0.771362 -2.594696,2.924255c0.71283,1.827393 0.430084,2.492249 -0.753815,1.7724c-2.550323,-1.550537 -7.878326,6.717346 -6.539917,10.148499c1.427124,3.658569 0.840332,3.493835 -6.931274,-1.945923zm75.104187,-16.688232c-1.259155,-0.786011 -4.145508,-1.441223 -6.414093,-1.455994c-2.364777,-0.015442 -3.640472,-0.797668 -2.989838,-1.833374c0.624176,-0.993469 -0.735138,-3.339539 -3.020691,-5.21344c-2.374146,-1.946594 -3.153137,-3.432129 -1.817169,-3.465576c1.286102,-0.032166 1.875031,-0.795959 1.308716,-1.697327c-0.566284,-0.901428 -3.399384,-1.572693 -6.295746,-1.491638c-6.132477,0.171509 -11.323853,-3.404724 -9.97226,-6.869751c0.553711,-1.419495 -0.879456,-3.223083 -3.491394,-4.393799c-2.436859,-1.092285 -4.430664,-3.401306 -4.430664,-5.131165c0,-1.729858 -1.406738,-4.02124 -3.126099,-5.091858c-1.71936,-1.070679 -2.322235,-2.308533 -1.339752,-2.750732c8.053162,-3.625 10.629974,-5.730164 11.672394,-9.535828c1.279083,-4.669678 12.443268,-22.835327 12.443268,-20.246887c0,0.841003 1.849609,-0.180359 4.110229,-2.269592c3.313904,-3.062622 5.13092,-3.512207 9.378326,-2.320313c2.89743,0.81311 7.235046,1.179626 9.63916,0.814575c2.491516,-0.378418 4.970398,0.389709 5.764862,1.786255c1.185242,2.083496 2.669495,2.049805 9.919678,-0.224915c4.68924,-1.471252 9.794983,-3.741211 11.346069,-5.044312c4.728577,-3.972473 6.260284,-2.84552 14.096405,10.371338c6.283295,10.597717 7.652649,14.583923 8.141846,23.700989c0.323486,6.028198 1.101685,12.552246 1.729431,14.497864c1.259644,3.904297 7.819031,4.815002 11.141235,1.546753c2.213013,-2.177002 7.622742,-0.892456 7.622742,1.809998c0,2.85791 -6.01416,7.912415 -6.767883,5.687988c-0.371399,-1.095947 -1.284851,-1.992676 -2.029968,-1.992676c-1.647095,0 -5.49292,12.138855 -5.49292,17.337708c0,2.578552 -1.11615,3.750122 -3.572693,3.750122c-1.964966,0 -3.572693,-0.729492 -3.572693,-1.621094c0,-2.576965 -12.24295,-5.85376 -17.251221,-4.617188c-2.506378,0.618835 -6.628937,2.460632 -9.161255,4.092896c-4.905487,3.161987 -23.480408,4.422607 -27.568024,1.870972zm126.196686,-11.410583c-1.054443,-0.386108 -1.584412,-2.932068 -1.177795,-5.657654c0.607483,-4.071533 -0.307312,-5.607483 -5.127502,-8.609863l-5.866882,-3.654297l6.659729,-3.124146c9.101624,-4.269775 8.031128,-8.282654 -2.408936,-9.029846c-4.413696,-0.315918 -9.20813,-0.976379 -10.654358,-1.467773c-2.309509,-0.784729 -2.310547,-1.087341 -0.008728,-2.486877c2.224487,-1.352417 2.103149,-1.965698 -0.802124,-4.055603c-1.88269,-1.354248 -4.6922,-2.223877 -6.24353,-1.932556c-10.721619,2.013489 -12.645447,2.830566 -12.645447,5.370483c0,5.447815 -15.820801,17.500305 -25.390076,19.342468c-3.576416,0.688477 -2.898682,-1.535522 3.953918,-12.974792c4.243042,-7.08313 7.145386,-9.449402 7.145386,-5.825745c0,0.911072 1.716431,1.331238 3.814392,0.933777c4.439514,-0.841064 6.760803,-2.590149 3.437561,-2.590149c-1.251343,0 -1.835022,-1.128418 -1.297058,-2.507507c0.537964,-1.379089 -0.179871,-3.452942 -1.595215,-4.608459c-1.415344,-1.155579 -2.573364,-3.98114 -2.573364,-6.279114c0,-2.66748 -1.038818,-4.178101 -2.873169,-4.178101c-2.107422,0 -2.5979,-1.078979 -1.840332,-4.048218c0.677917,-2.657349 -0.031799,-4.92157 -2.065674,-6.589966c-9.539551,-7.825317 -29.583679,-10.479309 -34.454346,-4.562012c-4.071808,4.946716 -20.778259,10.256592 -22.045898,7.006897c-0.525848,-1.348083 -3.069061,-2.210266 -5.889709,-1.996704c-8.140594,0.616394 -19.63208,-2.152161 -22.678497,-5.463684c-3.766144,-4.093933 -0.633026,-14.630249 3.847534,-12.938843c2.287476,0.863525 2.581665,0.253723 1.535095,-3.182129c-0.712067,-2.337708 -1.444153,-5.098633 -1.626892,-6.135315c-0.408051,-2.315247 12.364166,-16.566895 14.847076,-16.566895c0.985016,0 1.913422,-0.988464 2.063049,-2.196655c0.149658,-1.20813 0.39621,-3.382813 0.547913,-4.832581c0.151672,-1.449768 -1.028015,-4.612976 -2.62149,-7.029297c-2.889771,-4.381836 -2.878937,-10.543884 0.018555,-10.543884c0.840271,0 2.802917,-1.254456 4.36142,-2.787598c4.655731,-4.580078 33.742798,-3.383484 36.975677,1.521118c0.631256,0.957642 4.784607,1.832092 9.229675,1.943176c4.445038,0.111084 8.677765,0.788208 9.405975,1.5047c0.728271,0.716492 2.35144,0.463928 3.607178,-0.561279c1.614624,-1.318298 3.382324,-1.285278 6.037476,0.11261c2.06488,1.087097 5.236511,1.513855 7.047974,0.948242c2.049194,-0.639832 3.689941,-0.012634 4.342346,1.659973c1.873352,4.80249 4.733521,2.840454 4.733521,-3.247131c0,-7.640991 3.502075,-10.355896 13.799866,-10.697998c4.567444,-0.151733 8.594604,-1.13208 8.949158,-2.178528c0.354614,-1.046509 2.123169,-1.5224 3.930176,-1.057495c1.806946,0.464844 3.758911,0.091553 4.337585,-0.82959c2.031128,-3.233032 10.181152,-0.001038 12.863098,5.100952c1.461243,2.779785 1.971558,5.054199 1.133972,5.054199c-0.837585,0 -1.168884,2.372375 -0.736267,5.271973c0.741333,4.969299 2.697998,6.176636 8.785767,5.421265c2.500305,-0.310242 8.676392,8.235291 7.084045,9.801819c-0.589783,0.5802 -0.247803,2.570496 0.759949,4.422913c1.24585,2.289978 2.94281,3.021301 5.301697,2.28479c2.055603,-0.641846 4.613892,0.042664 6.278015,1.679749c2.509338,2.468567 3.217346,2.481384 6.644226,0.120117c5.464355,-3.765198 7.213806,-3.334839 10.813599,2.660095c1.751343,2.916626 3.919556,4.855896 4.818176,4.309509c2.052856,-1.248108 18.229065,4.319763 23.142395,7.965698c3.537842,2.625183 3.556702,2.860779 0.495728,6.194641c-3.200378,3.485718 -4.131775,8.988953 -2.073547,12.252197c1.130859,1.792847 0.768005,6.36731 -0.829956,10.463928c-0.554871,1.422424 -2.680176,1.944885 -5.644287,1.387451c-3.71875,-0.699341 -5.894226,0.33374 -9.987915,4.74292c-2.87854,3.100342 -4.836304,6.26947 -4.350708,7.042419c0.485657,0.77301 -2.740479,2.403503 -7.169128,3.623291c-4.428711,1.219788 -8.480835,2.900146 -9.004761,3.73407c-0.523865,0.833984 -2.136719,1.516296 -3.584045,1.516296c-1.447266,0 -5.620056,1.312378 -9.272888,2.916443c-3.652771,1.604065 -7.179871,2.987976 -7.838074,3.075317c-2.895264,0.384338 -10.414551,8.314819 -10.414551,10.984009c0,1.61731 0.491333,2.457153 1.091858,1.866394c0.600464,-0.590759 3.104431,1.27887 5.56427,4.154724c3.313354,3.873718 5.460876,4.950928 8.286499,4.156433c2.097656,-0.589844 5.220703,-1.458374 6.940063,-1.930054c1.948181,-0.534485 3.126099,0.109375 3.126099,1.70874c0,3.329895 -4.50946,4.97644 -9.950195,3.633057c-3.018372,-0.745239 -4.636719,-0.218933 -5.408203,1.758911c-0.60553,1.552307 -2.326782,2.822388 -3.825073,2.822388c-1.49823,0 -5.230591,1.482788 -8.294006,3.295105c-3.063416,1.812378 -6.432617,2.979248 -7.487061,2.593079zm-252.820801,-23.022034c-4.591522,-8.09729 -3.45163,-11.769531 3.756378,-12.101196c6.444824,-0.296509 18.301514,-2.786316 23.488403,-4.932312c5.478699,-2.266724 5.375183,2.539978 -0.121216,5.627319c-3.91394,2.198486 -5.157623,3.958618 -4.421417,6.257507c0.714661,2.231567 -0.066864,3.47937 -2.584869,4.127136c-2.177002,0.560059 -3.228027,1.905823 -2.64856,3.391357c1.136017,2.912354 -0.213867,3.109802 -4.789612,0.700745c-2.237274,-1.177917 -3.713867,-1.177917 -4.453857,0c-1.980408,3.152283 -5.425934,1.866089 -8.22525,-3.070557zm183.917236,0.103699c-0.143066,-1.748474 -0.427002,-7.409973 -0.630981,-12.581116c-0.203979,-5.171143 -1.091736,-9.915894 -1.972809,-10.543884c-1.662262,-1.184814 -2.928101,-3.100098 -10.334778,-15.637573l-4.410889,-7.466431l4.373596,-1.079895c4.571503,-1.128723 15.022308,2.174622 15.022308,4.748291c0,0.818909 1.20575,1.033813 2.679504,0.477478c1.473694,-0.556396 2.679504,-0.136169 2.679504,0.933777c0,1.069946 1.205811,1.945313 2.679504,1.945313c3.160156,0 3.46698,2.037109 0.714539,4.744751c-1.429077,1.405884 -0.98999,2.892212 1.610046,5.449951c1.966187,1.934265 4.110413,5.176514 4.764832,7.205017c0.65448,2.028442 1.914368,3.68811 2.799805,3.68811c0.885437,0 1.149414,1.180542 0.586548,2.623474c-0.679565,1.742126 -2.409912,2.281128 -5.150635,1.604431c-3.540894,-0.874268 -4.627747,0.093994 -7.649902,6.815002c-3.959534,8.805786 -7.364502,11.909363 -7.760193,7.073303zm-136.870087,-4.256409c-10.929626,-5.322144 -15.058624,-11.084839 -13.588867,-18.965515c0.64798,-3.474243 1.871765,-6.582092 2.719543,-6.90625c0.847778,-0.324219 1.087036,-1.312683 0.531647,-2.196655c-0.555328,-0.883972 0.157532,-1.607239 1.584106,-1.607239c1.426605,0 3.098541,-1.293823 3.715363,-2.875183c1.021423,-2.61853 1.398773,-2.628357 4.226959,-0.110474c3.853821,3.430969 18.256256,2.137939 18.256256,-1.639038c0,-1.393311 1.878082,-2.404602 4.465851,-2.404602c2.456238,0 4.465881,-0.716736 4.465881,-1.592773c0,-0.876038 1.513672,-1.203369 3.363739,-0.727478c2.068665,0.532227 4.320435,-0.478333 5.848694,-2.624756c1.723053,-2.420044 4.525543,-3.490112 9.140656,-3.490112c3.660675,0 6.655731,0.711731 6.655731,1.581604c0,0.869873 1.886658,1.581604 4.192535,1.581604c2.305908,0 6.084412,1.614136 8.396729,3.586975c4.194427,3.578735 4.195404,3.589294 0.42276,4.559814c-3.947235,1.015442 -16.584717,19.368469 -16.584717,24.085388c0,3.674927 -2.197327,4.758057 -13.05188,6.43396c-14.362671,2.217468 -19.847656,3.575745 -21.692535,5.371887c-2.47229,2.406982 -4.57312,2.075623 -13.068451,-2.061157zm-134.58429,-3.766907c-1.541321,-3.660583 -3.069366,-4.851929 -5.440765,-4.241882c-4.027344,1.036072 -6.125793,-1.568359 -2.397644,-2.975769c1.468094,-0.554199 2.669281,-2.070679 2.669281,-3.369995c0,-1.299255 2.276611,-4.508057 5.059158,-7.130554c4.871063,-4.590942 8.872253,-5.772095 24.49324,-7.230469c6.996796,-0.653137 7.235779,-0.499878 7.629669,4.894104c0.430298,5.893188 4.944305,10.619263 8.765076,9.176941c3.296234,-1.244324 2.816254,0.261292 -1.40802,4.416931c-2.966187,2.917969 -4.204132,3.214294 -6.29541,1.506897c-1.431732,-1.168945 -2.784698,-1.814941 -3.006561,-1.435547c-0.221863,0.379333 -1.264709,2.224243 -2.317383,4.099792c-2.74585,4.892151 -6.202576,5.462708 -7.332977,1.210388c-0.789825,-2.971313 -1.605865,-3.32428 -4.347839,-1.880615c-1.856537,0.977417 -3.375504,2.845764 -3.375504,4.151794c0,1.306091 -2.374008,2.717468 -5.275543,3.136414c-4.469757,0.645386 -5.602905,-0.015747 -7.418777,-4.32843zm80.57547,-7.180115c-7.298004,-1.543823 -10.281128,-3.095825 -11.598816,-6.034363c-1.137512,-2.536743 -2.739685,-3.57428 -4.465881,-2.892151c-1.48056,0.585083 -4.483795,1.276184 -6.673859,1.535767c-2.190033,0.259583 -5.119324,1.400635 -6.509521,2.535645c-1.962097,1.601868 -3.115295,1.485535 -5.153992,-0.52002c-1.693939,-1.666443 -3.24054,-1.979431 -4.356415,-0.881714c-2.827332,2.781372 -7.686523,-0.222595 -7.686523,-4.751892c0,-4.516235 1.180695,-5.084229 5.273743,-2.536987c1.426819,0.887939 3.436462,1.085632 4.465851,0.439331c1.029419,-0.646362 3.881287,-1.299438 6.337524,-1.451355c2.456238,-0.151917 7.991058,-1.275879 12.299652,-2.497681c5.901337,-1.673523 8.635071,-1.729248 11.081879,-0.226013c4.285858,2.633057 5.692932,0.057068 3.321045,-6.080139c-1.586578,-4.105164 -1.365021,-5.308838 1.326965,-7.210083c1.777344,-1.255249 4.664246,-3.46759 6.415344,-4.91626c2.308899,-1.910217 4.092529,-2.15564 6.490448,-0.893188c2.571716,1.353943 4.346527,0.792786 7.985565,-2.524963c4.422211,-4.031799 5.058136,-4.134216 11.590057,-1.867065c3.801086,1.319336 8.368896,2.271973 10.150696,2.117065c2.31842,-0.201599 3.673615,1.467163 4.766083,5.868896c2.525787,10.176636 2.423553,11.138428 -1.294373,12.179504c-1.964996,0.550171 -3.653076,1.988892 -3.751343,3.197021c-0.098267,1.20813 -0.299194,4.145813 -0.446594,6.528137c-0.369232,5.968872 -5.810547,8.583069 -25.276764,12.143982c-2.456238,0.449341 -8.887085,-0.118347 -14.290771,-1.261475zm-43.876923,-17.069641c-2.886169,-1.877014 -6.252411,-3.04303 -7.48053,-2.591064c-1.228119,0.451965 -2.232941,0.134583 -2.232941,-0.705322c0,-1.707825 -7.175751,-1.35321 -14.932571,0.737915c-5.041794,1.359131 -5.090836,1.300171 -3.801285,-4.573059c0.718536,-3.272522 2.775742,-8.806335 4.571609,-12.297363l3.265182,-6.347412l-11.07515,-4.285217c-9.525375,-3.685608 -11.07518,-4.909851 -11.07518,-8.748413c0,-2.454712 -0.985687,-5.636292 -2.19043,-7.07019c-1.643005,-1.955566 -1.680161,-3.109131 -0.148575,-4.615784c1.531601,-1.506714 1.272751,-3.686646 -1.035767,-8.722839c-2.328201,-5.079102 -2.64679,-7.828979 -1.308304,-11.292236c0.973145,-2.517944 1.353531,-6.142395 0.845306,-8.054321c-0.689453,-2.593628 0.169617,-3.746216 3.383545,-4.539734c5.477325,-1.352417 9.78212,-9.558044 5.802414,-11.060364c-3.389679,-1.279602 -3.480301,-4.146057 -0.131088,-4.146057c3.187805,0 5.268158,-8.857605 3.71463,-15.815857c-1.136765,-5.091492 -0.958176,-5.271942 5.217087,-5.271942c3.5168,0 6.193192,0.593109 5.947586,1.317993c-0.510651,1.506958 1.042389,2.196655 4.946472,2.196655c1.981659,0 2.419678,-1.151855 1.624023,-4.270538c-0.967041,-3.790466 -0.619446,-4.151276 3.092041,-3.209686c2.299927,0.583466 4.985504,2.029968 5.967987,3.214447c0.982483,1.184448 3.79599,2.666565 6.252197,3.293579c4.075623,1.040405 4.161316,0.954224 0.980652,-0.986237c-4.475922,-2.730652 -12.727509,-12.387634 -12.145325,-14.213867c0.245636,-0.770508 -0.558228,-1.424927 -1.786316,-1.454315c-1.244781,-0.029785 -0.855011,-0.843109 0.880737,-1.837799c2.914825,-1.670441 2.92453,-2.068329 0.151886,-6.231201l-2.961823,-4.446838l6.99353,1.22583c8.572937,1.502686 11.559784,3.823975 7.871735,6.117767c-2.399048,1.492065 -1.260529,2.464111 2.247864,1.919128c0.736877,-0.114441 1.339752,0.448303 1.339752,1.250549c0,0.802246 2.813507,1.366821 6.252228,1.254578c6.320038,-0.206299 8.408356,1.855072 3.685455,3.63797c-1.411682,0.532928 -2.206024,1.891998 -1.765228,3.020172c0.896027,2.293152 9.69101,3.349609 9.69101,1.164063c0,-1.54538 13.353577,-8.778107 16.206818,-8.778107c0.993317,0 3.501862,1.55426 5.574554,3.453857c2.072693,1.899628 4.48587,3.017761 5.36261,2.484711c5.543365,-3.370331 11.649689,12.88797 7.678131,20.443298c-2.266907,4.3125 -2.200867,5.120911 0.623779,7.63562c1.737488,1.546875 4.07608,6.585327 5.196838,11.196594c4.424469,18.203857 4.452728,19.376953 0.559601,23.206787c-2.028992,1.996033 -5.018585,3.62915 -6.643524,3.62915c-1.624939,0 -8.123535,2.84375 -14.441315,6.319458c-10.565704,5.812622 -11.394043,6.693481 -10.328766,10.983215c0.636993,2.565125 5.326904,8.871582 10.422058,14.014404l9.263916,9.350586l-6.794067,5.665039c-6.216064,5.183105 -6.633972,6.079224 -4.912445,10.53363c2.510559,6.495972 2.423309,6.759705 -1.449249,4.380493c-2.552032,-1.567871 -5.162537,-1.526917 -11.164673,0.175171c-4.308594,1.221802 -9.843414,2.345764 -12.299652,2.497681c-2.456238,0.151917 -5.319855,0.812195 -6.363647,1.467224c-1.043762,0.65509 -4.259186,-0.344727 -7.145386,-2.221802zm95.131836,-7.91095c-6.463379,-5.955872 -6.172974,-13.654297 0.549103,-14.556763c5.0177,-0.673645 10.718079,-5.022705 10.718079,-8.177307c0,-1.144836 2.009644,-2.9823 4.465851,-4.083252c3.322205,-1.489136 4.465881,-1.491577 4.465881,-0.009705c0,1.156433 1.358917,0.782166 3.239807,-0.892334c2.499146,-2.224976 3.724304,-2.407715 5.359009,-0.799561c1.165588,1.146606 2.119263,3.112793 2.119263,4.369263c0,3.000122 3.602539,2.815125 7.93338,-0.407349c4.561066,-3.393738 13.684723,-3.275818 21.253113,0.274597l6.085205,2.854675l-2.898499,6.792725c-2.768921,6.489014 -6.034332,8.609863 -8.127167,5.278625c-0.535553,-0.852417 -4.199005,-1.593628 -8.141113,-1.647156c-5.439117,-0.073853 -7.635712,0.76355 -9.109589,3.472778c-1.265381,2.325928 -3.133301,3.263611 -5.360168,2.690735c-1.879883,-0.483643 -3.868134,-0.16272 -4.418335,0.713074c-0.550201,0.875793 -2.962585,1.592346 -5.36084,1.592346c-2.685028,0 -4.360413,1.012756 -4.360413,2.635925c0,1.449829 -1.406738,2.64679 -3.126099,2.659973c-1.71936,0.013184 -4.733826,0.437073 -6.698822,0.941956c-2.31488,0.594788 -5.338226,-0.708984 -8.587646,-3.703247zm-50.277679,-22.102234c-6.357422,-6.151978 -12.019958,-13.162415 -12.583374,-15.578735c-0.899902,-3.859192 0.117523,-5.019958 8.369141,-9.547852c12.026764,-6.599365 28.245819,-10.612061 28.245819,-6.988159c0,1.36261 0.602905,2.347717 1.339783,2.189209c2.707275,-0.58252 11.114075,2.46167 10.314178,3.734924c-0.454163,0.7229 1.038452,3.037292 3.316925,5.143005c3.670776,3.392456 4.401184,3.522278 6.41156,1.139221c2.009338,-2.381775 3.317047,-2.138733 11.43277,2.124695c13.09903,6.881348 14.497681,9.237671 7.377563,12.429077c-2.456207,1.100952 -4.465851,3.071228 -4.465851,4.378418c0,3.001099 -7.936646,7.297668 -10.54776,5.710144c-1.076141,-0.654297 -1.956665,-0.363586 -1.956665,0.645996c0,2.24176 -12.998962,1.231384 -20.489868,-1.59259c-4.159058,-1.567932 -5.703552,-1.503052 -7.145386,0.300049c-6.316772,7.899475 -7.482666,7.656555 -19.618835,-4.087402zm112.455719,-2.659363c-8.327179,-4.748962 -18.053741,-5.300232 -23.789001,-1.348389c-3.817688,2.630554 -4.244568,2.529785 -7.725403,-1.823425c-2.837524,-3.548767 -4.235413,-4.15802 -6.081451,-2.650879c-1.840027,1.502319 -2.939148,1.073425 -4.729919,-1.845398c-2.89502,-4.718689 -27.45578,-17.397461 -25.880981,-13.360229c1.654572,4.241577 -1.525696,4.8927 -5.071564,1.038208c-2.343201,-2.547119 -2.549744,-3.473145 -0.774628,-3.473145c3.825195,0 -0.551514,-3.467957 -5.570587,-4.41394c-2.384094,-0.449341 -5.227203,-2.01239 -6.317993,-3.473511c-1.09082,-1.46106 -2.738708,-2.656494 -3.662018,-2.656494c-0.923309,0 -1.678741,-2.634949 -1.678741,-5.855469c0,-9.331543 -4.555267,-25.470154 -8.073212,-28.602112c-2.8992,-2.581116 -2.967957,-3.365234 -0.67746,-7.722656c1.825073,-3.471863 2.095154,-6.40802 0.950623,-10.333862c-1.825287,-6.261078 -1.32312,-6.683899 13.646851,-11.489868c5.082458,-1.631683 10.092712,-3.976471 11.133911,-5.210663c2.739227,-3.246887 20.591705,-8.865631 24.036804,-7.565094c1.609619,0.607635 2.926605,2.63382 2.926605,4.502655c0,4.020447 9.505005,7.942352 14.020416,5.785095c4.096466,-1.957123 44.585754,-1.361664 46.47229,0.683411c1.703461,1.846619 7.388428,23.534027 7.388428,28.185883c0,1.623596 -2.166351,4.927063 -4.814117,7.341064c-4.77359,4.352112 -4.783966,4.413086 -1.23175,7.242737c2.674591,2.130554 3.53244,4.810486 3.385406,10.575806c-0.114899,4.505554 1.270569,10.640015 3.326172,14.727234c3.053772,6.07196 3.175507,7.265564 0.913757,8.960388c-1.43512,1.075439 -6.050476,5.66156 -10.256287,10.191406c-6.713318,7.23053 -7.396118,8.697144 -5.59256,12.01239c2.827393,5.197205 1.964325,5.276855 -6.27359,0.578857zm-216.850861,-8.326965c-2.06958,-2.167175 -3.762848,-5.395752 -3.762848,-7.174683c0,-3.022156 -0.214401,-3.043518 -3.266769,-0.32605c-3.467545,3.087097 -5.802963,3.768127 -5.453415,1.590332c0.65416,-4.075745 -0.754974,-6.080505 -5.391617,-7.670532c-2.84906,-0.977051 -5.606125,-3.379211 -6.126862,-5.338135c-0.710938,-2.674438 -1.867996,-3.273987 -4.644836,-2.406982c-2.818619,0.880066 -3.698044,0.391174 -3.698044,-2.055725c0,-4.563782 6.34462,-8.115662 10.545822,-5.903809c2.43335,1.281128 5.161377,0.860413 10.230347,-1.577759c3.943298,-1.896667 7.184479,-2.580994 7.546112,-1.593201c0.348679,0.952332 2.55928,2.451599 4.91246,3.331726c2.954529,1.105103 4.278534,2.973267 4.278534,6.037048c0,2.724915 1.009598,4.436829 2.616669,4.436829c3.62381,0 6.472015,5.708252 4.431427,8.881226c-0.898895,1.397766 -1.671112,1.750549 -1.716049,0.783997c-0.044907,-0.966492 -0.91008,-0.357483 -1.922623,1.353455c-1.012527,1.710938 -1.366058,4.582764 -0.785599,6.381836c1.60434,4.972717 -3.461716,5.785645 -7.792709,1.250427zm9.260071,-1.081299c-0.20607,-2.897644 0.298401,-5.268433 1.121033,-5.268433c2.786636,0 5.573669,4.810608 4.452377,7.685181c-1.828766,4.688232 -5.171204,3.238892 -5.57341,-2.416748zm-138.826088,-13.615662c9.383476,-12.307983 12.093384,-14.435791 18.425484,-14.467529c5.969429,-0.029968 8.896706,-2.242065 12.83007,-9.695618c1.599487,-3.031006 1.533897,-3.130981 -0.476761,-0.726379c-1.28231,1.533569 -4.206024,3.770752 -6.497154,4.971558c-3.510849,1.840027 -4.508255,1.722351 -6.344917,-0.748596c-1.198593,-1.612549 -3.343307,-2.736511 -4.76606,-2.497742c-1.422737,0.23877 -4.003769,-0.174438 -5.735657,-0.918274c-1.849899,-0.794556 -4.244804,-0.457642 -5.805626,0.81665c-1.461227,1.192993 -2.716484,1.874573 -2.789497,1.514587c-1.578438,-7.782593 -1.434006,-8.115356 4.200539,-9.678833c3.943375,-1.094116 6.740204,-3.522827 8.87767,-7.709106c1.834099,-3.592102 2.381828,-6.354675 1.328629,-6.701111c-0.98558,-0.324158 -1.337555,-1.312683 -0.782227,-2.196655c0.555367,-0.883911 -0.271759,-1.607178 -1.838058,-1.607178c-2.294235,0 -2.476143,-0.683167 -0.93573,-3.514648c2.064377,-3.794678 11.389427,-4.953796 13.451187,-1.671997c0.794159,1.264099 1.933388,1.20929 3.628319,-0.1745c2.094261,-1.709839 2.060638,-2.420532 -0.220695,-4.664795c-1.64257,-1.615906 -2.086723,-3.431122 -1.139725,-4.658142c2.61145,-3.383636 1.568092,-12.554352 -1.428329,-12.554352c-5.645569,0 -6.767731,-8.279449 -1.786339,-13.179901c3.572678,-3.514618 3.572678,-3.514618 -0.893181,-3.514618c-2.456215,0 -4.465858,0.706177 -4.465858,1.569305c0,2.591339 -5.643982,3.90036 -8.11573,1.882324c-1.717216,-1.402008 -2.455566,-1.106079 -2.899681,1.162201c-0.564392,2.882446 -0.75988,2.881775 -3.702881,-0.013458c-2.951828,-2.9039 -2.930191,-3.397644 0.433289,-9.883453c2.274162,-4.385284 2.880234,-7.22821 1.694611,-7.949066c-1.015137,-0.617188 -1.318314,-2.756836 -0.673729,-4.754761c0.890785,-2.760986 0.53183,-3.3909 -1.49601,-2.625397c-1.467392,0.553925 -3.569801,0.120026 -4.672005,-0.964294c-1.481133,-1.457062 -2.036781,-1.30661 -2.12957,0.57666c-0.076027,1.542603 -0.689697,1.161194 -1.555145,-0.966522c-0.941452,-2.314514 -0.26281,-5.914886 1.987389,-10.543915l3.417023,-7.029266l-4.367493,5.086273c-2.81572,3.279114 -5.38134,4.703583 -7.220894,4.009125c-3.819756,-1.441956 -3.638077,-4.667267 0.272705,-4.840851c1.719475,-0.076294 2.160141,-0.524841 0.979355,-0.996826c-1.590607,-0.635803 -1.35923,-2.534668 0.893166,-7.329865c1.671974,-3.559448 3.843788,-7.052734 4.826279,-7.762848c1.008751,-0.729065 0.42556,-1.302765 -1.33976,-1.317993c-4.66433,-0.040131 -4.308327,-9.964844 0.410286,-11.43811c1.94503,-0.6073 3.38797,-1.649078 3.206528,-2.315094c-0.181442,-0.665985 0.636986,-3.978668 1.818726,-7.361511l2.148621,-6.150604l11.615143,-0.163025c13.569023,-0.19046 14.756241,1.782288 5.329468,8.855591c-3.457108,2.594025 -5.835266,5.433319 -5.284798,6.30954c0.550491,0.876221 -0.33075,3.592468 -1.958313,6.036072c-3.321136,4.986298 -1.98819,5.510254 4.597076,1.806946c4.81942,-2.710236 22.423637,-3.57193 23.931763,-1.171387c1.832047,2.916138 -7.589813,22.246613 -12.211998,25.054932c-6.588692,4.003143 -7.884857,5.739624 -3.234619,4.333435c6.786591,-2.052216 4.44735,1.677765 -2.63147,4.195892c-6.408302,2.279633 -6.496529,2.421967 -2.420631,3.905243c2.326584,0.846649 5.585869,1.116089 7.242889,0.598724c4.176315,-1.303986 14.682785,6.087433 16.217819,11.409393c0.696945,2.416321 2.169144,7.659637 3.271545,11.651855c1.525894,5.525726 3.298187,7.785736 7.42395,9.466919c7.751053,3.158417 9.284943,6.972046 4.931564,12.260864l-3.586441,4.357117l5.405228,2.169708c6.696289,2.687958 8.871262,8.371063 4.86879,12.721893c-2.705963,2.941467 -2.687714,3.258362 0.251495,4.36792c1.743027,0.657959 3.452438,0.360291 3.79866,-0.66156c0.903137,-2.665344 9.563354,-2.188171 13.498825,0.743774c5.143433,3.831848 2.594788,14.132935 -4.373779,17.677979c-2.935547,1.493347 -4.913742,3.389404 -4.396027,4.213501c0.517715,0.824097 -0.310791,1.971008 -1.841171,2.548706c-4.330032,1.634644 -1.166412,4.589905 4.913513,4.589905c4.747177,0 5.166931,0.362 3.167603,2.731873c-4.092316,4.85083 -9.532639,6.795837 -19.568878,6.996155c-19.769821,0.394653 -23.432236,0.817627 -22.325996,2.578491c1.237267,1.96936 -4.107864,1.541748 -7.611267,-0.608948c-3.492058,-2.143677 -8.614639,0.227478 -10.831444,5.013733c-1.760048,3.80011 -2.543884,4.10376 -6.275688,2.431091c-3.313477,-1.485168 -5.494865,-1.285461 -9.782341,0.89563c-8.048874,4.094604 -8.467941,3.544495 -2.88163,-3.782837zm134.734901,-15.147766c-2.456223,-1.057983 -5.425308,-2.825012 -6.597961,-3.926758c-1.172653,-1.101746 -4.388062,-1.705566 -7.14537,-1.341797l-5.01329,0.661438l5.132324,-2.380554l5.132324,-2.380493l-5.37883,-1.058289l-5.37883,-1.058289l4.265778,-8.289063c2.346191,-4.55896 4.265778,-9.341248 4.265778,-10.627197c0,-1.286011 0.852127,-2.338135 1.8936,-2.338135c1.10228,0 1.539398,2.210876 1.046036,5.290588c-1.112885,6.946533 4.526718,10.617249 9.504059,6.186035c2.659302,-2.367554 2.865128,-3.603943 1.191162,-7.15564c-1.112991,-2.36145 -2.626511,-4.299744 -3.363373,-4.307312c-2.886444,-0.029541 -1.248459,-8.585876 1.786362,-9.331299c15.462677,-3.798157 24.018311,3.916992 14.290756,12.886902c-3.734863,3.44397 -3.802917,3.863159 -0.961639,5.924255c2.704346,1.96167 2.760757,2.634949 0.488251,5.82666c-1.413147,1.984802 -4.615463,4.113892 -7.116257,4.731323c-3.815903,0.9422 -4.25473,1.659729 -2.729538,4.463257c0.999527,1.83728 1.218216,4.872192 0.485931,6.744263c-1.133957,2.898987 -1.993668,3.118469 -5.797272,1.480103zm316.011292,-2.864746c-0.560486,-1.449829 -3.363586,-2.792603 -6.229187,-2.984009c-2.865601,-0.191467 -11.140198,-0.702698 -18.388062,-1.136108c-7.247864,-0.433472 -13.678711,-1.551514 -14.290771,-2.484558c-3.192596,-4.866699 -34.348724,-5.906555 -39.50238,-1.318359c-4.004425,3.565125 -7.185577,2.239563 -5.933075,-2.472168c0.584686,-2.199524 -0.377014,-4.031494 -2.780701,-5.296997c-3.957428,-2.083557 -3.379547,-7.152954 0.815399,-7.152954c3.771576,0 4.909027,-7.786377 2.550323,-17.45874c-2.444519,-10.024353 -1.572906,-12.506561 4.019531,-11.447052c4.88208,0.924927 10.620453,-0.703949 9.388458,-2.664978c-0.846191,-1.346893 7.345398,-4.476379 10.168915,-3.884918c0.701508,0.146942 0.847656,-0.829529 0.324799,-2.169952c-0.522858,-1.340424 -0.09201,-2.959198 0.957458,-3.59726c1.049469,-0.638092 1.908142,-2.299652 1.908142,-3.692413c0,-2.77948 6.199738,-9.561523 8.740601,-9.561523c2.352234,0 3.870728,-4.944 1.733704,-5.644745c-1.195251,-0.391968 -1.066467,-2.247101 0.371582,-5.35202c1.740509,-3.757935 3.064606,-4.538879 6.329071,-3.732849c3.077942,0.759949 5.266815,-0.254456 8.604095,-3.987457c2.461731,-2.753693 4.501343,-4.04303 4.532349,-2.865204c0.031067,1.177795 1.262268,1.68631 2.735962,1.129974c1.473755,-0.556366 2.679565,-0.089447 2.679565,1.037506c0,1.126984 0.731262,1.604431 1.625122,1.060974c2.728943,-1.659149 7.142395,0.914063 6.109497,3.562073c-1.153259,2.956451 1.449097,3.297028 4.236877,0.554504c2.937073,-2.889313 11.595764,1.787933 14.555298,7.862457c1.860962,3.819611 1.973877,6.030121 0.473755,9.269165c-1.562256,3.373047 6.560364,17.270142 8.279724,18.533112c1.71936,1.26297 3.12616,3.481445 3.12616,4.929962c0,1.448517 1.20575,2.711945 2.679504,2.807648c6.250366,0.405823 7.302063,0.795563 6.328491,2.345184c-0.565247,0.89975 -0.210754,2.132599 0.78772,2.739716c3.053955,1.85675 2.037292,4.386932 -2.597473,6.464325c-3.296936,1.477844 -5.044006,1.46283 -6.908386,-0.059326c-3.062012,-2.5 -7.636475,1.871582 -5.506348,5.262146c0.738831,1.176025 1.907959,5.17572 2.598022,8.888184c1.127686,6.066589 0.839722,6.852478 -2.844421,7.762085c-5.618713,1.387329 -9.303284,5.834106 -10.04126,12.118591c-0.378357,3.221863 -1.015381,4.246887 -1.638062,2.635986zm-507.361832,-3.160156c-0.11636,-0.678223 -0.11636,-1.826233 0,-2.551147c0.116352,-0.724915 -0.639759,-1.317993 -1.680239,-1.317993c-1.04047,0 -1.37504,-0.82251 -0.74349,-1.827759c0.746719,-1.188599 -0.621941,-1.447327 -3.91386,-0.739868l-5.06212,1.08783l4.17193,-3.3349c2.36305,-1.888916 3.912111,-4.764832 3.572691,-6.632874c-0.4575,-2.517944 1.090879,-3.808289 6.546148,-5.455383c6.223591,-1.879089 6.511662,-2.174866 2.232933,-2.29248c-5.859852,-0.161072 -6.599392,-4.34082 -1.339764,-7.572144c5.168941,-3.175598 4.399811,-4.860291 -2.232929,-4.891052c-3.193098,-0.014771 -6.985628,-0.761047 -8.427849,-1.658386c-2.206699,-1.372925 -1.9944,-2.167114 1.33976,-5.01181c4.930111,-4.20639 5.090469,-7.36142 0.374149,-7.36142c-3.140659,0 -3.30974,-0.438049 -1.356649,-3.514618c2.4939,-3.928497 7.73881,-4.686432 9.120459,-1.317993c0.711563,1.734772 0.930653,1.727753 1.04203,-0.033478c0.0965,-1.525909 1.644032,-1.859039 4.900612,-1.054993c3.908199,0.964966 4.56123,0.666687 3.650719,-1.667542c-2.16655,-5.554199 2.78413,-5.069611 7.912971,0.774506l5.208969,5.935455l3.484932,-4.39328c1.916691,-2.416321 3.502789,-3.435608 3.524632,-2.265106c0.021843,1.170502 1.751404,3.69696 3.84346,5.614319c4.231468,3.878143 6.986679,20.275574 4.75219,28.282471c-2.599564,9.315186 -3.52684,10.704895 -5.867592,8.793823c-1.63826,-1.337585 -2.727768,-1.36615 -3.527893,-0.092529c-0.636711,1.013428 -2.539257,1.842651 -4.227898,1.842651c-1.68866,0 -4.5042,1.647461 -6.256802,3.661072c-1.75259,2.013611 -4.290878,3.244263 -5.640629,2.734741c-1.349739,-0.509583 -2.733551,-0.101685 -3.0751,0.906311c-0.74855,2.209167 -12.024979,7.106995 -12.325771,5.353577zm418.93837,-53.820892c-0.888306,-1.971222 -3.308685,-4.405334 -5.378632,-5.40918c-3.008881,-1.459137 -3.45816,-2.637329 -2.240509,-5.875427c1.966949,-5.230835 -1.739899,-9.056335 -8.775421,-9.056335c-6.61087,0 -10.41449,-4.232849 -11.91687,-13.261719c-0.988495,-5.940491 -0.547729,-7.676178 2.677521,-10.543884c3.257111,-2.896057 6.031433,-3.354767 17.742889,-2.933533c7.635162,0.274597 15.749786,0.853088 18.032501,1.285583c2.282745,0.432465 4.806274,-0.187622 5.60791,-1.37793c1.09137,-1.620544 1.92038,-1.391663 3.299957,0.911072c1.013306,1.691406 3.252472,3.075287 4.975922,3.075287c4.91156,0 15.205414,11.412292 14.087402,15.618042c-0.518127,1.949158 -0.022583,3.914825 1.101227,4.368134c1.12381,0.453278 0.636566,0.886597 -1.082794,0.962891c-1.71936,0.076324 -3.126099,1.324921 -3.126099,2.774719c0,1.449799 -1.205811,2.635986 -2.679535,2.635986c-1.608948,0 -2.679504,1.622864 -2.679504,4.06192c0,4.660767 -6.004852,11.753937 -9.950562,11.753937c-1.466309,0 -3.09491,1.099518 -3.61911,2.44339c-1.568115,4.02002 -14.123291,2.90094 -16.076294,-1.432953zm-380.518501,0.689697c-2.073944,-0.773315 -4.344269,-2.856079 -5.045174,-4.628387c-1.183365,-2.99231 -1.519966,-2.926147 -4.714344,0.92627l-3.439968,4.148651l-3.347343,-4.066589c-3.334568,-4.051117 -3.321999,-4.091309 3.291111,-10.532257c8.489269,-8.26828 14.137478,-10.183655 17.336994,-5.87915c1.302963,1.75296 2.369034,4.617645 2.369034,6.365967c0,1.748322 0.803864,3.178772 1.786354,3.178772c2.858536,0 2.064369,5.131042 -1.33976,8.655853c-2.236053,2.315338 -4.199715,2.836609 -6.896904,1.830872zm250.481667,-6.226837c-1.483582,-3.803253 -0.785126,-4.490387 2.521179,-2.480194c1.912872,1.163025 2.082184,2.110596 0.632019,3.537201c-1.450165,1.426605 -2.294861,1.143463 -3.153198,-1.057007zm-276.534374,-8.239746c1.15728,-1.371765 1.718182,-2.87381 1.24646,-3.337891c-0.471741,-0.46405 2.401581,-2.645813 6.385132,-4.848297c3.983547,-2.202515 7.688019,-3.566589 8.23214,-3.031311c0.54414,0.535309 -0.55262,3.580597 -2.437222,6.767334c-2.633678,4.453339 -4.826939,5.927124 -9.4786,6.369171c-5.05719,0.480591 -5.706161,0.165131 -3.94791,-1.919006zm221.409069,-2.503479c-2.068085,-0.531677 -3.126099,-2.523315 -3.126099,-5.884918c0,-3.064148 -1.256134,-5.742615 -3.164337,-6.747253c-2.657074,-1.398926 -3.138458,-3.984985 -3.002869,-16.131134c0.143524,-12.855408 0.617065,-14.828033 4.255432,-17.726318c2.251678,-1.793671 5.691986,-3.2612 7.645172,-3.2612c1.953217,0 5.920044,-2.494537 8.815186,-5.543427c7.000793,-7.37262 10.35733,-4.799225 6.957672,5.334442c-2.981812,8.888214 -1.309357,16.024841 3.755371,16.024841c3.163818,0 3.400421,0.423126 1.497742,2.678467c-1.242798,1.473114 -2.674011,2.270782 -3.180481,1.772552c-1.707489,-1.679749 -5.511993,2.812317 -4.524933,5.342712c0.605927,1.553436 -0.154266,2.507507 -1.997955,2.507507c-1.636841,0 -2.479248,0.790771 -1.87204,1.757294c0.607208,0.966522 0.051758,1.759857 -1.234344,1.762939c-1.572357,0.003754 -2.353851,2.594208 -2.385651,7.907928c-0.026001,4.346252 0.777832,7.914429 1.786346,7.929199c1.008514,0.014801 0.627869,0.793518 -0.845886,1.730438c-2.808167,1.785278 -4.234497,1.868317 -9.378326,0.545929zm34.905273,-4.867188c-3.153748,-2.211121 -5.299225,-4.448059 -4.767731,-4.970947c0.531525,-0.522888 0.112671,-2.519989 -0.930786,-4.437988c-1.679382,-3.087006 -0.948578,-3.925934 6.367462,-7.30899c6.640656,-3.07077 8.559204,-3.364685 9.763641,-1.495819c2.105988,3.267639 1.923737,8.908844 -0.245209,7.590118c-0.989441,-0.601563 -2.312378,0.222382 -2.93985,1.830963c-0.627472,1.608612 -0.152435,3.525665 1.055573,4.260132c1.612701,0.980499 1.391052,1.639435 -0.834076,2.479431c-2.462219,0.929474 -2.61676,1.634369 -0.824188,3.759155c3.180481,3.769989 0.001495,2.953766 -6.644836,-1.706055zm115.358643,2.744446c1.344055,-0.837646 3.140442,-2.604828 3.991913,-3.927063c1.140503,-1.771027 1.555359,-1.362885 1.5755,1.549896c0.020386,2.944702 -0.998566,3.947113 -3.991913,3.927063c-2.960938,-0.019806 -3.375793,-0.427948 -1.5755,-1.549896zm-75.757416,-2.054749c-1.922607,-3.060272 0.26709,-3.708344 2.717133,-0.804199c1.408997,1.670135 1.544525,2.678436 0.359985,2.678436c-1.0448,0 -2.429504,-0.843414 -3.077118,-1.874237zm-21.287445,-6.792542c-0.64859,-1.03241 -0.771576,-2.526093 -0.273254,-3.319275c0.498322,-0.793182 -0.648224,-3.95636 -2.547852,-7.029266c-1.899597,-3.072906 -2.661804,-5.587128 -1.693756,-5.587128c2.206329,0 2.328522,-11.009918 0.147247,-13.267731c-3.443146,-3.563934 -14.996918,-27.926788 -17.327423,-36.537354c-2.930847,-10.828796 -3.349945,-19.265717 -0.756561,-15.230347c2.875366,4.474182 6.319397,-0.99942 6.12796,-9.739197c-0.094238,-4.300598 0.594666,-7.819275 1.530853,-7.819275c0.936188,0 1.294464,-1.045227 0.796143,-2.322784c-0.498352,-1.277496 0.543732,-3.21344 2.315704,-4.302063c4.030396,-2.476166 5.987762,-13.50827 3.735291,-21.052887c-1.3125,-4.39624 -1.164795,-5.711304 0.641357,-5.711304c2.015137,0 4.446106,-4.95636 4.525146,-9.225922c0.013397,-0.724884 -1.784302,-3.09726 -3.994904,-5.271942c-3.068756,-3.01889 -4.102722,-6.239685 -4.37207,-13.619202c-0.194031,-5.315887 -0.487518,-11.642242 -0.652191,-14.058533c-0.164673,-2.416321 -0.171478,-6.765686 -0.015137,-9.665253c0.156342,-2.899567 0.225433,-6.45816 0.153564,-7.907928c-0.45871,-9.252136 4.84433,-20.140839 10.699341,-21.968933c1.793549,-0.560013 5.318817,-0.510086 7.833954,0.110916c3.713928,0.916992 4.951447,0.311859 6.587891,-3.221359c2.093262,-4.519562 -0.180542,-11.824295 -3.680634,-11.824295c-0.896332,0 0.720123,-4.942444 3.592072,-10.983231c3.940155,-8.287598 5.34201,-14.050552 5.711792,-23.480911c0.478729,-12.209885 0.613434,-12.533585 5.84906,-14.058533c4.090851,-1.191498 5.364807,-2.60051 5.383423,-5.954163c0.013428,-2.416321 2.097351,-7.556458 4.63089,-11.422562c8.899261,-13.579834 9.274506,-12.755081 6.189758,-17.38649c-3.457092,-5.190491 -3.49649,-6.094604 -0.265503,-6.094604c1.397522,0 3.50882,-2.965485 4.691711,-6.589951c1.182892,-3.624466 3.343628,-7.93486 4.801605,-9.578644c2.360535,-2.661377 3.086304,-2.708038 6.626617,-0.426025c3.690613,2.37886 4.124908,2.240677 6.055023,-1.926605c1.143585,-2.469101 2.079254,-7.219849 2.079254,-10.557205c0,-3.337357 0.803864,-6.067924 1.786346,-6.067924c0.982483,0 1.786346,0.790787 1.786346,1.757317c0,0.966522 1.647644,1.757309 3.661377,1.757309c2.013794,0 6.175751,1.279083 9.24884,2.84243c5.250671,2.671089 5.733551,2.645821 8.011688,-0.419067c1.468903,-1.976234 1.714142,-3.494324 0.622314,-3.852348c-1.051208,-0.344704 -0.599304,-2.396461 1.084747,-4.924896c2.300385,-3.453773 2.480164,-5.211639 0.885223,-8.655289c-1.596405,-3.446808 -1.505615,-4.32132 0.448639,-4.32132c1.347565,0 2.892517,1.13414 3.433228,2.520309c0.54071,1.386162 6.783081,6.527283 13.871979,11.424713c17.054535,11.782303 21.959473,18.914474 21.454407,31.196274c-0.211182,5.134567 0.385956,9.335556 1.326965,9.335556c0.94101,0 1.315033,1.489212 0.831207,3.309357c-0.483856,1.82016 0.332306,3.615051 1.813629,6.433136c2.119385,4.031799 2.318817,6.851471 0.935791,13.230591c-1.177612,5.431732 -1.148376,10.332382 0.088531,14.851334c1.01535,3.709457 1.869232,7.469376 1.897522,8.355362c0.078003,2.445221 -11.878113,1.924835 -15.037384,-0.65451c-2.025391,-1.653625 -2.774689,-1.704697 -2.774689,-0.189163c0,1.141907 -0.803833,1.587463 -1.786346,0.990112c-1.037964,-0.631073 -1.786346,1.103653 -1.786346,4.140625c0,3.506836 -1.728699,6.831802 -5.253571,10.104645c-2.889435,2.682861 -4.829803,5.55246 -4.311859,6.376846c0.517883,0.824402 -0.509705,3.638809 -2.2836,6.254272c-3.674438,5.417618 -3.470154,9.059982 0.684937,12.211121c2.600006,1.971817 2.464417,2.618591 -1.396606,6.661697c-2.351959,2.46286 -5.110107,6.98616 -6.129242,10.051849c-1.307556,3.933151 -4.482208,7.07164 -10.78476,10.66188c-8.155884,4.645996 -24.115662,21.516357 -24.115662,25.491608c0,0.911743 -2.063416,2.987762 -4.585388,4.613373c-3.427917,2.209534 -4.105316,3.52478 -2.683441,5.210144c1.373749,1.628418 0.885315,5.133911 -1.758942,12.622986c-2.828735,8.011627 -3.399872,12.641632 -2.512512,20.368683c1.043396,9.086029 1.59491,10.096649 6.033417,11.055664c5.127075,1.107819 18.011292,15.836548 18.011292,20.589813c0,1.430969 -2.202576,3.58902 -4.894623,4.795654c-4.572296,2.049408 -4.682892,2.346191 -1.679443,4.506683c3.46402,2.49176 1.035034,5.591553 -2.633667,3.361023c-1.14328,-0.695099 -1.582123,-0.489441 -0.984711,0.461456c0.592743,0.943451 -0.438782,2.992706 -2.292236,4.553894c-2.411407,2.031189 -3.615479,2.2453 -4.233307,0.752808c-0.534027,-1.290009 -0.911072,-1.080109 -0.988342,0.550262c-0.068726,1.449799 -2.581543,4.622925 -5.584106,7.051453c-4.822968,3.90094 -5.561249,5.743988 -6.335449,15.815857c-0.481995,6.270203 -1.366791,12.981964 -1.966217,14.915009c-0.599457,1.933044 -1.248962,6.080261 -1.443359,9.216064c-0.194427,3.135773 -1.836273,8.936249 -3.64859,12.889954c-3.273224,7.140717 -3.346344,7.180969 -10.993896,6.052795c-6.3815,-0.941406 -7.698792,-0.64856 -7.698792,1.711609c0,1.56604 -0.712769,2.414001 -1.583923,1.884338c-2.46051,-1.495941 -5.65567,3.357391 -5.135986,7.801392c0.336761,2.879944 -0.532471,4.111938 -3.10498,4.400787c-1.964966,0.220642 -4.898132,0.952484 -6.518097,1.626373c-1.619995,0.673859 -3.476105,0.380493 -4.124725,-0.651917zm165.454865,-11.482422c-3.048645,-3.415802 -6.885712,-6.210571 -8.526764,-6.210571c-1.641083,0 -3.990204,-1.354004 -5.220306,-3.008972c-1.670776,-2.247772 -2.850342,-2.52713 -4.662811,-1.10434c-1.334412,1.047577 -3.632019,1.713501 -5.105743,1.479889c-1.473755,-0.233582 -8.619934,-0.918945 -15.880463,-1.52298c-11.446167,-0.952271 -13.99881,-0.61319 -19.203217,2.551056l-6.002289,3.649323l0.011017,-4.975952c0.006042,-2.736755 1.211853,-7.240997 2.679504,-10.00943c1.467682,-2.768433 2.680847,-6.722412 2.695892,-8.786591c0.03717,-5.102325 1.709198,-7.000214 8.0112,-9.093292c4.74704,-1.57663 5.818024,-1.244019 9.378296,2.912506c2.210602,2.580811 4.019287,5.538879 4.019287,6.573517c0,1.034637 1.607727,2.72757 3.572693,3.762115c7.193146,3.787079 15.458374,-4.828339 13.41449,-13.982849c-0.965973,-4.326569 -0.367432,-5.356537 4.501251,-7.745911c6.344574,-3.113647 9.975708,-1.69577 17.521637,6.841797c3.020416,3.417328 4.66803,4.074066 7,2.790253c2.14386,-1.180298 4.547485,-0.808746 8.091492,1.250732c4.475464,2.600769 4.93515,3.679199 4.092957,9.602417c-0.530914,3.733948 -0.243622,6.243927 0.652283,5.699219c0.880554,-0.53537 2.531677,1.800659 3.669128,5.191132c1.848389,5.509705 1.626526,6.720612 -2.088989,11.399658c-2.788483,3.511658 -5.311554,4.980652 -7.663849,4.462158c-1.928772,-0.425171 -4.835876,0.410187 -6.460236,1.856354c-2.66214,2.370026 -3.500122,2.016846 -8.49646,-3.581238zm-100.328491,-32.654236c0,-5.05191 7.009979,-13.974609 10.978912,-13.974609c2.621918,0 1.664978,3.572266 -1.251892,4.673401c-1.625427,0.613586 -2.560577,2.675995 -2.254669,4.972473c0.524933,3.940735 -2.977112,9.684601 -5.904724,9.684601c-0.862213,0 -1.567627,-2.410126 -1.567627,-5.355865zm102.450836,-7.327423c-4.779663,-5.820251 -12.875397,-10.528625 -15.416962,-8.966309c-4.773682,2.934479 -7.025391,2.11615 -6.177887,-2.245178c0.883514,-4.546783 -1.827362,-7.749176 -3.843414,-4.540192c-1.460815,2.325256 -3.948181,0.700958 -6.913635,-4.51474c-1.806549,-3.177368 -1.806549,-3.959229 0,-3.980865c1.389343,-0.016632 1.565735,-0.520081 0.4617,-1.317963c-0.982483,-0.710114 -2.047882,-3.128845 -2.367554,-5.374939c-0.417175,-2.931091 0.46521,-4.353058 3.126099,-5.037598c2.039032,-0.524536 3.707336,-1.52536 3.707336,-2.22403c0,-2.226868 9.219696,-5.495972 12.559357,-4.453247c1.769409,0.55246 3.667114,0.288147 4.217133,-0.587372c1.197784,-1.906525 7.247162,-1.358093 14.154266,1.283203c2.765808,1.057648 8.54715,1.923004 12.847443,1.923004l7.818695,0l-4.34079,7.468597c-4.587097,7.892456 -5.690857,18.47702 -2.532166,24.283142c1.443634,2.653625 1.080139,4.218323 -1.649506,7.100647c-1.925659,2.033356 -4.401825,3.149445 -5.502625,2.480164c-1.100769,-0.66925 -3.089813,-0.328186 -4.420135,0.757935c-1.864502,1.522247 -3.176849,1.051544 -5.727356,-2.05426zm-249.982819,-9.909637c0.520081,-0.827789 -2.245972,-4.028259 -6.146774,-7.112061c-4.430664,-3.502747 -7.082108,-7.059784 -7.065018,-9.478119c0.022217,-3.143738 0.352753,-3.375824 1.759003,-1.235199c1.360123,2.070435 1.737503,2.11853 1.758987,0.224182c0.022934,-2.022095 0.532501,-2.031464 3.153458,-0.057953c1.71936,1.294647 2.498016,1.63028 1.730331,0.745819c-0.767685,-0.884399 0.438095,-2.644073 2.67952,-3.910309c3.921463,-2.215363 3.873001,-2.263184 -1.283752,-1.267181c-4.092621,0.790466 -4.725815,0.59259 -2.679504,-0.837433c1.473724,-1.029938 1.875656,-1.909821 0.893173,-1.955353c-0.982498,-0.045532 -0.225967,-1.243866 1.681183,-2.662872c2.500214,-1.860352 2.749374,-2.595703 0.893173,-2.635986c-1.942047,-0.042175 -1.783279,-0.646027 0.646423,-2.458496c2.279694,-1.700562 2.562439,-2.6185 0.967636,-3.141449c-2.941498,-0.964539 -12.529999,3.751801 -11.372681,5.593964c0.49054,0.780762 -0.706802,1.830872 -2.660736,2.333527c-4.225494,1.087036 -4.651718,-1.22464 -0.811096,-4.399017c1.507828,-1.246277 3.823715,-3.216766 5.146393,-4.378906c1.322662,-1.16214 2.787933,-1.736115 3.256134,-1.275513c0.468185,0.460602 1.970642,-0.51593 3.338776,-2.170013c2.165482,-2.618195 2.119659,-2.872223 -0.354019,-1.962402c-1.562851,0.574799 -3.974411,0.339569 -5.359039,-0.522736c-1.384659,-0.862274 -1.641739,-1.579926 -0.57135,-1.594727c1.070419,-0.014801 2.977051,-2.201569 4.237,-4.859528c2.148132,-4.531677 1.823029,-6.400452 -0.535873,-4.220367c-4.093735,3.783356 -4.329483,3.811005 -5.181091,0.607361c-0.490723,-1.846008 -0.149963,-4.661163 0.757217,-6.25589c1.76503,-3.102661 0.361526,-7.014313 -2.001312,-5.577728c-0.783279,0.476257 -2.807846,-0.638184 -4.498993,-2.476532c-2.973526,-3.23233 -2.790176,-3.381683 5.566895,-4.53421c13.765839,-1.898438 5.214264,-3.408936 -0.736618,-3.314972c-10.676987,0.16861 -12.065338,-1.427643 -3.572693,-4.107758c5.339188,-1.684937 5.446823,-1.856476 1.339767,-2.13504c-4.125397,-0.279816 -4.193497,-0.41806 -0.893173,-1.813202c1.964981,-0.830658 2.520416,-1.565887 1.234314,-1.633789c-1.286087,-0.067963 -1.841537,-0.914337 -1.234314,-1.880859c0.607208,-0.966522 -0.247635,-1.757324 -1.899643,-1.757324c-2.467407,0 -2.606628,-0.470612 -0.779877,-2.635956c2.963058,-3.512268 6.555344,-3.332703 8.788635,0.439331c1.00145,1.691406 1.845245,2.132202 1.875122,0.979553c0.029877,-1.152649 1.529572,-1.816254 3.332672,-1.47464c1.803101,0.341583 4.415634,-0.087097 5.805618,-0.952667c2.960312,-1.843384 2.235336,-1.989258 -16.001495,-3.219513c-2.020874,-0.136292 -2.044174,-0.648407 -0.132568,-2.914307c1.56189,-1.851349 3.820602,-2.384552 6.917542,-1.632965c3.638031,0.882904 4.14505,0.662354 2.427643,-1.056c-1.706802,-1.707764 -1.515915,-2.661407 0.893173,-4.461761c4.878464,-3.645813 7.525146,-2.797699 7.586624,2.431061c0.05394,4.588287 0.187057,4.66333 2.632813,1.484283c2.295929,-2.984283 2.176895,-3.688873 -1.09465,-6.480164c-2.018875,-1.722504 -4.81134,-2.701233 -6.205521,-2.174927c-1.394165,0.526276 -2.534851,-0.029144 -2.534851,-1.234283c0,-1.606964 2.738541,-1.935944 10.2715,-1.233856c5.649307,0.52655 8.722549,0.380066 6.829391,-0.3255c-4.620575,-1.722076 -0.198013,-3.468079 6.85527,-2.706421c3.760986,0.406158 4.554077,0.035889 3.06366,-1.430267c-2.946808,-2.898956 -2.457336,-5.584808 0.567688,-3.115021c2.113342,1.725403 2.52829,1.447113 2.299377,-1.542145c-0.153595,-2.006104 -1.514984,-3.70993 -3.025238,-3.786224c-1.510284,-0.076324 -0.371063,-0.986877 2.531586,-2.023468c6.378845,-2.278076 13.589447,-8.381714 9.901794,-8.381714c-1.62796,0 -1.291351,-0.843933 0.991608,-2.486176c3.754242,-2.700562 6.568787,-0.610748 4.908783,3.644836c-0.609589,1.562805 0.498535,2.346924 3.291382,2.329071c3.37384,-0.021545 3.678009,-0.365356 1.530884,-1.730408c-2.033325,-1.292664 -1.279419,-1.709991 3.126099,-1.730408c4.537842,-0.021027 5.805634,-0.768555 5.805634,-3.423126c0,-1.86792 1.521027,-3.871124 3.380035,-4.451538c2.222504,-0.693939 3.29306,-2.53949 3.126099,-5.38913c-0.310394,-5.297379 -2.974762,-5.507797 -8.541168,-0.674561c-3.051971,2.649994 -3.353455,3.393555 -1.091064,2.691132c4.828033,-1.499023 3.693726,1.615143 -1.423828,3.908966c-6.394897,2.866394 -8.886322,2.625397 -6.168152,-0.596558c1.841583,-2.182953 1.648926,-2.640625 -1.121033,-2.662903c-2.682434,-0.021576 -2.840393,-0.340973 -0.797577,-1.612793c1.40097,-0.872223 2.82373,-3.368149 3.161652,-5.546448c0.772308,-4.978424 3.784698,-8.629715 7.119659,-8.629715c1.411438,0 2.069427,-0.790787 1.462219,-1.757309c-0.607239,-0.966522 -0.292694,-1.757309 0.698975,-1.757309c0.991638,0 2.445831,1.104568 3.231537,2.45462c1.22287,2.101273 1.760071,2.101273 3.731873,0c1.266846,-1.350052 1.668793,-2.510208 0.893158,-2.57814c-0.775574,-0.067932 0.19754,-0.803131 2.162506,-1.633804c3.284393,-1.388428 3.212341,-1.524979 -0.893158,-1.692261l-4.465851,-0.181992l4.217163,-3.456161c2.319458,-1.900894 3.570007,-3.456161 2.779053,-3.456161c-0.790955,0 1.221863,-1.930588 4.472961,-4.290207c3.251099,-2.359604 7.170013,-6.11586 8.70871,-8.347244c2.740204,-3.973816 2.724518,-3.994461 -0.765289,-1.005753c-2.748383,2.353729 -4.047424,2.574677 -5.682129,0.966522c-3.706665,-3.646408 -2.57428,-7.03273 1.886047,-5.640091c3.559601,1.11142 3.734161,0.929245 1.568939,-1.637314c-1.980469,-2.347549 -2.024231,-3.866547 -0.233856,-8.118622c1.946075,-4.621902 2.647125,-5.001419 6.02301,-3.260513c3.637177,1.875656 3.678528,1.810333 0.86142,-1.360779c-2.636414,-2.967728 -2.664551,-3.597061 -0.257874,-5.77034c2.076691,-1.875366 3.011108,-1.946075 4.041565,-0.305878c0.964905,1.535873 2.788361,0.857452 6.510101,-2.422119l5.169769,-4.555542l-4.465851,0.302109c-2.456238,0.166153 -6.33197,0.179123 -8.612762,0.028809c-3.427032,-0.225861 -3.737122,-0.671661 -1.786346,-2.568268c1.298309,-1.262253 3.945709,-2.886383 5.883179,-3.609177c2.954407,-1.102203 3.09848,-1.578064 0.893158,-2.950058c-2.14386,-1.333786 -1.969696,-1.663666 0.943237,-1.786301c3.572693,-0.150421 3.572693,-0.150421 0,-1.660721c-3.572693,-1.510284 -3.572693,-1.510284 0,-1.660706c2.8078,-0.118225 3.032623,-0.486755 1.050049,-1.721359c-2.132385,-1.327896 -2.063293,-2.022827 0.446594,-4.491898c1.633087,-1.606552 2.993652,-2.271393 3.02356,-1.477478c0.029846,0.793945 0.867096,0.071213 1.860474,-1.606064c1.923096,-3.247025 9.797272,-3.711945 13.715729,-0.80983c1.556885,1.153091 2.23291,2.80072 2.23291,0.836121c0,-2.61084 -2.449371,-3.674438 -11.590729,-5.033051c-3.386932,-0.503372 -3.350586,-0.726227 0.781525,-4.791199c2.724304,-2.680023 4.596313,-3.488312 5.040802,-2.176483c0.388916,1.147766 1.778931,2.086823 3.088898,2.086823c1.309967,0 2.649719,0.764938 2.977234,1.699875c0.327515,0.934937 1.522675,-0.247177 2.655945,-2.626877c1.929504,-4.051682 1.787537,-4.259369 -2.232941,-3.266693c-3.247894,0.801941 -4.293427,0.346542 -4.293427,-1.870117c0,-1.611603 0.641296,-2.540314 1.425079,-2.063766c0.783752,0.476517 2.458862,0.237839 3.722443,-0.530411c1.794586,-1.09108 1.690674,-1.625839 -0.47467,-2.443268c-1.524628,-0.575546 -3.247192,-0.290192 -3.827881,0.634094c-1.510254,2.403931 -6.638397,2.083923 -5.809418,-0.362534c0.807617,-2.383545 5.328583,-3.657318 13.379547,-3.769577c5.747284,-0.080139 9.17157,-3.606018 5.606934,-5.77327c-1.263275,-0.768066 -1.092651,-1.644867 0.509674,-2.61908c1.928314,-1.172394 1.962891,-1.903046 0.173492,-3.663383c-1.789429,-1.760338 -1.430176,-2.638763 1.80127,-4.404213c3.253967,-1.77774 3.430481,-2.217346 0.910431,-2.26754c-1.71936,-0.034248 -3.126129,-0.83699 -3.126129,-1.78389c0,-2.157806 13.045105,-8.813004 17.345703,-8.849197c2.717712,-0.022881 2.795349,-0.282433 0.517761,-1.730408c-1.473724,-0.936935 -1.875671,-1.727722 -0.893188,-1.757324c0.982513,-0.029587 0.632263,-0.772224 -0.77829,-1.650291c-2.125458,-1.32309 -2.16449,-2.070808 -0.227844,-4.366364c1.285217,-1.52346 3.444122,-2.76992 4.797577,-2.76992c1.553864,0 2.460785,-1.981209 2.460785,-5.375679c0,-2.972603 0.763672,-4.911377 1.708344,-4.337006c0.939575,0.571251 1.265656,2.397209 0.72464,4.057663c-0.638916,1.960976 -0.445923,2.293457 0.550659,0.948708c2.087616,-2.816895 8.362976,-2.051895 9.775635,1.191658c0.931488,2.138901 1.411652,1.973183 2.545959,-0.878647c0.76886,-1.933052 2.603546,-5.366318 4.077026,-7.629478c1.473511,-2.263184 2.898163,-6.136101 3.165894,-8.606483c0.267761,-2.470398 1.414703,-5.363464 2.548798,-6.429054c2.430573,-2.283707 0.625488,15.038513 -2.17868,20.9077c-1.652039,3.457764 -1.634277,3.459435 1.098846,0.103455c1.527954,-1.876144 2.778076,-4.446228 2.778076,-5.711281c0,-2.783768 0.866241,-2.848984 5.923035,-0.445824c3.542572,1.683517 3.614014,1.625229 0.775757,-0.63308c-4.63327,-3.686523 -3.608948,-12.887924 1.065216,-9.568466c0.34021,0.241646 1.909363,-0.614487 3.486938,-1.902496c2.986664,-2.438408 10.185181,-1.320602 10.185181,1.581596c0,0.90139 0.832153,1.638901 1.849182,1.638901c1.230591,0 1.18457,-1.221725 -0.137543,-3.651955c-1.092712,-2.008575 -1.558044,-4.75103 -1.034027,-6.09433c0.523987,-1.343323 0.18396,-2.909775 -0.755615,-3.481022c-2.097321,-1.27515 0.170807,-0.83123 1.64563,-0.83123c1.102783,0 13.385956,4.536877 11.641052,7.391308c-1.118164,1.82914 -0.854034,1.847244 1.350128,0.092537c1.507111,-1.199768 3.269135,-1.661064 3.915619,-1.025108c1.640076,1.613419 1.46582,-0.206467 -0.508942,-5.31617c-1.295868,-3.35289 -1.06369,-4.592487 1.006378,-5.373947c1.479919,-0.55867 2.263611,-1.695633 1.741577,-2.526581c-0.522064,-0.830971 0.14386,-2.9814 1.479797,-4.778709c2.15094,-2.893791 2.787354,-2.9753 5.559479,-0.71199c2.841034,2.3195 3.020355,2.214428 1.939331,-1.13623c-0.758972,-2.35247 -0.204315,-4.49778 1.528687,-5.91267c1.495911,-1.22134 2.719849,-4.364349 2.719849,-6.984489c0,-5.73805 4.732483,-6.542141 6.490631,-1.10281c1.038177,3.211899 1.315369,3.291668 2.259247,0.65012c0.75769,-2.120451 1.847198,-2.541981 3.683929,-1.42527c2.257446,1.37252 2.214081,2.01395 -0.322693,4.771481c-2.664063,2.895958 -5.756256,9.238998 -6.690002,13.723278c-0.201233,0.96653 -1.1138,2.643871 -2.027954,3.727432c-0.954926,1.13192 -1.021851,3.6726 -0.157349,5.971649c1.470459,3.910473 1.586365,3.865658 5.094666,-1.970131c1.974487,-3.284389 5.887299,-10.56707 8.69519,-16.183701c2.807892,-5.61665 5.752777,-10.605759 6.54422,-11.086948c2.286407,-1.39011 1.667297,5.434238 -0.704681,7.767681c-1.616547,1.590298 -1.627533,2.10878 -0.044647,2.10878c1.373352,0 1.733246,1.798958 1.041016,5.20385c-1.017487,5.004749 -0.890503,5.126099 3.31958,3.171539c3.124054,-1.450371 4.377625,-3.45274 4.377625,-6.992611c0,-2.854591 1.453461,-6.012669 3.423828,-7.43932c3.198975,-2.316238 3.218536,-2.55732 0.297729,-3.671221c-1.71936,-0.655689 -3.124512,-1.700659 -3.122528,-2.322149c0.005615,-1.76656 11.322876,-2.08847 14.069458,-0.400181c3.232361,1.986912 0.973572,5.420822 -3.565826,5.420822c-2.026855,0 -3.074066,0.793659 -2.420319,1.83429c0.63382,1.008869 0.078369,3.115318 -1.234314,4.681c-2.142609,2.555538 -1.975616,2.63121 1.632538,0.739861c4.460052,-2.337902 4.910004,-1.63205 2.170105,3.404278c-1.017059,1.869499 -1.218018,3.387001 -0.446594,3.3722c3.104462,-0.05957 5.45816,-2.93322 7.534515,-9.199009c2.139954,-6.457859 7.265686,-9.208361 7.265686,-3.898819c0,1.480141 1.406738,3.201729 3.126099,3.82579c1.71936,0.624058 3.716675,1.983128 4.438538,3.020157c0.89032,1.279133 1.321167,1.1968 1.339722,-0.256008c0.015259,-1.193741 1.233398,-1.686199 2.752502,-1.112751c2.242554,0.846569 2.321655,1.517391 0.446533,3.78849c-1.952942,2.365509 -1.793335,2.580589 1.117249,1.505459c2.322937,-0.85804 4.496033,-0.092487 6.878418,2.423153c1.915466,2.022598 3.200867,3.852009 2.856445,4.065331c-0.34436,0.213329 -3.969299,2.591019 -8.055298,5.283737c-7.247803,4.776371 -7.568909,4.824753 -13.15625,1.982361c-8.101868,-4.121529 -11.653687,-0.48386 -3.807312,3.899311c3.102905,1.733349 5.279358,4.099751 4.836609,5.258686c-0.480835,1.25882 0.237183,1.713753 1.783569,1.129967c2.90332,-1.095985 3.580078,2.103233 0.802246,3.79216c-0.982544,0.597343 -1.786377,1.92704 -1.786377,2.954849c0,1.13829 1.100647,0.970184 2.815674,-0.430031c2.333496,-1.905159 3.093567,-1.866783 4.438477,0.224152c2.76593,4.300049 1.874146,6.726006 -3.472168,9.445763c-2.920593,1.485764 -5.669739,4.65802 -6.351074,7.328583c-0.851624,3.338013 -1.756531,4.162674 -3.108459,2.832733c-1.351929,-1.329941 -0.78656,-3.424263 1.942078,-7.193985c5.261108,-7.268448 3.518494,-12.663544 -6.848206,-21.201981l-8.412628,-6.929008l-5.239197,3.42598c-2.881561,1.884315 -8.334808,4.2612 -12.118317,5.28199c-3.783508,1.020775 -6.456238,2.27198 -5.939392,2.780426c0.516876,0.508446 -0.661316,4.598846 -2.618134,9.089798c-2.344208,5.379875 -3.193848,10.074387 -2.490692,13.761627c0.883911,4.635109 0.426544,5.79631 -2.662903,6.760941c-2.051544,0.640541 -4.467987,3.073952 -5.369873,5.407562c-1.97702,5.115395 -2.90448,5.194626 -9.644196,0.823967c-5.178619,-3.358276 -5.290466,-3.357887 -10.134491,0.035309c-6.724274,4.710304 -11.914429,2.118942 -18.364594,-9.169159c-4.455231,-7.796875 -5.565796,-8.695061 -9.5383,-7.714256c-2.472748,0.61055 -5.662018,2.257225 -7.08725,3.659309c-1.425232,1.402069 -4.141632,2.549217 -6.036438,2.549217c-4.018646,0 -4.076385,0.228874 -1.474945,5.845619c1.491486,3.220299 1.402557,5.26828 -0.366028,8.429962c-1.284882,2.296936 -2.120911,5.560127 -1.857849,7.251549c0.263092,1.691422 0.053131,3.07531 -0.466522,3.07531c-1.0513,0 -12.68985,-4.8125 -17.662445,-7.303337c-4.695038,-2.351822 -6.622711,-0.333122 -6.653503,6.96772c-0.038025,9.02079 -2.418671,12.378349 -6.858276,9.672722c-2.853821,-1.739197 -4.015198,-1.447433 -6.994598,1.757309c-1.964935,2.113525 -4.152527,5.819763 -4.861298,8.236084c-0.708801,2.416321 -2.909851,5.656342 -4.891235,7.200089c-3.45105,2.688843 -3.473633,3.000229 -0.53717,7.409012c2.983459,4.479309 2.914856,2.860931 -2.56897,12.289917c-3.098877,5.328232 -6.4216,10.166351 -7.38382,10.751389c-0.96225,0.585007 -1.228851,2.677429 -0.592529,4.649811c1.284973,3.982712 -1.571716,6.592148 -7.263855,6.635162c-3.222717,0.024368 -3.614349,1.348358 -3.997894,13.515793c-0.33493,10.625504 -1.524963,15.800705 -5.605988,24.379974c-5.047913,10.611832 -5.094269,10.96402 -1.807709,13.73233c5.788666,4.87587 3.149872,12.944824 -3.549316,10.853119c-10.092834,-3.151276 -20.556854,9.32048 -19.846222,23.65416c0.071869,1.449768 0.002777,5.008362 -0.153564,7.907928c-0.156342,2.899567 -0.149536,7.248932 0.015137,9.665253c0.164673,2.41629 0.45813,8.889099 0.652191,14.384033c0.275848,7.812103 1.229248,10.796936 4.37207,13.687683c2.210602,2.033295 4.019287,4.392212 4.019287,5.242035c0,3.559998 -2.340393,7.104523 -4.69104,7.104523c-1.89386,0 -2.180084,1.204224 -1.148621,4.832642c2.717773,9.560333 1.230042,20.072479 -3.328888,23.521484c-2.325958,1.759705 -3.52774,3.21701 -2.670593,3.238525c0.857208,0.021484 0.621613,1.149628 -0.523468,2.506958c-1.145111,1.35733 -1.604004,4.34137 -1.019806,6.631226c0.584198,2.289856 0.267853,6.121765 -0.703003,8.515381c-1.105835,2.726318 -1.807526,3.274384 -1.878479,1.467163c-0.062286,-1.586639 -2.122864,-3.380981 -4.579102,-3.987427c-4.522278,-1.116577 -5.073181,-2.617157 -4.735229,-12.897583c0.103302,-3.141205 -0.499298,-5.711273 -1.33902,-5.711273c-3.342499,0 -5.213837,4.764343 -4.349518,11.07373c0.923767,6.743408 -1.865967,12.652374 -5.057373,10.712036c-0.923309,-0.561371 -3.137115,0.633514 -4.919556,2.655304c-1.782471,2.02179 -4.198822,3.675995 -5.369659,3.675995c-1.170868,0 -1.618286,0.812683 -0.994263,1.805969c1.173645,1.868134 -9.677948,13.01297 -11.206482,11.509308c-0.473358,-0.465698 -2.028152,0.301849 -3.455093,1.705597c-2.722153,2.677917 -17.532776,3.653625 -15.895309,1.04718zm-0.516663,-103.362793c-2.10582,-3.562439 -2.614334,-2.422211 -0.890549,1.996918c0.61261,1.570526 1.490158,2.485291 1.950089,2.032837c0.45993,-0.452454 -0.016876,-2.265839 -1.05954,-4.029755zm205.2117,-241.080929c1.473755,-0.936932 1.875671,-1.703491 0.893188,-1.703491c-0.982513,0 -2.992126,0.76656 -4.465881,1.703491c-1.473724,0.936939 -1.875671,1.703503 -0.893158,1.703503c0.982483,0 2.992126,-0.766563 4.465851,-1.703503zm-7.145386,338.897915c0,-2.167572 1.603088,-3.821838 4.364319,-4.503601c6.049896,-1.493744 9.330414,0.762115 5.145172,3.538055c-6.4823,4.299622 -9.509491,4.606964 -9.509491,0.965546zm4.715027,-11.741547c-2.011749,-1.979095 -1.22522,-4.052643 1.537201,-4.052643c1.473724,0 2.679504,0.74411 2.679504,1.653595c0,2.215942 -2.78952,3.803009 -4.216705,2.399048zm6.601257,-27.898956c-0.550507,-1.411285 -0.58728,-4.12204 -0.081726,-6.023865c0.770691,-2.899292 0.389313,-3.178925 -2.360718,-1.731049c-5.092285,2.681 -9.4263,2.163208 -8.200317,-0.979736c0.617737,-1.583649 0.141174,-2.598175 -1.148621,-2.445343c-1.212433,0.143677 -3.88559,-0.279358 -5.940338,-0.940125c-3.031494,-0.974854 -3.640808,-2.419006 -3.231537,-7.659241c0.277405,-3.551849 0.647003,-6.853271 0.821381,-7.336548c0.174316,-0.483246 0.251923,-1.382751 0.172424,-1.99881c-0.079468,-0.616119 0.600464,-3.675507 1.510956,-6.798676c1.233246,-4.230194 0.955383,-7.010345 -1.089447,-10.90033c-1.509705,-2.872009 -2.296997,-6.370087 -1.749573,-7.773529c0.547455,-1.403442 0.0672,-5.965729 -1.067261,-10.138428c-1.876526,-6.901978 -1.712799,-7.956207 1.814148,-11.68042c2.132263,-2.251526 3.675537,-5.328064 3.429474,-6.836792c-0.298798,-1.832336 1.200348,-2.929352 4.515076,-3.303925c2.729309,-0.308441 4.762756,-1.494629 4.518738,-2.635986c-0.802307,-3.752777 4.735992,-13.516785 8.29776,-14.628876c4.503357,-1.406067 6.045197,-3.068146 13.364197,-14.406342c7.986084,-12.371582 10.506836,-14.676529 14.639465,-13.3862c3.116852,0.97316 3.332123,0.382202 2.378784,-6.530304c-1.830383,-13.272095 -2.543579,-15.250793 -5.87149,-16.289856c-10.193146,-3.182602 -16.031586,-16.801834 -13.066254,-30.479431c1.381653,-6.372864 1.183289,-9.199326 -0.927368,-13.2146c-1.501556,-2.856491 -2.212219,-4.960693 -1.612396,-7.311768c0.629944,-2.469147 0.284912,-4.204041 -0.836121,-4.204041c-1.141418,0 -1.752472,-3.367645 -1.520081,-8.377884c0.529022,-11.405487 -5.709229,-20.324936 -21.76178,-31.114914c-13.289276,-8.932602 -19.827911,-16.42749 -12.273865,-14.068886c3.168762,0.989388 3.774231,0.678566 2.924011,-1.50106c-0.699005,-1.791962 0.186493,-3.141846 2.543884,-3.877869c1.988892,-0.62101 3.839905,-0.859177 4.113312,-0.52932c0.273407,0.329895 2.625458,4.229607 5.226746,8.666023c6.217987,10.604645 12.242981,13.449135 18.694458,8.825951c4.702698,-3.370026 4.750946,-3.366386 12.187469,0.920876l7.466034,4.304298l1.139679,-5.104645c0.689087,-3.086365 2.924744,-5.904755 5.65448,-7.128288c3.867126,-1.733345 4.343414,-2.791389 3.320038,-7.375092c-1.542358,-6.90818 5.354004,-24.471664 9.614044,-24.484795c1.605255,-0.004951 6.097839,-1.902084 9.983521,-4.215836l7.064911,-4.206848l7.496643,6.043144c9.386169,7.566254 11.039978,13.084328 6.005859,20.039207c-2.058411,2.843773 -3.21106,6.016502 -2.561401,7.050522c0.649597,1.034019 -0.155762,3.333298 -1.789795,5.109489c-1.959229,2.129761 -2.321289,3.624336 -1.063293,4.389198c1.345459,0.818047 1.350525,2.183662 0.01709,4.634682c-1.08551,1.995308 -1.390503,6.75425 -0.71637,11.176712c0.944763,6.197868 2.126892,8.090088 6.053711,9.690201c2.683838,1.093613 6.552795,4.868469 8.597778,8.38858l3.718079,6.400177l-6.05426,11.826843l-6.054321,9.826843l5.264648,12.559402c7.486694,17.860428 9.207092,24.617706 6.52533,25.630066c-4.393372,1.658493 -4.927734,24.84256 -0.643677,27.92421c1.851624,1.33194 2.509888,3.473618 1.841064,5.989716c-0.710999,2.674652 0.165771,5.022614 2.765076,7.404892c4.994873,4.577789 4.807861,7.896774 -0.642822,11.410172l-4.449097,2.867767l3.641724,5.031219c2.00293,2.767151 5.980591,6.39035 8.839233,8.051544c8.093445,4.703217 9.952026,11.063232 5.637939,19.292389c-3.33728,6.365814 -16.229187,23.560333 -21.868286,29.166748c-1.395081,1.386932 -7.260132,7.763306 -13.03363,14.169708c-8.928162,9.906921 -11.332367,11.617096 -16.084625,11.441345c-3.073059,-0.113647 -8.156616,1.100403 -11.296814,2.697845c-3.140167,1.597443 -7.385315,2.90448 -9.433655,2.90448c-2.04834,0 -5.665894,1.251526 -8.039001,2.781189c-2.373108,1.529663 -6.163147,3.043091 -8.422272,3.36322c-2.259155,0.320129 -6.762207,1.397644 -10.006805,2.394531c-4.740112,1.456329 -6.095886,1.308258 -6.900146,-0.75354zm-7.743591,-2.179016c0,-0.943634 1.272949,-2.196259 2.828796,-2.7836c1.739746,-0.656769 2.556396,-0.264008 2.121277,1.020142c-0.890106,2.626923 -4.950073,4.073273 -4.950073,1.763458zm-33.940552,-2.970428c0,-1.449768 1.180542,-2.635956 2.623444,-2.635956c1.598053,0 2.221558,1.030273 1.595215,2.635956c-0.565521,1.449799 -1.746063,2.635986 -2.623444,2.635986c-0.87735,0 -1.595215,-1.186188 -1.595215,-2.635986zm-69.667511,-231.821846c0,-2.689262 7.335541,-6.343323 11.226654,-5.592316c1.194031,0.230453 2.059296,-0.964874 1.922852,-2.656288c-0.136475,-1.691422 0.410522,-3.07531 1.215515,-3.07531c0.804993,0 1.72049,-1.717339 2.034454,-3.816307c0.707825,-4.73233 5.015594,-6.458832 5.093506,-2.041412c0.053558,3.036629 0.191986,3.046631 2.409546,0.173752c2.456299,-3.182129 4.679016,-2.429878 4.679016,1.583572c0,2.325188 -3.289886,6.065269 -9.79007,11.129669c-3.109039,2.422295 -3.277527,2.359077 -2.078766,-0.780128c1.272278,-3.331734 1.214355,-3.335861 -2.345062,-0.166985c-2.007233,1.787041 -3.649567,2.58004 -3.649567,1.76226c0,-0.817802 -1.004822,-0.260071 -2.23291,1.23938c-3.312378,4.044197 -8.485168,5.409851 -8.485168,2.240112zm8.025818,-12.430054c2.865845,-4.302757 2.845337,-4.370056 -0.753571,-2.475266c-2.726227,1.435318 -3.699524,1.425865 -3.699524,-0.035919c0,-1.091011 1.607697,-2.397263 3.572662,-2.902763c1.964996,-0.505508 3.652832,-1.815361 3.750763,-2.910782c0.097931,-1.095421 0.774139,-0.014709 1.502686,2.401604c0.728516,2.416306 0.655365,5.256836 -0.162567,6.312302c-0.817932,1.055443 -1.126709,2.273613 -0.686157,2.707024c0.440582,0.433403 -0.835022,0.909233 -2.834595,1.057411c-3.478943,0.25782 -3.508667,0.078781 -0.689697,-4.15361zm34.617889,-28.647896c2.614319,-1.376404 3.683594,-1.199493 4.437866,0.734207c0.54657,1.401123 0.211884,3.022881 -0.743744,3.603874c-0.955597,0.581009 -1.347595,1.67688 -0.871155,2.43528c0.476471,0.758415 -1.155975,2.28537 -3.627594,3.393204c-5.464172,2.449181 -1.089661,-9.16925 0.804626,-10.166565zm19.200012,-0.782829c-1.385101,-5.42897 0.262665,-9.881432 3.65686,-9.881432c1.900116,0 2.447571,1.730499 2.04184,6.454102c-0.65033,7.570465 -4.110687,9.651619 -5.6987,3.42733zm-10.476898,-5.488144c0.469543,-2.416306 1.477875,-4.393288 2.240692,-4.393288c2.450653,0 3.342773,4.778381 1.272369,6.815117c-3.203369,3.151314 -4.431488,2.304665 -3.513062,-2.421829zm7.582611,-8.786583c-1.82132,-2.15889 -1.699249,-2.635979 0.674438,-2.635979c1.594025,0 2.910553,-0.988487 2.925598,-2.196648c0.019379,-1.554588 0.493164,-1.472771 1.621063,0.27998c1.697754,2.638264 0.671783,7.188618 -1.620819,7.188618c-0.75708,0 -2.377197,-1.186188 -3.600281,-2.635971zm61.466797,-26.141697c-1.492584,-3.82642 -0.447937,-4.85408 2.878448,-2.831669c2.042847,1.242039 2.141785,2.052021 0.4534,3.712948c-1.688354,1.660912 -2.415192,1.468662 -3.331848,-0.881279z"/>
  </g>
 </g>
</svg>