<?xml version="1.0" encoding="utf-8"?>
<!-- Generator: Adobe Illustrator 19.0.0, SVG Export Plug-In . SVG Version: 6.00 Build 0)  -->
<svg version="1.1" id="main" xmlns="http://www.w3.org/2000/svg" xmlns:xlink="http://www.w3.org/1999/xlink" x="0px" y="0px"
	 width="1500px" height="1480px" viewBox="0 0 1500 1480" style="enable-background:new 0 0 1500 1480;" xml:space="preserve">
<style type="text/css">
	.st0{fill:#40B7E9;}
	.st1{fill:#97C83B;}
	.st2{fill:url(#SVGID_1_);}
	.st3{fill:#EE385B;}
	.st4{fill:#FAA41B;}
	.st5{fill:#EDAA31;}
	.st6{fill:#FFD300;}
	.st7{fill:#FFFFFF;}
</style>
<g>
	<path class="st0" d="M1386.8,1054.6c49.5-95.6,77.5-203.8,77.5-318.4c0-387.9-319.8-702.3-714.2-702.3S35.8,348.3,35.8,736.2
		c0,114.6,27.9,222.8,77.5,318.4C288.4,960.2,509.6,903.9,750,903.9S1211.6,960.2,1386.8,1054.6z"/>
	<path class="st1" d="M750,1438.5c277.9,0,518.7-156.1,636.8-383.9C1211.6,960.2,990.4,903.9,750,903.9s-461.6,56.3-636.8,150.7
		C231.3,1282.4,472.1,1438.5,750,1438.5z"/>
</g>
<g>
	<linearGradient id="SVGID_1_" gradientUnits="userSpaceOnUse" x1="613.4711" y1="1040.2614" x2="1039.5137" y2="497.2071">
		<stop  offset="0" style="stop-color:#D52D52"/>
		<stop  offset="1" style="stop-color:#EE385B"/>
	</linearGradient>
	<path class="st2" d="M750,359.3C750,359.3,750,359.3,750,359.3l0,986.8c7,0,14-2.7,19.1-8c35.7-37,102-114.4,170.9-211.8
		c86.1-121.8,172.4-271.7,172.4-420.1C1112.4,514.6,946.1,355.7,750,359.3z"/>
	<path class="st3" d="M387.6,706.2c0,148.4,86.3,298.3,172.4,420.1c68.8,97.4,135.2,174.8,170.9,211.8c5.2,5.4,12.1,8,19.1,8V359.3
		C553.9,355.7,387.6,514.6,387.6,706.2z"/>
</g>
<path class="st4" d="M899.6,315c-54.2-80-106.4-143.6-134.5-174c-8.1-8.8-22-8.8-30.1,0c-28.1,30.4-80.3,94-134.5,174
	c-67.8,100.1-135.7,223.1-135.7,345.1C464.7,817.4,595.6,948,750,945c154.4,3,285.3-127.6,285.3-284.9
	C1035.3,538.2,967.3,415.1,899.6,315z"/>
<path class="st5" d="M750,359.3c81.3-1.5,157.5,24.9,218.9,70.1c-21.1-40.3-45.2-78.8-69.3-114.3c-54.2-80-106.4-143.6-134.5-174
	c-8.1-8.8-22-8.8-30.1,0c-28.1,30.4-80.3,94-134.5,174c-24.1,35.6-48.2,74-69.3,114.3C592.5,384.3,668.7,357.8,750,359.3z"/>
<path class="st6" d="M868,483.3c-41.4-56.9-84.8-104.8-106-126.9c-6.6-6.9-17.6-6.9-24.1,0c-21.1,22.1-64.5,70-106,126.9
	c-49.4,67.8-97.1,158.9-95,252.9C539.6,851.5,632.7,945,750,945s210.4-93.5,213-208.8C965.2,642.3,917.5,551.2,868,483.3z"/>
<ellipse class="st7" cx="750" cy="736.2" rx="172.1" ry="169.2"/>
</svg>
