<?xml version="1.0" encoding="UTF-8" standalone="no"?>
<svg xmlns:rdf="http://www.w3.org/1999/02/22-rdf-syntax-ns#" xmlns="http://www.w3.org/2000/svg" height="115.83mm" width="132.71mm" version="1.1" xmlns:cc="http://creativecommons.org/ns#" xmlns:dc="http://purl.org/dc/elements/1.1/">
<title>antarctica</title>
<g transform="translate(-120.46 -50.94)">
<title>Layer 1</title>
<path stroke-linejoin="round" d="m183.3 240.54c-4.053-8.108-4.053-8.108-4.053-16.215-2.027 0-2.407 0.38102-3.579 0.062-1.172-0.31601-1.615 7.476-5.416 5.955-0.63299-0.76001 2.724-6.396-0.918-8.739-1.172-0.763 0.28501-5.386-0.222-7.413 0 0-4.623 2.406-8.107-6.08-1.711-2.218-4.054 2.026-4.054 2.026s1.013 2.597-0.823 3.231c-2.597-1.901-4.498-0.90399-7.791-3.516-3.294-2.613 0.69701-5.605-5.574-7.822 4.054-10.134 4.054-8.108 14.188-12.161-6.081-4.054-6.081-4.054-10.134-10.135-6.081-2.027-8.108-4.053-14.189-8.107-8.107-10.135-12.161-30.403-12.161-44.591 5.131-4.751 12.161 16.215 22.296 22.295l14.188 6.081c8.107 4.054 10.134 8.107 16.215 12.161l18.242 6.081c8.107 6.08 12.161 14.188 18.242 16.215 6.587 0 7.856-3.794 9.968-4.03 11.916-0.61101 17.997-2.146 20.372-5.725 2.406-2.85 8.17 1.647 24.385-4.433 0 0-2.026-8.108-2.026-8.108s4.307-3.547 10.134-2.027c-0.15799-3.705-0.53901-13.586 5.201-18.044-3.486-3.657-1.147-6.278-1.147-6.278s3.231-3.104 3.61-4.751c-1.709-8.931 1.483-9.069 2.199-11.697 0.715-2.627-2.757-1.727-1.778-5.349 0.97702-3.623 6.849-4.483 7.635-7.467 0.789-2.984-1.674-4.481-1.532-5.193 1.267-2.85 0.19101-9.5645 0-12.161 10.895-2.9137 14.442-11.781 18.242-8.1075 2.027-12.161 4.054-16.215 16.215-16.215 1.711-3.7369-4.435-6.9041-2.027-8.1075 4.054-0.5067 7.157-0.25329 11.91 5.8908 1.5 1.947 1.772-2.8504 3.292-3.3572 1.52-0.5067 5.158-0.51459 5.699-2.9136 0.57199-2.4704 1.395-5.7006 3.422-9.7543 1.71-3.2937 3.04 1.2668 4.56 7.7274 8.552 0.3166 27.87 2.217 35.977 4.4338 6.081 1.5836 10.135-1.5836 15.962-2.217 4.307 4.3071 8.361 1.0769 10.641 10.261 3.219 4.9557 8.487 0.4435 9.628 1.9002 6.778 18.685 30.087 6.0806 31.86 6.3974 2.976 0 6.612 8.3546 8.955 8.147 3.808-0.64131 2.73-3.2381 6.056-2.193-0.888 7.0306 6.525 15.138 6.525 20.395 0 0 1.804 0.88701 3.476-0.67299 1.67-1.559 3.206-5.5655 4.694-5.4707 3.547 0.50679 4.984 0.9622 9.072 1.6767 10.99 3.755 16.588 4.602 20.857 6.526 1.986 3.634 3.91 5.495 7.935 4.816 3.326 2.234 0.90003 5.16 2.864 5.35 4.054-2.027 5.384-4.244 9.437-2.217 4.054 2.027 8.108 6.081 10.135 10.135 0 2.026-2.027 10.134 0 22.295 1.013 4.054 1.504 7.268 5.859 14.22-1.157 7.142 5.479 19.16 5.479 22.201 0 4.053-3.231 6.144-5.258 10.197 8.108 6.081 0 16.215-4.053 22.296 30.403 6.081 16.215 18.242 40.537 12.161-6.081 14.188-3.928 13.049 2.153 27.237-12.162 8.108-0.25202 10.577-8.359 20.711-0.50702 0.634 4.812 8.805 12.287 8.805-2.027 16.215-8.108 10.134-6.081 34.457-15.962-0.31601-9.502 18.179-20.269 16.215 0.633 11.591 6.144 12.605 4.054 24.322-8.107 2.027-8.107 2.027-12.161 8.108l-6.081-2.027c-2.027 10.134-6.08 12.161 0 22.296 0 0-7.8539 0.25299-10.134 0-0.19098 3.484 3.484 4.434 4.054 8.107-0.31701 1.457-11.529 7.854-20.269 8.108-2.28 5.004 6.08 10.325 5.574 12.858-9.502 1.836-13.682 13.491-13.682 13.491s4.877 1.964 4.054 4.054c-2.596-1.901-4.054-2.027-8.107-2.027-2.027 0.50702-6.967-0.12399-11.704 7.87-5.199 1.715-7.653 1.095-11.597 6.31-1.746-4.968-4.257 0.047-7.328 1.974-3.068 1.93-7.201 6.727-7.756 6.523 0.12699-1.395 1.901-6.462 1.901-6.462l-10.135 2.027s-0.45199 0.044-1.248 0.125c-0.797 0.079-0.58399-5.916-2.505-5.699-1.92 0.21903-7.415 7.54-9.288 7.769-1.87 0.22901-2.462-2.329-4.074-2.106-1.611 0.22299-4.753 7.722-5.894 7.921-1.141 0.19904-5.667-4.558-9.546-3.894-19.953 7.032-23.121-13.87-26.224-2.089-4.18-2.218-3.456-0.931-7.704 0.18201-2.71 0.69901-2.957-3.583-5.367-3.517-4.822 0.13599-4.569 4.697-7.198 3.335-2.152-9.502-15.139-7.792-16.405-11.845-1.03-4.228 5.626-4.208 7.779-7.072 1.646-4.133-1.719-5.702 4.96-9.689 8.705-5.888 3.701-8.109 5.227-12.534 2.73-6.389 2.746-7.949 0.46601-13.586 0 0-6.778-18.242-8.108-18.242-4.053-1.139-4.053 6.713-10.008 8.868-12.161 4.053-33.632-10.262-37.37-10.262-3.419 0.064-19.259 3.751-18.661-4.147-2.368 7.679-11.077 1.804-11.614 1.804-8.108 0-5.005 6.271-10.453 6.017-2.471-0.823-27.426-2.28-27.426-2.28v4.054l-16.215-8.108s-14.188-4.053-14.188-4.053c-12.161-4.054-6.08-14.189-26.349-8.108v-12.161h-10.134c4.053-24.323 0-12.161-2.027-34.457l-8.108 2.027c-8.107-10.958 11.274-8.868-6.08-16.215 0 0 0.31601-12.099-4.054-8.108-0.88699 0.50702 2.027 6.081 2.027 6.081-16.215-2.027-20.269-6.081-20.269-22.296 0 0 13.365 1.901 12.161 0-1.9-3.04-4.37-22.802-3.927-24.132-0.19001-2.661 12.415-9.374 9.976-15.773 1.552-0.57004 6.112-0.63202 6.112-0.63202" stroke-linecap="round" stroke-width="7.1" fill="#8cba4d"/>
<g stroke-linejoin="round" stroke="#fff" fill="none">
<path d="m595.51 297.57c-0.59204 1.332-0.487 2.662 0.125 3.612 1.099-1.648 0.17096-2.408-0.125-3.612z" stroke-linecap="round" stroke-width="2.0269pt"/>
<g stroke-width="2.5336">
<path d="m119.51 148.15s-3.104-0.38001-2.407 2.344c1.014-2.091 2.344-2.217 2.407-2.344z"/>
<path d="m120.21 141.82c-1.71 0.064-3.801-0.25301-3.104 2.47 1.014-2.09 3.041-2.343 3.104-2.47z"/>
<path d="m131.89 178.11s2.661-0.19 1.964 2.534c-1.014-2.091-1.9-2.407-1.964-2.534z"/>
</g>
</g>
</g>
</svg>
