<?xml version="1.0"?><svg width="120.22709" height="94.456292" xmlns="http://www.w3.org/2000/svg" xmlns:xlink="http://www.w3.org/1999/xlink">
 <title>Oceania</title>
 <metadata id="metadata5227">image/svg+xml</metadata>
 <defs>
  <radialGradient r="37.829708" fy="66.073204" fx="121.10561" cy="66.073204" cx="121.10561" spreadMethod="reflect" gradientTransform="matrix(0.710244,2.064244e-6,2.666103e-8,0.701128,38.51969,16.24581)" gradientUnits="userSpaceOnUse" id="radialGradient5297" xlink:href="#linearGradient5025"/>
  <linearGradient id="linearGradient5025">
   <stop stop-color="aqua" offset="0" id="stop5027"/>
   <stop stop-color="#07f" offset="1" id="stop5029"/>
  </linearGradient>
  <radialGradient r="37.829708" fy="76.821388" fx="120.078" cy="76.821388" cx="120.078" spreadMethod="pad" gradientTransform="matrix(0.913833,-0.15206,0.158961,0.955278,2.591464,-0.286686)" gradientUnits="userSpaceOnUse" id="radialGradient5299" xlink:href="#linearGradient5015"/>
  <linearGradient id="linearGradient5015">
   <stop stop-color="aqua" stop-opacity="0.258824" id="stop5017" offset="0"/>
   <stop stop-color="#00efff" stop-opacity="0.466667" offset="0.527344" id="stop5019"/>
   <stop stop-color="#00d2ff" stop-opacity="0.643137" offset="0.625" id="stop5021"/>
   <stop stop-color="#00458a" id="stop5023" offset="1"/>
  </linearGradient>
  <radialGradient r="37.829708" fy="43.835297" fx="112.2124" cy="43.835297" cx="112.2124" gradientTransform="matrix(1.304427,1.115525,-0.917462,0.448415,3.406845,-100.2669)" gradientUnits="userSpaceOnUse" id="radialGradient5301" xlink:href="#linearGradient2797"/>
  <linearGradient id="linearGradient2797">
   <stop stop-color="white" id="stop2799" offset="0"/>
   <stop stop-color="white" stop-opacity="0" id="stop2801" offset="1"/>
  </linearGradient>
  <radialGradient xlink:href="#linearGradient2797" id="radialGradient3374" gradientUnits="userSpaceOnUse" gradientTransform="matrix(1.304427,1.115525,-0.917462,0.448415,3.406845,-100.2669)" cx="112.2124" cy="43.835297" fx="112.2124" fy="43.835297" r="37.829708"/>
  <radialGradient r="37.829708" fy="66.073204" fx="121.10561" cy="66.073204" cx="121.10561" spreadMethod="reflect" gradientTransform="matrix(0.710244,2.064244e-6,2.666103e-8,0.701128,38.51969,16.24581)" gradientUnits="userSpaceOnUse" id="radialGradient4843" xlink:href="#linearGradient5025"/>
  <radialGradient r="37.829708" fy="76.821388" fx="120.078" cy="76.821388" cx="120.078" spreadMethod="pad" gradientTransform="matrix(0.913833,-0.15206,0.158961,0.955278,2.591464,-0.286686)" gradientUnits="userSpaceOnUse" id="radialGradient4845" xlink:href="#linearGradient5015"/>
  <radialGradient r="37.829708" fy="43.835297" fx="112.2124" cy="43.835297" cx="112.2124" gradientTransform="matrix(1.304427,1.115525,-0.917462,0.448415,3.406845,-100.2669)" gradientUnits="userSpaceOnUse" id="radialGradient4847" xlink:href="#linearGradient2797"/>
  <radialGradient r="37.829708" fy="66.073204" fx="121.10561" cy="66.073204" cx="121.10561" spreadMethod="reflect" gradientTransform="matrix(0.710244,2.064244e-6,2.666103e-8,0.701128,38.51969,16.24581)" gradientUnits="userSpaceOnUse" id="radialGradient4915" xlink:href="#linearGradient5025"/>
  <radialGradient r="37.829708" fy="76.821388" fx="120.078" cy="76.821388" cx="120.078" spreadMethod="pad" gradientTransform="matrix(0.913833,-0.15206,0.158961,0.955278,2.591464,-0.286686)" gradientUnits="userSpaceOnUse" id="radialGradient4917" xlink:href="#linearGradient5015"/>
  <radialGradient r="37.829708" fy="43.835297" fx="112.2124" cy="43.835297" cx="112.2124" gradientTransform="matrix(1.304427,1.115525,-0.917462,0.448415,3.406845,-100.2669)" gradientUnits="userSpaceOnUse" id="radialGradient4919" xlink:href="#linearGradient2797"/>
  <radialGradient r="37.829708" fy="66.073204" fx="121.10561" cy="66.073204" cx="121.10561" spreadMethod="reflect" gradientTransform="matrix(0.710244,2.064244e-6,2.666103e-8,0.701128,38.51969,16.24581)" gradientUnits="userSpaceOnUse" id="radialGradient5045" xlink:href="#linearGradient5025"/>
  <radialGradient r="37.829708" fy="76.821388" fx="120.078" cy="76.821388" cx="120.078" spreadMethod="pad" gradientTransform="matrix(0.913833,-0.15206,0.158961,0.955278,2.591464,-0.286686)" gradientUnits="userSpaceOnUse" id="radialGradient5047" xlink:href="#linearGradient5015"/>
  <radialGradient r="37.829708" fy="43.835297" fx="112.2124" cy="43.835297" cx="112.2124" gradientTransform="matrix(1.304427,1.115525,-0.917462,0.448415,3.406845,-100.2669)" gradientUnits="userSpaceOnUse" id="radialGradient5049" xlink:href="#linearGradient2797"/>
  <radialGradient r="37.829708" fy="66.073204" fx="121.10561" cy="66.073204" cx="121.10561" spreadMethod="reflect" gradientTransform="matrix(0.710244,2.064244e-6,2.666103e-8,0.701128,38.51969,16.24581)" gradientUnits="userSpaceOnUse" id="radialGradient5117" xlink:href="#linearGradient5025"/>
  <radialGradient r="37.829708" fy="76.821388" fx="120.078" cy="76.821388" cx="120.078" spreadMethod="pad" gradientTransform="matrix(0.913833,-0.15206,0.158961,0.955278,2.591464,-0.286686)" gradientUnits="userSpaceOnUse" id="radialGradient5119" xlink:href="#linearGradient5015"/>
  <radialGradient r="37.829708" fy="43.835297" fx="112.2124" cy="43.835297" cx="112.2124" gradientTransform="matrix(1.304427,1.115525,-0.917462,0.448415,3.406845,-100.2669)" gradientUnits="userSpaceOnUse" id="radialGradient5121" xlink:href="#linearGradient2797"/>
  <radialGradient r="37.829708" fy="66.073204" fx="121.10561" cy="66.073204" cx="121.10561" spreadMethod="reflect" gradientTransform="matrix(0.710244,2.064244e-6,2.666103e-8,0.701128,38.51969,16.24581)" gradientUnits="userSpaceOnUse" id="radialGradient5189" xlink:href="#linearGradient5025"/>
  <radialGradient r="37.829708" fy="76.821388" fx="120.078" cy="76.821388" cx="120.078" spreadMethod="pad" gradientTransform="matrix(0.913833,-0.15206,0.158961,0.955278,2.591464,-0.286686)" gradientUnits="userSpaceOnUse" id="radialGradient5191" xlink:href="#linearGradient5015"/>
  <radialGradient r="37.829708" fy="43.835297" fx="112.2124" cy="43.835297" cx="112.2124" gradientTransform="matrix(1.304427,1.115525,-0.917462,0.448415,3.406845,-100.2669)" gradientUnits="userSpaceOnUse" id="radialGradient5193" xlink:href="#linearGradient2797"/>
  <radialGradient r="37.829708" fy="66.073204" fx="121.10561" cy="66.073204" cx="121.10561" spreadMethod="reflect" gradientTransform="matrix(0.710244,2.064244e-6,2.666103e-8,0.701128,38.51969,16.24581)" gradientUnits="userSpaceOnUse" id="radialGradient5261" xlink:href="#linearGradient5025"/>
  <radialGradient r="37.829708" fy="76.821388" fx="120.078" cy="76.821388" cx="120.078" spreadMethod="pad" gradientTransform="matrix(0.913833,-0.15206,0.158961,0.955278,2.591464,-0.286686)" gradientUnits="userSpaceOnUse" id="radialGradient5263" xlink:href="#linearGradient5015"/>
  <radialGradient r="37.829708" fy="43.835297" fx="112.2124" cy="43.835297" cx="112.2124" gradientTransform="matrix(1.304427,1.115525,-0.917462,0.448415,3.406845,-100.2669)" gradientUnits="userSpaceOnUse" id="radialGradient5265" xlink:href="#linearGradient2797"/>
 </defs>
 <g>
  <title>Layer 1</title>
  <path fill="#8cba4d" d="m91.956993,37.389851c0.297997,-0.114002 0.379997,-0.604 0.133995,-0.806999c-0.201996,-0.170002 -0.507996,-0.141003 -0.671997,0.065998c-0.223,0.278 0.206001,0.868 0.538002,0.741001" id="path4194"/>
  <path fill="#8cba4d" d="m96.466988,46.006851c0.204002,0.055 0.385002,0.077999 0.540001,-0.067001c0.120003,-0.113998 0.179001,-0.243999 0.132004,-0.403c-0.046005,-0.161999 -0.170006,-0.234001 -0.334999,-0.27c-0.229004,-0.049999 -0.391006,0.084999 -0.540001,0.27c-0.071999,0.091 -0.151001,0.153 -0.133003,0.269001c0.024002,0.149998 0.190002,0.16 0.335999,0.201" id="path4196"/>
  <path fill="#8cba4d" d="m91.687988,41.428848c0.081001,0.229 0.022003,0.393002 0.136002,0.605003c0.123001,0.229 0.286003,0.286999 0.471001,0.472c0.237999,0.234997 0.409996,0.334 0.606003,0.605999c0.120995,0.172001 0.130997,0.308998 0.268997,0.471001c0.222,0.261997 0.524002,0.204998 0.739998,0.472c0.147003,0.182999 0.159004,0.330997 0.269005,0.537998c0.102997,0.186001 0.092995,0.355 0.269997,0.472c0.243004,0.158001 0.450996,-0.067001 0.740997,-0.067001c0.289001,0 0.514,0.248001 0.741005,0.067001c0.137001,-0.110001 0.175995,-0.229 0.200996,-0.403999c0.031998,-0.214001 -0.042,-0.343002 -0.133995,-0.539001c-0.135002,-0.285 -0.295006,-0.404999 -0.540001,-0.605999c-0.191002,-0.154999 -0.301003,-0.259998 -0.538002,-0.335999c-0.299004,-0.097 -0.574997,0.213997 -0.806999,0c-0.233002,-0.213001 0.005997,-0.5 -0.068001,-0.807003c-0.120003,-0.490997 -0.147003,-0.938 -0.606003,-1.146c-0.239998,-0.107998 -0.431,0.041 -0.672997,-0.066998c-0.270004,-0.121002 -0.389,-0.281002 -0.540001,-0.539001c-0.162003,-0.278999 0.022003,-0.57 -0.198997,-0.807999c-0.194,-0.205002 -0.407005,-0.362 -0.676003,-0.269001c-0.174004,0.062 -0.263,0.166 -0.334,0.335999c-0.117004,0.277 0.087997,0.463001 0.199997,0.740002c0.135002,0.338001 0.348,0.465 0.471001,0.808998" id="path4198"/>
  <path fill="#8cba4d" d="m0.67099,68.826851c0.157,0.212997 -0.082,0.456001 0.067,0.674995c0.187,0.274002 0.482,0.206001 0.809,0.269005c0.489,0.097 0.782,0.029999 1.28,0c0.446,-0.027 0.698,-0.069 1.143,-0.135002c0.449,-0.066002 0.749,0.021004 1.145,-0.201996c0.241,-0.136002 0.301,-0.325005 0.538,-0.471001c0.24,-0.148003 0.404,-0.181999 0.674,-0.270004c0.309,-0.101997 0.525,-0.040001 0.808,-0.201996c0.178,-0.102005 0.226,-0.232002 0.404,-0.337006c0.216,-0.125 0.358,-0.164993 0.604,-0.201996c0.208,-0.029999 0.33,0.019997 0.539,0c0.407001,-0.035004 0.606,-0.221001 1.009001,-0.267998c0.473,-0.056 0.738999,0.052994 1.212999,0.065994c0.524,0.015999 0.821,0 1.347,0c0.288,0 0.453,0 0.74,0c0.499001,0 0.822001,0.201004 1.279,0c0.274,-0.120995 0.373,-0.282997 0.606,-0.471001c0.377,-0.305 0.58,-0.487999 0.942,-0.808998c0.265,-0.234001 0.357999,-0.443001 0.672999,-0.604996c0.334,-0.174004 0.628,0.001999 0.941999,-0.203003c0.188002,-0.120003 0.217001,-0.282997 0.404001,-0.402c0.253,-0.159996 0.463999,-0.084 0.74,-0.203003c0.313999,-0.134995 0.421,-0.350998 0.74,-0.469994c0.323,-0.123001 0.531,-0.120003 0.875,-0.136002c0.367001,-0.015999 0.593,-0.044998 0.941999,0.067001c0.224001,0.070999 0.312,0.211998 0.538,0.268997c0.333,0.084 0.538,-0.010002 0.877001,-0.066002c0.514,-0.087997 0.805,-0.183998 1.278,-0.403999c0.273001,-0.126999 0.426001,-0.254997 0.650999,-0.386997c0.050001,-0.027 0.101002,-0.057003 0.156,-0.084c0.358,-0.18 0.557001,-0.299004 0.942001,-0.404003c0.334,-0.091999 0.529999,-0.118999 0.875,-0.134998c0.368999,-0.017002 0.573999,0.063999 0.941999,0.068001c0.421999,0.002998 0.662001,-0.004002 1.077,-0.068001c0.348,-0.053001 0.541,-0.303001 0.875,-0.202c0.321001,0.097 0.453001,0.309998 0.607,0.605c0.039,0.077999 0.044001,0.150002 0.055,0.220001c0.011999,0.063999 0.027,0.124996 0.077999,0.186001c0.176001,0.202995 0.408001,0.106995 0.674,0.134995c0.261002,0.024002 0.413,-0.042999 0.675001,0c0.188,0.029007 0.282999,0.090004 0.469999,0.135002c0.436998,0.103004 0.851,-0.208 1.146002,0.134003c0.16,0.188995 0.070999,0.393997 0.201,0.605995c0.134998,0.223 0.455997,0.211006 0.470997,0.471001c0.013,0.211006 -0.239998,0.262001 -0.268997,0.472c-0.033001,0.246002 0.132999,0.366005 0.201,0.605003c0.060997,0.208 0.107998,0.322998 0.136997,0.538002c0.024002,0.209 -0.038998,0.332001 0,0.538994c0.027,0.164001 0.102001,0.240005 0.134003,0.403c0.042999,0.233002 0.031998,0.373001 0,0.606003c-0.037003,0.271004 -0.234001,0.400002 -0.203003,0.673004c0.027,0.232994 0.041,0.484993 0.271,0.537994c0.254002,0.062004 0.280003,-0.292999 0.470001,-0.470001c0.206001,-0.191994 0.309002,-0.312996 0.539001,-0.472c0.174,-0.120995 0.349998,-0.095993 0.471001,-0.269997c0.136997,-0.195 -0.065002,-0.410004 0.068996,-0.606003c0.104,-0.154999 0.236,-0.176994 0.402,-0.268997c0.247002,-0.137001 0.413002,-0.157997 0.673,-0.269997c0.237999,-0.102005 0.375999,-0.154007 0.607002,-0.270004c0.241997,-0.118996 0.437,-0.125999 0.605999,-0.336998c0.138,-0.175003 0.058998,-0.362 0.201,-0.538002c0.182999,-0.226997 0.387001,-0.276001 0.674,-0.336998c0.229,-0.048004 0.478001,-0.198997 0.604,0c0.141998,0.222 -0.348,0.281998 -0.403,0.539001c-0.028,0.127998 0.016998,0.205994 0,0.335999c-0.052002,0.362 -0.178001,0.596001 -0.473999,0.808998c-0.16,0.118004 -0.295002,0.104004 -0.469002,0.202003c-0.199001,0.108994 -0.345001,0.147995 -0.472,0.335999c-0.120998,0.181 -0.025002,0.353996 -0.133999,0.539001c-0.096001,0.159996 -0.211002,0.198997 -0.338001,0.335999c-0.227001,0.247002 -0.243,0.513 -0.536999,0.673996c-0.213001,0.115005 -0.458,-0.056999 -0.607002,0.135002c-0.112999,0.147003 -0.168999,0.316002 -0.066998,0.471001c0.118,0.176003 0.327,0.063004 0.539997,0.067001c0.265003,0.006996 0.434002,0.046997 0.672001,-0.067001c0.234001,-0.111 0.324001,-0.257004 0.472,-0.471001c0.146,-0.212997 0.098,-0.412003 0.269001,-0.606003c0.164001,-0.186996 0.306999,-0.419998 0.537998,-0.336998c0.179001,0.064003 0.227001,0.221001 0.271,0.404999c0.072002,0.298004 -0.133999,0.465004 -0.271,0.740005c-0.111,0.221001 -0.183998,0.342995 -0.334999,0.537994c-0.059998,0.076004 -0.146,0.129005 -0.234001,0.177002c-0.185997,0.100998 -0.372997,0.173004 -0.306,0.362c0.109001,0.297005 0.589001,-0.294998 0.810001,-0.068001c0.132999,0.139 0.095001,0.285004 0.133999,0.473c0.077,0.359001 0.163002,0.586006 0.065002,0.942001c-0.068001,0.260002 -0.179001,0.384003 -0.335003,0.604004c-0.139,0.198997 -0.332996,0.239998 -0.403999,0.471001c-0.067997,0.228996 0.002003,0.378998 0.067001,0.606995c0.126999,0.432999 0.518002,0.519005 0.672001,0.941002c0.104,0.276001 -0.013,0.489998 0.138,0.740997c0.150997,0.257004 0.343998,0.326004 0.604,0.472c0.268997,0.148003 0.434998,0.237999 0.739998,0.268005c0.319,0.032997 0.498001,-0.208 0.807999,-0.133003c0.278004,0.064003 0.377003,0.236 0.607002,0.403999c0.271,0.195999 0.364998,0.402 0.674,0.538002c0.292,0.127998 0.5,0.223999 0.806,0.134003c0.305,-0.088005 0.361,-0.339005 0.605999,-0.538002c0.205002,-0.165001 0.296001,-0.302002 0.540001,-0.404999c0.313999,-0.132004 0.563999,0.082001 0.874001,-0.066002c0.217999,-0.105003 0.272999,-0.263 0.472,-0.403c0.267998,-0.191002 0.439999,-0.540001 0.741001,-0.403c0.313,0.140999 0.086998,0.531998 0.133999,0.873001c0.028,0.210999 -0.02,0.346001 0.067001,0.539001c0.103996,0.237999 0.25,0.337997 0.469997,0.473c0.257999,0.153999 0.445999,0.237999 0.741001,0.200996c0.391998,-0.047997 0.473,-0.400002 0.807999,-0.605003c0.301003,-0.183998 0.484001,-0.265999 0.810001,-0.403999c0.280998,-0.119995 0.514,-0.062996 0.738998,-0.269997c0.218002,-0.195999 0.129002,-0.465004 0.336002,-0.673004c0.292999,-0.292999 0.604,-0.253998 1.011997,-0.336998c0.488003,-0.098 0.779003,-0.104996 1.277,-0.066002c0.428001,0.032005 0.651001,0.228004 1.078003,0.201004c0.322998,-0.018997 0.538998,-0.017998 0.807999,-0.201004c0.264,-0.182999 0.300999,-0.403999 0.471001,-0.673996c0.41,-0.642998 0.342999,-1.202003 0.876999,-1.75c0.313999,-0.323997 0.637001,-0.338997 0.943001,-0.674004c0.267998,-0.295998 0.271999,-0.571999 0.536999,-0.875c0.292999,-0.337997 0.583,-0.405998 0.896999,-0.697998c0.014,-0.014 0.030003,-0.027 0.042999,-0.042c0.293003,-0.287003 0.413002,-0.491997 0.674004,-0.806999c0.368999,-0.445999 0.579998,-0.695 0.941998,-1.145996c0.399002,-0.495003 0.595001,-0.798004 1.011002,-1.278c0.353001,-0.408005 0.519001,-0.678001 0.944,-1.011002c0.312,-0.247002 0.552998,-0.298004 0.874001,-0.539001c0.309998,-0.233002 0.445,-0.417 0.740997,-0.673004c0.309002,-0.269997 0.495003,-0.405998 0.807003,-0.673996c0.211998,-0.181 0.338997,-0.275002 0.539001,-0.471001c0.139999,-0.139 0.248993,-0.264 0.347,-0.387001c0.169998,-0.215 0.309998,-0.425999 0.528,-0.689999c0.389999,-0.476002 0.613998,-0.741001 1.008995,-1.212002c0.287003,-0.341999 0.497002,-0.5 0.741005,-0.873997c0.267998,-0.414001 0.345993,-0.690002 0.538994,-1.146c0.173004,-0.413002 0.139,-0.714001 0.403,-1.077003c0.207001,-0.285999 0.459999,-0.322998 0.673004,-0.605c0.292,-0.383999 0.337997,-0.681 0.471001,-1.145c0.125,-0.435997 0.185997,-0.690998 0.202995,-1.143997c0.016006,-0.477001 -0.200996,-0.742001 -0.134995,-1.212002c0.054001,-0.387001 0.230995,-0.565998 0.335999,-0.943001c0.105995,-0.386997 0.161995,-0.607998 0.201996,-1.010998c0.056999,-0.574001 -0.029999,-0.903 -0.065994,-1.48c-0.040001,-0.592003 0.083,-0.969002 -0.122002,-1.514999c-0.003998,-0.011002 -0.009003,-0.021 -0.014,-0.033001c-0.100998,-0.250999 -0.192001,-0.376999 -0.335999,-0.605999c-0.231003,-0.363003 -0.397003,-0.545002 -0.675003,-0.875c-0.346001,-0.412003 -0.796997,-0.490002 -0.940002,-1.009003c-0.123001,-0.432999 0.119003,-0.695 0.134003,-1.146c0.015999,-0.473 0.289001,-0.899998 -0.068001,-1.210999c-0.205002,-0.181999 -0.408997,-0.126999 -0.671997,-0.201c-0.287003,-0.084 -0.504005,-0.021 -0.740005,-0.202999c-0.262993,-0.199001 -0.296997,-0.43 -0.403999,-0.740002c-0.140999,-0.398998 -0.055,-0.661999 -0.134995,-1.077999c-0.063004,-0.317001 -0.109001,-0.496002 -0.200005,-0.806999c-0.112999,-0.375 -0.284996,-0.556 -0.337997,-0.943001c-0.036003,-0.260002 0.141998,-0.452999 0,-0.672001c-0.143997,-0.216999 -0.384003,-0.139 -0.606003,-0.271c-0.256996,-0.151001 -0.414001,-0.242001 -0.603996,-0.472c-0.176003,-0.207001 -0.126999,-0.435001 -0.339001,-0.605c-0.213001,-0.172001 -0.435001,-0.064999 -0.672001,-0.201c-0.292999,-0.164001 -0.381001,-0.361 -0.605,-0.605c-0.191002,-0.205002 -0.333,-0.297001 -0.473,-0.538002c-0.325001,-0.570999 -0.123001,-1.028999 -0.067001,-1.683998c0.006001,-0.054001 0.011002,-0.103001 0.021,-0.153c0.091999,-0.467999 0.388,-0.771 0.247002,-1.262001c-0.062,-0.224998 -0.193001,-0.313999 -0.269001,-0.536999c-0.144001,-0.425999 -0.042999,-0.699001 -0.068001,-1.146c-0.033001,-0.683002 -0.02,-1.068001 -0.064999,-1.75c-0.038002,-0.578001 0.210999,-1.016001 -0.135002,-1.480001c-0.177998,-0.240999 -0.438999,-0.223 -0.605,-0.472c-0.079998,-0.118999 -0.069,-0.254999 -0.073997,-0.379c-0.004002,-0.113998 -0.019001,-0.220999 -0.128002,-0.293999c-0.267998,-0.184 -0.501999,0.094999 -0.807999,0.201c-0.066002,0.022999 -0.122002,0.056999 -0.177002,0.092999c-0.188999,0.133001 -0.326,0.313 -0.563,0.244001c-0.142998,-0.042002 -0.205997,-0.130001 -0.23,-0.244001c-0.048,-0.238998 0.084,-0.598 0.097,-0.900999c0.015999,-0.509001 0.246002,-0.769001 0.267002,-1.278c0.023998,-0.556 -0.148003,-0.858 -0.201,-1.413c-0.044003,-0.445 0.071999,-0.721001 -0.065002,-1.145c-0.114998,-0.347 -0.348999,-0.465 -0.473999,-0.809c-0.172001,-0.471001 0.242001,-0.948999 -0.133999,-1.278999c-0.264,-0.230001 -0.545002,-0.322001 -0.875,-0.201c-0.336002,0.122999 -0.405003,0.409 -0.540001,0.740999c-0.118999,0.296001 -0.049999,0.498001 -0.133999,0.807001c-0.134003,0.5 -0.392002,0.716 -0.538002,1.212c-0.127998,0.435999 -0.148998,0.692999 -0.202999,1.145c-0.056999,0.495998 0.070999,0.799999 -0.066002,1.278999c-0.111,0.395 -0.521999,0.535 -0.473,0.941c0.027,0.198999 0.171001,0.275 0.204002,0.473c0.027,0.17 -0.011002,0.304001 -0.075001,0.429001c-0.091999,0.184 -0.242001,0.345999 -0.330002,0.580999c-0.138,0.365 -0.213997,0.570999 -0.336998,0.941c-0.212002,0.646999 -0.313,1.02 -0.471001,1.684c-0.085999,0.365002 -0.105999,0.578999 -0.202,0.942001c-0.145,0.563 -0.129002,0.945 -0.470001,1.412998c-0.264999,0.362 -0.490997,0.517002 -0.875,0.741001c-0.408001,0.237999 -0.672001,0.388 -1.146,0.403999c-0.431999,0.015999 -0.716,-0.032001 -1.077,-0.27c-0.357998,-0.236 -0.348,-0.592999 -0.673,-0.875999c-0.319,-0.276001 -0.598,-0.292 -0.940998,-0.538002c-0.470001,-0.334 -0.666,-0.606998 -1.078003,-1.009998c-0.212997,-0.206001 -0.292999,-0.369999 -0.536999,-0.537998c-0.194,-0.133003 -0.331001,-0.162003 -0.538998,-0.270002c-0.345001,-0.177999 -0.612003,-0.185999 -0.875,-0.470999c-0.272003,-0.293001 -0.085003,-0.704 -0.405003,-0.942001c-0.197998,-0.148998 -0.411999,-0.046 -0.604,-0.202c-0.245998,-0.198999 -0.397999,-0.43 -0.337997,-0.74c0.044998,-0.223 0.195999,-0.295 0.337997,-0.472c0.125,-0.160999 0.234001,-0.261 0.347,-0.379c0.063,-0.065001 0.125,-0.136999 0.192001,-0.228001c0.146,-0.198999 0.313999,-0.292 0.335999,-0.536999c0.021,-0.26 -0.245998,-0.35 -0.271,-0.606001c-0.021,-0.240999 -0.005001,-0.409 0.136002,-0.605999c0.154999,-0.221001 0.353001,-0.244001 0.604,-0.336c0.348999,-0.129 0.747997,0.18 0.944,-0.135c0.150997,-0.247999 -0.128002,-0.457001 -0.069,-0.74c0.073997,-0.336 0.528,-0.403 0.473,-0.741001c-0.035999,-0.223999 -0.166,-0.324999 -0.338001,-0.471998c-0.195,-0.168001 -0.348,-0.242001 -0.604,-0.269001c-0.299,-0.030001 -0.489998,0.365 -0.740997,0.200001c-0.209003,-0.135 0.016998,-0.486 -0.202003,-0.604c-0.185997,-0.101 -0.344997,-0.018 -0.539997,0.066999c-0.289001,0.125999 -0.243,0.490999 -0.538002,0.605c-0.320999,0.125 -0.541,-0.046999 -0.875,-0.135c-0.353001,-0.091999 -0.538998,-0.193998 -0.875,-0.335999c-0.292,-0.123001 -0.438,-0.234001 -0.738998,-0.338001c-0.357002,-0.118999 -0.605,-0.035 -0.943001,-0.199999c-0.301998,-0.149 -0.382999,-0.368 -0.672001,-0.540001c-0.225998,-0.129999 -0.355999,-0.206999 -0.605999,-0.268999c-0.332001,-0.081001 -0.646999,-0.253 -0.876999,0c-0.144001,0.160999 -0.204002,0.333 -0.135002,0.538c0.069,0.192999 0.223,0.24 0.406002,0.337c0.145,0.077 0.282997,0.018999 0.402,0.133999c0.230999,0.229 0.019997,0.572001 -0.203003,0.809c-0.156998,0.172001 -0.335999,0.148001 -0.535999,0.27c-0.194,0.117001 -0.245998,0.318001 -0.473,0.337c-0.299,0.024 -0.306999,-0.459999 -0.605,-0.472c-0.334999,-0.014 -0.376999,0.379 -0.674,0.539c-0.290001,0.158001 -0.491001,0.163 -0.807999,0.269001l-0.470001,0.202c-0.187,0.261999 -0.385002,0.365 -0.473,0.674c-0.093002,0.328001 0.265999,0.594 0.066998,0.875c-0.176998,0.252001 -0.505997,0.071001 -0.739998,0.269001c-0.27,0.227999 -0.153,0.559999 -0.403,0.809c-0.174999,0.174999 -0.433002,0.111 -0.539001,0.337c-0.049,0.105999 -0.045998,0.198999 -0.023998,0.293999c0.022999,0.097 0.065998,0.194 0.09,0.313c0.087997,0.390001 0.618999,0.604 0.405998,0.940001c-0.152,0.24 -0.394001,0.238001 -0.674,0.27c-0.470001,0.055 -0.674,-0.461 -1.145,-0.403c-0.313999,0.039 -0.478001,0.514999 -0.738998,0.337c-0.166,-0.113001 -0.110001,-0.294001 -0.201,-0.471001c-0.133001,-0.253 -0.26,-0.362999 -0.406,-0.605999c-0.078001,-0.132 -0.121,-0.257 -0.159,-0.379c-0.065001,-0.204 -0.118999,-0.392 -0.312,-0.563002c-0.219,-0.195 -0.403999,-0.220999 -0.674,-0.337999c-0.280001,-0.121 -0.440001,-0.341999 -0.738001,-0.27c-0.307999,0.075001 -0.341,0.361 -0.539999,0.607c-0.165001,0.203001 -0.200001,0.375 -0.403999,0.539c-0.012001,0.008001 -0.022001,0.016001 -0.032001,0.024c-0.351,0.244001 -0.754999,-0.018999 -1.112,0.244001c-0.287001,0.210999 -0.348,0.438999 -0.538,0.740999c-0.206999,0.326 -0.159,0.646 -0.470999,0.874001c-0.283001,0.205999 -0.58,0.014 -0.875,0.202c-0.388,0.247999 -0.490002,0.566 -0.607,1.01c-0.059,0.230001 0.039999,0.394999 -0.065001,0.605001c-0.146,0.286999 -0.375,0.358997 -0.674999,0.471996c-0.346001,0.130001 -0.806002,-0.273998 -0.940001,0.068001c-0.107,0.262001 0.163,0.41 0.268,0.672001c0,0 -0.399,1.224998 -0.875,1.009998c-0.299999,-0.134998 -0.309999,-0.425999 -0.403999,-0.739998c-0.098,-0.327 0.261,-0.775002 -0.067001,-0.875c-0.271,-0.083 -0.417999,0.192001 -0.605,0.403999c-0.211,0.237999 -0.178999,0.466 -0.337,0.740002c-0.197001,0.341999 -0.485001,0.432999 -0.604,0.808998c-0.042,0.126999 -0.042,0.202999 -0.069,0.336002c-0.031,0.164997 -0.032999,0.313999 -0.035,0.452999c0,0.263 0.004,0.496998 -0.166,0.759998c-0.171999,0.264 -0.366999,0.330002 -0.604,0.537003c-0.311998,0.268997 -0.540998,0.362 -0.809999,0.672997c-0.222,0.261002 -0.312,0.438004 -0.470999,0.741001c-0.121,0.229 -0.138,0.382999 -0.27,0.605c-0.17,0.290001 -0.27,0.473 -0.538,0.673c-0.189001,0.142002 -0.323,0.176003 -0.539,0.27c-0.280001,0.124001 -0.442001,0.195999 -0.740002,0.271c-0.536999,0.131001 -0.862,0.056999 -1.412999,0.066002c-0.342,0.007 -0.584,-0.176003 -0.874,0c-0.245,0.146 -0.151,0.480999 -0.405001,0.605c-0.261,0.126999 -0.453,-0.085003 -0.742,-0.066002c-0.322,0.021999 -0.536,0.021 -0.809,0.201c-0.247,0.167 -0.203,0.469002 -0.468,0.605999c-0.235,0.121002 -0.41,0.060001 -0.674999,0.067001c-0.368,0.011002 -0.581,-0.139999 -0.943001,-0.067001c-0.309999,0.062 -0.44,0.231003 -0.738999,0.336002c-0.307,0.107998 -0.53,0.034 -0.808001,0.202c-0.222,0.135998 -0.280999,0.294998 -0.471999,0.471001c-0.179001,0.164997 -0.271001,0.265999 -0.472001,0.403999c-0.22,0.155998 -0.363,0.216999 -0.605,0.335999c-0.231,0.117001 -0.383,0.141003 -0.607,0.27c-0.195,0.115002 -0.306,0.181999 -0.468,0.337002c-0.192,0.182999 -0.235,0.341 -0.407,0.538998c-0.168,0.196003 -0.221,0.546001 -0.47,0.472c-0.161,-0.049 -0.105,-0.302998 -0.271,-0.335999c-0.199,-0.042 -0.295,0.160999 -0.403,0.335999c-0.179,0.290001 0,0.533001 0,0.875c0,0.157001 0.019,0.248001 0,0.403999c-0.042,0.338001 -0.188,0.499001 -0.336,0.807003c-0.144,0.296997 -0.24,0.455997 -0.403,0.739998c-0.153,0.265999 -0.316,0.382 -0.406,0.674c-0.104,0.352001 -0.078,0.584 0,0.943001c0.028,0.120998 0.069,0.214001 0.112,0.302002c0.054,0.112 0.115,0.219997 0.16,0.369999c0.088,0.306999 0.102,0.489998 0.134,0.808998c0.042,0.444 0.139,0.721001 0,1.145c-0.085,0.257 -0.067,0.610001 -0.337,0.605c-0.284,-0.003998 -0.168,-0.407997 -0.271,-0.671997c-0.109,-0.287003 0.033,-0.787003 -0.269,-0.742001c-0.185,0.028 -0.264,0.166 -0.336,0.339001c-0.093,0.217999 0.063,0.365997 0.065,0.603996c0.004,0.265003 0.164,0.546001 -0.065,0.675003c-0.249,0.136997 -0.342,-0.509003 -0.606,-0.403c-0.273,0.105999 -0.187,0.449997 -0.135,0.738998c0.065,0.351002 0.366,0.429001 0.538,0.740002c0.126,0.226997 0.2,0.356998 0.269,0.605c0.103,0.354 0.086,0.573997 0.068,0.941998c-0.015,0.345001 -0.17,0.532001 -0.134,0.876003c0.052,0.501999 0.44,0.665997 0.604,1.144997c0.122,0.355003 0.256,0.57 0.201,0.941002c-0.063,0.470001 -0.502,0.569 -0.672,1.011002c-0.218,0.563999 -0.151,0.940998 -0.134,1.549c0.015,0.581997 0.147,0.898998 0.203,1.480999c0.045,0.505001 0.119,0.804001 0.069,1.294998c-0.001,0.016003 -0.002,0.033001 -0.004,0.051003c-0.049,0.43 -0.097,0.68 -0.269,1.075996c-0.174,0.402 -0.385,0.566002 -0.606,0.943001c-0.256,0.435005 -0.195,0.849998 -0.605,1.145004c-0.249,0.179001 -0.466,0.131996 -0.741,0.268997c-0.222,0.111 -0.405,0.128998 -0.54,0.336998c-0.168,0.265999 -0.189,0.556 0,0.807999c0.139,0.190002 0.398,0.083 0.537,0.270004" id="path4280"/>
  <path fill="#8cba4d" d="m36.888988,23.45385c0.076,0.089001 0.135002,0.27 0.135002,0.27c0.044998,0.162001 0.120998,0.258999 0.271,0.337c0.236,0.125 0.418999,-0.047001 0.673,-0.135c0.312,-0.108 0.489998,-0.188999 0.740997,-0.403999c0.181004,-0.157001 0.391003,-0.229 0.403004,-0.471001c0.009998,-0.211 -0.094002,-0.355 -0.27,-0.472c-0.243,-0.159 -0.452,0.054001 -0.741001,0.066999c-0.313999,0.015001 -0.494999,0.018002 -0.806999,0c-0.264999,-0.014 -0.461002,-0.223999 -0.674999,-0.066999c-0.216003,0.157 -0.287003,0.454 -0.133003,0.673c0.102001,0.143999 0.287003,0.069 0.403,0.202" id="path4282"/>
  <path fill="#8cba4d" d="m34.33099,72.059853c0.289001,0.031998 0.452999,0.104996 0.740002,0.065994c0.188,-0.023994 0.284,-0.096001 0.473,-0.133995c0.256001,-0.053001 0.514999,0.145996 0.670998,-0.066002c0.095001,-0.129997 0.131001,-0.256996 0.069,-0.404999c-0.096001,-0.223 -0.364998,-0.105003 -0.606998,-0.135002c-0.286999,-0.032997 -0.452999,-0.028999 -0.740002,0c-0.348,0.037003 -0.611,-0.028999 -0.875,0.203003c-0.141998,0.125 -0.332001,0.223999 -0.267998,0.403c0.069,0.199997 0.326,0.043999 0.536999,0.068001" id="path4284"/>
  <path fill="#8cba4d" d="m41.937988,80.20385c0.134003,-0.067001 0.172001,-0.156998 0.271,-0.267998c0.147003,-0.170006 0.435001,-0.270004 0.336002,-0.473c-0.082001,-0.172005 -0.282001,-0.158005 -0.471001,-0.134003c-0.223999,0.029999 -0.286999,0.206001 -0.473,0.336998c-0.181999,0.131004 -0.43,0.113998 -0.470001,0.335999c-0.059998,0.321007 0.518002,0.353004 0.806999,0.202003" id="path4286"/>
  <path fill="#8cba4d" d="m48.466991,80.541847c0.218998,-0.104996 0.322998,-0.243996 0.405998,-0.472c0.078999,-0.222 0.122002,-0.403999 0,-0.605995c-0.100998,-0.160004 -0.216,-0.254005 -0.405998,-0.269005c-0.277,-0.021996 -0.384003,0.237 -0.538002,0.472c-0.121998,0.188004 -0.199001,0.314003 -0.202,0.537003c0,0.135002 -0.009998,0.229004 0.069,0.337997c0.153999,0.213005 0.435001,0.114006 0.671001,0" id="path4288"/>
  <path fill="#8cba4d" d="m40.390991,87.070847c0.177998,0.262001 0.495998,0.122002 0.807999,0.068001c0.416,-0.072998 0.553001,-0.375 0.942001,-0.540001c0.327999,-0.137993 0.541,-0.142998 0.874001,-0.268997c0.407997,-0.152 0.606998,-0.310997 1.010998,-0.472c0.387001,-0.153 0.688,-0.071999 1.008999,-0.334999c0.345001,-0.283997 0.206001,-0.714996 0.540001,-1.011002c0.278999,-0.250999 0.617001,-0.129997 0.875,-0.403999c0.283001,-0.304001 0.188,-0.620003 0.337002,-1.009003c0.120998,-0.32 0.138,-0.529999 0.336998,-0.808998c0.202,-0.289001 0.782001,-0.268997 0.673,-0.605995c-0.107998,-0.329002 -0.537998,-0.203003 -0.875,-0.134003c-0.196999,0.039001 -0.279999,0.148003 -0.472,0.201996c-0.381001,0.104004 -0.656998,-0.174995 -1.010998,0c-0.184002,0.091003 -0.229,0.229004 -0.404003,0.337006c-0.280998,0.173996 -0.491997,0.376999 -0.807999,0.269997c-0.301998,-0.104996 -0.187,-0.525002 -0.470001,-0.674995c-0.234997,-0.123001 -0.416,-0.010002 -0.673,-0.066002c-0.301998,-0.065002 -0.459999,-0.394005 -0.743,-0.269005c-0.205997,0.090004 -0.212997,0.279007 -0.334,0.471001c-0.146999,0.227005 -0.216999,0.364006 -0.337997,0.605003c-0.179001,0.357002 -0.351002,0.546997 -0.403,0.942001c-0.044003,0.312996 0.163998,0.506996 0.066998,0.807999c-0.115997,0.353996 -0.542999,0.325996 -0.673,0.673996c-0.111,0.295006 -0.021,0.493004 0,0.808006c0.014,0.237 0.089001,0.369995 0.065002,0.605995c-0.031002,0.340004 -0.527,0.527 -0.334,0.807999" id="path4290"/>
  <path fill="#8cba4d" d="m38.50499,1.23885c0.241001,0.108 0.411999,-0.034 0.673,-0.067c0.186001,-0.023 0.295002,-0.009 0.473,-0.068c0.200001,-0.064 0.397999,-0.07 0.470001,-0.27c0.063,-0.18 0.02,-0.356 -0.136002,-0.471c-0.105999,-0.079 -0.205997,-0.033 -0.334,-0.066c-0.218998,-0.058 -0.320999,-0.15 -0.538998,-0.203c-0.182003,-0.043 -0.302002,-0.142 -0.473003,-0.066c-0.173,0.076 -0.176998,0.237 -0.268997,0.403c-0.097,0.175 -0.243999,0.276 -0.200001,0.472c0.040001,0.181 0.166,0.26 0.334999,0.336" id="path4398"/>
  <path fill="#8cba4d" d="m47.390991,2.18185c0.171997,0.18 0.117001,0.425 0.335999,0.539c0.118999,0.061 0.203999,0.051 0.338001,0.066c0.182999,0.021 0.330997,0.119 0.472,0c0.139999,-0.121 0.098999,-0.289 0.066998,-0.471c-0.049,-0.259 -0.191998,-0.385 -0.403,-0.539c-0.161999,-0.118 -0.275997,-0.164 -0.473999,-0.201c-0.18,-0.036 -0.313999,-0.1 -0.470001,0c-0.128998,0.082 -0.222,0.184 -0.202,0.336c0.023003,0.166 0.221001,0.148 0.336002,0.27" id="path4402"/>
  <path fill="#8cba4d" d="m52.439991,14.97285c-0.225002,-0.137 -0.43,-0.036 -0.674,0.066c-0.256001,0.109 -0.348,0.267 -0.538002,0.472c-0.177998,0.193 -0.246998,0.328 -0.402,0.537999c-0.212997,0.287001 -0.558998,0.385 -0.538998,0.741001c0.006001,0.108 0.007999,0.178999 0.065998,0.268999c0.148003,0.218 0.426003,0.088001 0.673,0c0.181,-0.063 0.232002,-0.188999 0.403999,-0.268999c0.313,-0.146 0.616001,0.091 0.875,-0.134001c0.16,-0.140999 0.192001,-0.275999 0.271,-0.473c0.099003,-0.248 0.176003,-0.408 0.135002,-0.673c-0.038002,-0.233 -0.07,-0.415999 -0.271,-0.537" id="path4450"/>
  <path fill="#8cba4d" d="m43.014992,5.14285c-0.239002,0.063 -0.299004,0.279 -0.538002,0.339c-0.257,0.062 -0.41,-0.067 -0.674,-0.068c-0.291,-0.003 -0.577999,-0.173 -0.740002,0.068c-0.148998,0.22 -0.014,0.45 0.136002,0.672c0.181,0.274 0.480999,0.199 0.738998,0.403c0.177002,0.139 0.305,0.205 0.403,0.404c0.167004,0.329 -0.125999,0.578 -0.064999,0.942c0.028999,0.188 0.019001,0.319 0.133999,0.472c0.255001,0.335 0.741001,0.254 1.078003,0c0.195999,-0.150001 0.141998,-0.384 0.336998,-0.539c0.154999,-0.125 0.277,-0.26 0.470001,-0.201c0.202999,0.063 0.105999,0.336 0.271,0.471c0.225998,0.186 0.466999,0.026999 0.739998,0.135c0.196003,0.077999 0.332001,0.108999 0.471001,0.27c0.164001,0.188 0.02,0.436 0.201,0.605c0.197002,0.181 0.414001,0.072 0.672001,0.134999c0.647999,0.153 0.973999,0.373 1.617001,0.539001c0.362999,0.094 0.575001,0.129 0.944,0.201c0.443001,0.087999 0.773998,-0.062 1.142998,0.202c0.243,0.175 0.267002,0.389 0.473,0.605c0.319,0.341001 0.733002,0.321 0.940002,0.741c0.144001,0.285 0.030998,0.506001 0.134998,0.809c0.121002,0.344 0.306,0.482 0.472,0.807c0.146,0.282 0.254002,0.434 0.338001,0.74c0.103001,0.381001 0.036999,0.617001 0.067001,1.01c0.021999,0.315 0.053997,0.492 0.064999,0.809c0.02,0.393 -0.328999,0.792999 0,1.01c0.269001,0.174 0.489998,-0.107 0.810001,-0.135c0.341,-0.028999 0.552998,-0.115 0.875,0c0.364998,0.131001 0.521,0.35 0.738998,0.674c0.203999,0.302999 0.285999,0.512001 0.336998,0.875l0.136002,0.135l0.27,-3.232l0.202,-3.096999l0.268002,-3.837001l0,-2.424l0.202999,-0.2c-0.237999,-0.212 -0.328999,-0.391 -0.605,-0.54c-0.354,-0.191 -0.613003,-0.143 -1.012001,-0.203c-0.207001,-0.031 -0.327999,-0.029 -0.536999,-0.066c-0.459,-0.08 -0.755001,-0.084 -1.146,-0.336c-0.139999,-0.092 -0.191002,-0.185 -0.335003,-0.27c-0.212997,-0.127 -0.380997,-0.094 -0.605999,-0.202c-0.256001,-0.123 -0.336998,-0.31 -0.604,-0.403c-0.272999,-0.098 -0.453999,-0.111 -0.741001,-0.068c-0.278999,0.041 -0.469997,0.073 -0.672997,0.27c-0.256001,0.25 -0.016003,0.623 -0.271,0.876c-0.166,0.165 -0.314003,0.19 -0.537003,0.269c-0.277,0.098 -0.48,0 -0.739998,0.135c-0.314003,0.162 -0.294003,0.508 -0.607002,0.674c-0.146,0.076 -0.285,0.018 -0.402,0.133c-0.187,0.186 0.138,0.451 0,0.674c-0.087997,0.143 -0.188,0.193 -0.337997,0.27c-0.375,0.191 -0.701,0.123 -1.076,-0.066c-0.299,-0.151 -0.417,-0.33 -0.607002,-0.605c-0.178997,-0.263 -0.227997,-0.443 -0.336998,-0.741c-0.098999,-0.282 -0.139,-0.448 -0.200001,-0.74c-0.092999,-0.44 -0.049999,-0.704 -0.136002,-1.146c-0.063,-0.318 -0.100998,-0.499 -0.202,-0.808c-0.104,-0.325 -0.077999,-0.586 -0.335999,-0.808c-0.264999,-0.228 -0.556,-0.057 -0.874001,-0.201c-0.259998,-0.119 -0.34,-0.311 -0.605999,-0.404c-0.274002,-0.098 -0.459,0.001 -0.741001,-0.068c-0.276001,-0.066 -0.396,-0.32 -0.672001,-0.27c-0.223999,0.042 -0.282997,0.213 -0.472,0.338c-0.255997,0.169 -0.391998,0.285 -0.674999,0.404c-0.322998,0.133 -0.639,-0.059 -0.874001,0.201c-0.167999,0.184 -0.087997,0.385 -0.202999,0.605c-0.085999,0.169 -0.223999,0.221 -0.269001,0.404c-0.057999,0.236 -0.056,0.456 0.134003,0.605c0.208,0.162 0.412998,-0.102 0.674,-0.066c0.281998,0.037 0.507,0.04 0.673,0.27c0.154999,0.213 -0.067001,0.445 0.067997,0.672c0.104,0.176 0.229,0.229 0.404003,0.338c0.259998,0.162 0.438,0.201 0.738998,0.268c0.514,0.115 0.821999,0 1.347,0c0.237,0 0.444,-0.172 0.605,0c0.125999,0.137 0.136002,0.299 0.069,0.472c-0.139999,0.346 -0.584,-0.302 -0.947998,-0.207" id="path4452"/>
  <path fill="#8cba4d" d="m119.827988,34.49485c0.330002,-0.312 0.598,-0.925999 0.200005,-1.145c-0.138,-0.077 -0.244003,-0.063999 -0.402,-0.065998c-0.242004,-0.004002 -0.410004,-0.006001 -0.607002,0.134998c-0.259003,0.181999 -0.329002,0.423 -0.334999,0.740002c-0.008003,0.215 -0.010002,0.376999 0.135002,0.536999c0.266998,0.300999 0.716995,0.074001 1.008995,-0.201" id="path4454"/>
  <path fill="#8cba4d" d="m116.259987,37.11985c0.228004,0.289001 0.578003,0.117001 0.943001,0.067001c0.329002,-0.046001 0.507004,-0.128002 0.806999,-0.269001c0.277,-0.130001 0.511002,-0.146 0.674004,-0.403999c0.209,-0.334 0.110001,-0.658001 -0.067001,-1.010002c-0.109001,-0.216999 -0.195,-0.349998 -0.403999,-0.471001c-0.274002,-0.16 -0.512001,-0.181999 -0.807999,-0.067997c-0.226997,0.087997 -0.288002,0.247997 -0.473,0.403999c-0.312004,0.265999 -0.664001,0.288998 -0.806,0.673c-0.103004,0.27 -0.074005,0.461998 0,0.739998c0.034996,0.139 0.046997,0.227001 0.133995,0.338001" id="path4456"/>
  <path fill="#8cba4d" d="m117.33799,37.99485c-0.295998,0.112999 -0.761002,0.263 -0.607002,0.539001c0.117004,0.210999 0.365005,0.163998 0.607002,0.134998c0.196999,-0.023998 0.346001,-0.044998 0.469002,-0.202c0.130997,-0.167 0.216995,-0.389999 0.069,-0.538002c-0.151001,-0.150997 -0.341003,-0.008999 -0.538002,0.066002" id="path4458"/>
  <path fill="#8cba4d" d="m67.384987,5.00885c0.357002,0.024 0.580002,-0.067 0.875,-0.271c0.184006,-0.124 0.362,-0.185 0.405006,-0.402c0.059998,-0.311 -0.258003,-0.462 -0.539001,-0.605c-0.305,-0.158 -0.560005,-0.197 -0.875,-0.068c-0.276001,0.112 -0.455002,0.254 -0.538002,0.539c-0.067001,0.228 -0.080002,0.418 0.066002,0.605c0.153999,0.196 0.358002,0.184 0.605995,0.202" id="path4910"/>
  <path fill="#8cba4d" d="m73.174988,5.81585c0.185005,0.01 0.343002,0.066 0.470001,-0.068c0.147003,-0.15 0.106003,-0.355 0,-0.537c-0.114998,-0.205 -0.304001,-0.258 -0.537003,-0.27c-0.189995,-0.01 -0.342995,-0.006 -0.473,0.135c-0.141998,0.156 -0.167,0.352 -0.065994,0.539c0.118996,0.218 0.356995,0.188 0.605995,0.201" id="path4912"/>
  <path fill="#8cba4d" d="m74.65699,6.69085c0.167,0.228 0.442001,0.104 0.671997,0.27c0.289001,0.21 0.203003,0.622 0.539001,0.74c0.196999,0.07 0.360001,0.111 0.539001,0c0.266998,-0.168 0.209999,-0.527 0.065002,-0.807c-0.120003,-0.234 -0.334,-0.24 -0.539001,-0.404c-0.244003,-0.199 -0.319,-0.401 -0.604004,-0.539c-0.286995,-0.139 -0.658997,-0.417 -0.807999,-0.135c-0.072998,0.14 -0.018997,0.248 0,0.404c0.025002,0.19 0.021004,0.319 0.136002,0.471" id="path4914"/>
  <path fill="#8cba4d" d="m67.250977,11.20185c0.128006,0.287 0.705002,0.297 0.808006,0c0.062996,-0.181 0.001999,-0.339 -0.135002,-0.471c-0.119003,-0.116 -0.242004,-0.171 -0.404999,-0.136c-0.250999,0.056999 -0.375,0.372 -0.268005,0.606999" id="path4916"/>
  <path fill="#8cba4d" d="m68.528976,11.94185c0.117004,0.066 0.238007,0.023001 0.337006,-0.066999c0.115997,-0.107 0.167999,-0.279 0.067001,-0.404c-0.117004,-0.145 -0.374001,-0.09 -0.471001,0.068c-0.084,0.137 -0.070999,0.325 0.066994,0.403" id="path4918"/>
  <path fill="#8cba4d" d="m73.578987,18.270849c0.131004,0.021 0.246002,0.029001 0.338005,-0.067999c0.103996,-0.115 0.045998,-0.254 0,-0.404001c-0.084,-0.266998 -0.288002,-0.591999 -0.539001,-0.470999c-0.181,0.086 -0.223,0.271 -0.203003,0.470999c0.022003,0.241001 0.166,0.432001 0.403999,0.472" id="path4920"/>
  <path fill="#8cba4d" d="m73.578987,19.75185c0.080002,-0.233999 -0.118996,-0.422001 -0.336998,-0.539c-0.142998,-0.075001 -0.250999,-0.023001 -0.403,-0.066c-0.137001,-0.039001 -0.197998,-0.162001 -0.336998,-0.135c-0.221001,0.041 -0.223999,0.313999 -0.203003,0.537001c0.014999,0.141998 0.042999,0.23 0.136002,0.337999c0.175003,0.202 0.410004,0.188999 0.672997,0.135c0.207001,-0.044001 0.402,-0.071001 0.471001,-0.27" id="path4922"/>
  <path fill="#8cba4d" d="m73.847977,20.895849c0.233002,-0.064999 0.478004,-0.24 0.405006,-0.472c-0.069,-0.213999 -0.315002,-0.209999 -0.540001,-0.202c-0.166,0.006001 -0.307999,-0.000999 -0.403,0.135c-0.090004,0.130001 -0.081001,0.27 0,0.404001c0.111,0.185999 0.329994,0.193998 0.537994,0.134998" id="path4924"/>
  <path fill="#8cba4d" d="m76.80899,18.87685c0.109001,-0.019001 0.187996,0.004 0.270996,-0.068001c0.138,-0.118999 0.101006,-0.316 0,-0.470999c-0.143997,-0.221001 -0.464996,-0.229 -0.671997,-0.066c-0.192001,0.147999 -0.304001,0.43 -0.136002,0.605c0.145004,0.15 0.330002,0.032999 0.537003,0" id="path4926"/>
  <path fill="#8cba4d" d="m76.877991,10.39385c0.139999,-0.273001 0.264999,-0.434 0.268997,-0.74c0.004005,-0.275001 0.009003,-0.498 -0.202995,-0.673c-0.165001,-0.14 -0.334,-0.065001 -0.536003,-0.136c-0.334,-0.112 -0.472,-0.504001 -0.809998,-0.404c-0.195,0.059 -0.318001,0.15 -0.403999,0.337c-0.122002,0.274 0.211998,0.441 0.202995,0.74c-0.006996,0.217 0.027,0.397 -0.134995,0.54c-0.159004,0.139 -0.348007,-0.025 -0.539001,0.066c-0.271004,0.129 -0.246002,0.41 -0.470001,0.606c-0.188004,0.163 -0.301003,0.27 -0.540001,0.336c-0.226997,0.063 -0.380997,0.077 -0.605003,0c-0.179993,-0.062 -0.216995,-0.241 -0.403,-0.27c-0.268997,-0.039 -0.348,0.261001 -0.605995,0.337c-0.329002,0.097 -0.537003,0.029 -0.876999,0c-0.315002,-0.026999 -0.487999,-0.16 -0.806,-0.134999c-0.216003,0.018 -0.385002,-0.019 -0.538002,0.134999c-0.153,0.152 -0.167,0.324 -0.136002,0.539001c0.041,0.259 0.194,0.38 0.403,0.539c0.342003,0.258 0.674004,0.062 1.076004,0.201c0.245995,0.084 0.361,0.191 0.607994,0.269c0.329002,0.104 0.528,0.144 0.875,0.135c0.489006,-0.011001 0.754005,-0.161 1.213005,-0.336c0.294998,-0.113999 0.465996,-0.172999 0.739998,-0.337c0.286003,-0.175 0.371002,-0.389 0.671997,-0.538c0.246002,-0.123 0.436005,-0.065 0.674004,-0.202c0.177002,-0.103 0.260002,-0.189 0.403999,-0.337c0.223999,-0.228 0.322998,-0.386001 0.471001,-0.672" id="path4928"/>
  <path fill="#8cba4d" d="m72.232986,20.62685c-0.210999,-0.134001 -0.450996,-0.006001 -0.604996,-0.202c-0.148003,-0.187 -0.036003,-0.369001 -0.068001,-0.604c-0.022003,-0.186001 0.035004,-0.318001 -0.065002,-0.473c-0.153999,-0.228001 -0.470001,-0.021 -0.674995,-0.201c-0.157005,-0.141001 -0.147003,-0.299 -0.270004,-0.473c-0.117996,-0.167002 -0.157997,-0.302002 -0.336998,-0.402c-0.25,-0.144001 -0.542999,0.210999 -0.740997,0c-0.162003,-0.174 -0.009003,-0.375 -0.065002,-0.606001c-0.124001,-0.503 -0.292999,-0.794001 -0.675003,-1.143999c-0.207001,-0.193001 -0.408997,-0.197001 -0.603996,-0.405001c-0.169998,-0.18 -0.218002,-0.321 -0.335999,-0.538c-0.153,-0.278999 -0.274002,-0.429999 -0.337006,-0.74c-0.058998,-0.283 -0.136993,-0.486 0,-0.74c0.123001,-0.232 0.400002,-0.181 0.538002,-0.404c0.164001,-0.271 0.182999,-0.516 0.067001,-0.809c-0.117996,-0.293 -0.334,-0.377 -0.605003,-0.537c-0.101997,-0.061 -0.163994,-0.083 -0.269997,-0.135c-0.210999,-0.105 -0.332001,-0.16 -0.539001,-0.271c-0.320999,-0.171 -0.596001,-0.176001 -0.806999,-0.472c-0.118996,-0.16 -0.127998,-0.285 -0.203003,-0.471c-0.145996,-0.361 -0.141998,-0.604 -0.337997,-0.941c-0.182999,-0.325 -0.330002,-0.490001 -0.604996,-0.742001c-0.236,-0.215 -0.377007,-0.351 -0.672005,-0.471c-0.25,-0.101 -0.431,-0.02 -0.674,-0.134c-0.335999,-0.159 -0.383999,-0.412 -0.673,-0.675c-0.314999,-0.367 -0.444,-0.622 -0.807999,-0.941c-0.197998,-0.174 -0.292,-0.314 -0.537998,-0.404c-0.348003,-0.127 -0.574001,0.07 -0.944,0.068c-0.500999,-0.002 -0.810001,0.045 -1.279003,-0.135c-0.250999,-0.098001 -0.363998,-0.211 -0.603996,-0.337c-0.438004,-0.229 -0.699001,-0.329 -1.145,-0.54l-0.674,-0.267l-0.203003,0.2l0,2.424l-0.267998,3.837l-0.202,3.097l-0.27,3.231999l-0.136002,-0.134998c0.033001,0.231998 -0.101997,0.393 0,0.605c0.206001,0.425999 0.739002,0.039999 1.213001,0.066c0.445,0.027 0.697998,0.032999 1.144001,0.067999c0.288998,0.021 0.452,0.076 0.740997,0.067001c0.319,-0.011 0.531002,0.026999 0.807003,-0.136c0.241997,-0.141001 0.313,-0.309 0.473,-0.537001c0.118999,-0.175001 0.239998,-0.262001 0.27,-0.473c0.032997,-0.246 -0.347,-0.402 -0.203003,-0.605001c0.112,-0.154999 0.297001,-0.056 0.471001,-0.135c0.140999,-0.063 0.230999,-0.091 0.338001,-0.202c0.173,-0.178999 -0.007999,-0.469999 0.202,-0.604c0.132999,-0.087999 0.250999,-0.021 0.403999,-0.067999c0.257999,-0.078001 0.353001,-0.238 0.604,-0.336c0.179001,-0.07 0.278999,-0.135 0.473,-0.135c0.188999,0 0.285999,0.084001 0.469002,0.135c0.209,0.056 0.333,0.072001 0.541,0.134c0.294998,0.087001 0.439999,0.204 0.740002,0.271001c0.256996,0.055 0.427994,-0.031 0.673996,0.066c0.209999,0.084 0.383003,0.128 0.469002,0.337999c0.082001,0.194 -0.093002,0.327999 -0.065002,0.537001c0.047005,0.375 0.208,0.622999 0.538002,0.809c0.187996,0.104 0.375999,-0.007 0.539001,0.135c0.259995,0.223 -0.137001,0.599998 0.065994,0.875c0.160004,0.216999 0.385002,0.181 0.606003,0.335999c0.167999,0.119001 0.284004,0.171001 0.402,0.337c0.161003,0.222 0.015999,0.474001 0.202003,0.673c0.286995,0.307001 0.667999,-0.027 1.077995,0.066999c0.243004,0.057001 0.375,0.105001 0.606003,0.202002c0.216995,0.091 0.306,0.233999 0.538002,0.269999c0.209999,0.032001 0.329994,-0.106998 0.536995,-0.066999c0.244003,0.046 0.328003,0.204 0.539001,0.337c0.289001,0.182001 0.414001,0.371 0.739998,0.471001c0.229004,0.067999 0.383003,0.149 0.607002,0.066999c0.209999,-0.077 0.351997,-0.188 0.402,-0.403c0.082001,-0.327 -0.251999,-0.493 -0.535004,-0.674" id="path4930"/>
  <path fill="#8cba4d" d="m77.752991,7.90285c0,0 -0.313004,0.552999 -0.336998,0.942c-0.024002,0.374999 -0.143005,0.790999 0.201996,0.943c0.244003,0.106999 0.465004,0.033 0.673004,-0.135c0.326996,-0.268 0.219994,-0.686 0.065994,-1.078c-0.125999,-0.327 -0.289993,-0.509 -0.603996,-0.672" id="path4932"/>
  <path fill="#8cba4d" d="m74.049988,22.37685c-0.252998,0.059 -0.540001,0.221001 -0.471001,0.471001c0.069,0.259998 0.414001,0.200998 0.674004,0.136c0.217003,-0.056 0.453003,-0.112001 0.470001,-0.337c0.023994,-0.282001 -0.397003,-0.335001 -0.673004,-0.27" id="path4934"/>
  <path fill="#8cba4d" d="m75.53199,21.63685c-0.227997,-0.01 -0.431999,0.115 -0.473999,0.336c-0.037003,0.207998 0.100998,0.344 0.270996,0.472c0.112,0.084999 0.199005,0.160999 0.337006,0.134998c0.144997,-0.026999 0.211998,-0.132 0.267998,-0.268999c0.116997,-0.285 -0.097,-0.662001 -0.402,-0.674" id="path4936"/>
  <path fill="#8cba4d" d="m77.280991,23.11685c-0.264999,-0.006001 -0.528999,-0.153999 -0.674004,0.068001c-0.099998,0.153999 0,0.286999 0,0.470999l-0.268997,0.067001c0.263,0.157 0.368004,0.432999 0.672997,0.403999c0.211006,-0.021 0.319,-0.122999 0.471001,-0.27c0.211006,-0.204 0.530006,-0.452 0.339005,-0.673c-0.139999,-0.158998 -0.327003,-0.060999 -0.540001,-0.066999" id="path4938"/>
  <path fill="#8cba4d" d="m82.599983,12.61485c-0.170006,-0.174 -0.336006,-0.203 -0.471001,-0.402c-0.142006,-0.207 -0.046005,-0.412 -0.201004,-0.606c-0.170998,-0.21 -0.368996,-0.21 -0.605995,-0.337c-0.208,-0.109 -0.341003,-0.393 -0.539001,-0.27c-0.202003,0.123 0.094002,0.389 0,0.606c-0.089005,0.204 -0.333,0.191999 -0.403999,0.403c-0.049004,0.15 -0.060005,0.258 0,0.404c0.084,0.209 0.322998,0.165999 0.470001,0.337c0.154999,0.177 0.202995,0.313 0.270996,0.538c0.074997,0.252 -0.070999,0.448999 0.067001,0.674c0.193001,0.311 0.511002,0.346 0.875,0.335999c0.343002,-0.009 0.602997,-0.063999 0.809998,-0.335999c0.221001,-0.295 0.219002,-0.607 0.066002,-0.943c-0.087997,-0.187 -0.195,-0.256001 -0.337997,-0.404" id="path4940"/>
  <path fill="#8cba4d" d="m85.695976,14.70285c-0.190994,-0.147 -0.415993,0.016 -0.604996,-0.135c-0.183998,-0.146 -0.131004,-0.348001 -0.270004,-0.538c-0.131996,-0.181 -0.191994,-0.337 -0.403999,-0.404c-0.229996,-0.073 -0.466995,-0.063 -0.604996,0.134c-0.138,0.195001 -0.044998,0.397 0.067001,0.606001c0.086998,0.162999 0.251999,0.171 0.335999,0.337c0.096001,0.188 -0.030998,0.351999 0.067001,0.538c0.143997,0.271 0.375,0.335999 0.673996,0.405c0.391998,0.088 0.869003,0.174 1.009003,-0.203c0.108002,-0.287 -0.025002,-0.552 -0.269005,-0.74" id="path4942"/>
  <path fill="#8cba4d" d="m85.493988,16.655849c-0.185997,-0.115 -0.348,-0.24 -0.537994,-0.135c-0.213005,0.114 -0.061005,0.375 -0.135002,0.605001c-0.080002,0.244999 -0.368004,0.365 -0.270004,0.604c0.089005,0.217999 0.308006,0.313 0.539001,0.271c0.237,-0.045 0.230003,-0.303001 0.403,-0.473001c0.146004,-0.143 0.355003,-0.136999 0.403999,-0.335999c0.062004,-0.255001 -0.18,-0.399 -0.403,-0.536001" id="path4944"/>
  <path fill="#8cba4d" d="m89.060989,17.462851c0.149002,-0.135 0.235001,-0.273001 0.203003,-0.471001c-0.039001,-0.24 -0.292999,-0.242001 -0.471001,-0.403999c-0.246002,-0.227001 -0.354004,-0.386 -0.607002,-0.606001c-0.223,-0.197 -0.350998,-0.311999 -0.603996,-0.471c-0.248001,-0.157 -0.392006,-0.417 -0.672005,-0.337c-0.328995,0.092 -0.374001,0.469 -0.337997,0.808c0.054001,0.481001 0.579002,0.489 0.942001,0.809c0.237999,0.208 0.322998,0.399 0.605995,0.538c0.332001,0.163 0.667999,0.384001 0.941002,0.134001" id="path4946"/>
  <path fill="#8cba4d" d="m91.621986,19.212851c0.083,-0.307001 -0.217995,-0.446001 -0.337997,-0.74c-0.114998,-0.285 -0.003998,-0.584002 -0.268997,-0.741001c-0.162003,-0.094 -0.303001,-0.139999 -0.473,-0.066c-0.250999,0.108 -0.196999,0.397001 -0.202003,0.673c-0.003998,0.332001 0.07,0.542999 0.269005,0.809c0.192993,0.254999 0.370995,0.575001 0.674995,0.471001c0.193001,-0.068001 0.283005,-0.207001 0.337997,-0.406" id="path4948"/>
  <path fill="#8cba4d" d="m89.667976,19.347851c-0.243996,-0.053001 -0.379997,-0.095001 -0.606995,-0.201c-0.256004,-0.123001 -0.445999,-0.641001 -0.603004,-0.404001c-0.087997,0.131001 0.014,0.248001 0,0.404001c-0.023994,0.215 -0.167999,0.323999 -0.137001,0.538c0.058006,0.368999 0.389,0.483 0.739006,0.604c0.398994,0.140999 0.725998,0.16 1.079994,-0.066c0.156006,-0.1 0.287003,-0.157001 0.335007,-0.336c0.049995,-0.184999 -0.002007,-0.334 -0.135002,-0.473c-0.181,-0.188002 -0.414001,-0.011002 -0.672005,-0.066" id="path4950"/>
  <path fill="#8cba4d" d="m88.925987,24.06085c0.081001,0.021 0.047005,-0.016001 -0.020996,-0.079l-0.112,0.013c0.053001,0.024 0.077995,0.049999 0.132996,0.066" id="path4952"/>
  <path fill="#8cba4d" d="m89.332977,23.520849c-0.169998,-0.202999 -0.594994,-0.184 -0.673996,0.066c-0.039001,0.124001 0.142998,0.292002 0.246002,0.394001l0.492996,-0.056c-0.026001,-0.157 0.035004,-0.281 -0.065002,-0.404001" id="path4954"/>
  <path fill="#8cba4d" d="m92.69799,21.569851c-0.221001,-0.042002 -0.345001,-0.092001 -0.539001,-0.203001c-0.241997,-0.136999 -0.312996,-0.636 -0.537003,-0.471001c-0.137993,0.098001 -0.112,0.240002 -0.137993,0.404001c-0.041,0.291 -0.006004,0.482 0.137993,0.74c0.060005,0.115 0.088005,0.201 0.201004,0.27c0.181,0.106998 0.330002,-0.037001 0.536003,-0.068001c0.290993,-0.042999 0.530998,0.07 0.739998,-0.135c0.161995,-0.156 0.323997,-0.35 0.202995,-0.536999c-0.126999,-0.199001 -0.371994,0.042999 -0.603996,0" id="path4956"/>
  <path fill="#8cba4d" d="m88.859993,25.54085c-0.147003,-0.035 -0.194,-0.261999 -0.336006,-0.202c-0.145996,0.063 -0.095993,0.247 -0.064995,0.403999c0.041,0.239 0.159996,0.471001 0.401001,0.472c0.204994,0 0.311996,-0.153999 0.403999,-0.337c0.072998,-0.142 0.167999,-0.278999 0.069,-0.403c-0.118004,-0.146999 -0.291,0.109001 -0.473,0.066" id="path4958"/>
  <path fill="#8cba4d" d="m99.900993,31.666849c0.213997,-0.221998 0.269997,-0.434 0.269997,-0.738998c0,-0.217001 0.014,-0.383001 -0.134003,-0.539001c-0.219994,-0.227999 -0.534996,-0.157 -0.808998,0c-0.264999,0.152 -0.338997,0.373001 -0.403999,0.672001c-0.071999,0.339001 -0.145996,0.674 0.135002,0.877001c0.308998,0.222 0.678001,0.004999 0.942001,-0.271002" id="path5142"/>
  <path fill="#8cba4d" d="m99.765984,32.27285c-0.25,0.101002 -0.476006,0.373001 -0.336006,0.605c0.153999,0.257 0.519005,-0.001999 0.740013,-0.202c0.098,-0.086998 0.192001,-0.139 0.201996,-0.269001c0.018005,-0.240997 -0.381004,-0.223 -0.606003,-0.133999" id="path5144"/>
  <path fill="#8cba4d" d="m99.900993,33.61985c-0.052002,0.311001 0.633995,0.262001 0.809998,0c0.114998,-0.175999 0.201996,-0.487 0,-0.539001c-0.151001,-0.035999 -0.209,0.118999 -0.337997,0.203003c-0.192001,0.120998 -0.436005,0.112999 -0.472,0.335999" id="path5146"/>
  <path fill="#8cba4d" d="m100.237991,74.95385c-0.209999,0.085999 -0.271004,0.235001 -0.473,0.335999c-0.266998,0.135002 -0.446999,0.150002 -0.740005,0.203003c-0.283997,0.051003 -0.478996,0.193001 -0.738998,0.066002c-0.255997,-0.125 -0.438995,-0.324005 -0.404999,-0.605003c0.029999,-0.238998 0.298004,-0.253998 0.404999,-0.471001c0.182999,-0.377998 0.303001,-0.789001 0,-1.076996c-0.146996,-0.138 -0.272995,-0.214005 -0.473,-0.202003c-0.295998,0.017998 -0.313995,0.342003 -0.540001,0.537003c-0.223999,0.198997 -0.375,0.662994 -0.602997,0.473c-0.183998,-0.151001 -0.109001,-0.396004 0,-0.605003c0.090996,-0.183998 0.290001,-0.166 0.402,-0.337997c0.146996,-0.223 0.117996,-0.404999 0.135002,-0.672005c0.016998,-0.288994 -0.115005,-0.454994 -0.069,-0.740997c0.038994,-0.222 0.191994,-0.313995 0.202995,-0.538002c0.008003,-0.159996 0.005005,-0.261993 -0.068001,-0.403999c-0.092995,-0.181999 -0.244995,-0.204994 -0.402,-0.336998c-0.185997,-0.154999 -0.239998,-0.333 -0.473,-0.403c-0.225998,-0.068001 -0.393997,-0.043999 -0.603996,0.067001c-0.215004,0.112999 -0.276001,0.265999 -0.403999,0.471001c-0.148003,0.238998 -0.189003,0.401001 -0.268005,0.672997c-0.087997,0.307999 -0.262993,0.515999 -0.134995,0.808998c0.157997,0.365005 1.030998,0.014 0.942001,0.404007c-0.058006,0.254997 -0.387001,0.188995 -0.540001,0.403c-0.175003,0.242996 -0.159004,0.444 -0.201004,0.738998c-0.049995,0.339996 0.014,0.534996 0,0.876999c-0.013,0.342003 0.066002,0.558998 -0.066002,0.875c-0.102997,0.241997 -0.240997,0.332001 -0.404999,0.538002c-0.297997,0.379997 -0.498001,0.570999 -0.807999,0.941994c-0.237999,0.286003 -0.317001,0.504005 -0.605995,0.740005c-0.418007,0.344002 -0.812004,0.264999 -1.277,0.539001c-0.277,0.161995 -0.463005,0.229996 -0.676003,0.470993c-0.231003,0.264 -0.503998,0.471001 -0.401001,0.809006c0.084,0.286995 0.380997,0.271996 0.604004,0.471001c0.223,0.196999 0.535995,0.241997 0.537994,0.538994c0.000999,0.211006 -0.160995,0.289001 -0.267998,0.471001c-0.126999,0.213005 -0.169998,0.357002 -0.338997,0.539001c-0.229004,0.251999 -0.446007,0.291 -0.739006,0.472c-0.260994,0.160004 -0.551994,0.122002 -0.671997,0.403c-0.118004,0.270004 -0.063004,0.521004 0.135002,0.739998c0.278,0.314003 0.659996,0.061005 1.075996,0c0.376999,-0.055 0.598999,-0.099998 0.940002,-0.268997c0.353996,-0.175003 0.514999,-0.345001 0.809998,-0.606003c0.223,-0.195999 0.345001,-0.312996 0.539001,-0.537994c0.169998,-0.199005 0.167999,-0.422005 0.401001,-0.539001c0.237,-0.115997 0.416,0.047997 0.673996,0c0.277,-0.052002 0.540001,-0.021004 0.676003,-0.270004c0.098999,-0.184998 -0.069,-0.338997 0,-0.537994c0.075996,-0.229004 0.234001,-0.297005 0.402,-0.471001c0.220001,-0.229004 0.413002,-0.289001 0.606003,-0.539001c0.228996,-0.299004 0.097,-0.655998 0.403999,-0.874001c0.320999,-0.228996 0.613998,-0.056 1.010994,-0.068001c0.420006,-0.014999 0.702003,0.190002 1.075005,0c0.183998,-0.093002 0.270996,-0.181 0.403999,-0.336998c0.204002,-0.242004 0.091003,-0.539001 0.334999,-0.739998c0.212997,-0.174004 0.472,-0.019005 0.676003,-0.202003c0.188995,-0.172997 0.130997,-0.388 0.268997,-0.606003c0.149002,-0.236 0.369003,-0.278999 0.471001,-0.537994c0.078003,-0.195999 0.066002,-0.327003 0.067001,-0.538002c0.001999,-0.237999 0.099998,-0.439003 -0.067001,-0.607002c-0.205002,-0.204994 -0.472,-0.042999 -0.738998,0.066002" id="path5148"/>
  <path fill="#8cba4d" d="m68.86599,94.408852c0.323997,0.187996 0.541,-0.232002 0.875,-0.403c0.238998,-0.124001 0.557999,-0.069 0.604004,-0.336998c0.030998,-0.163002 -0.022003,-0.279007 -0.134003,-0.404007c-0.209,-0.235001 -0.554001,-0.187996 -0.806999,0c-0.168999,0.127007 -0.125999,0.316002 -0.270004,0.473c-0.168999,0.182007 -0.548996,0.088005 -0.540001,0.336006c0.010002,0.167 0.127007,0.251999 0.272003,0.334999" id="path5150"/>
  <path fill="#8cba4d" d="m89.398987,81.551849c-0.253998,-0.051003 -0.352997,0.211998 -0.604996,0.270004c-0.283005,0.062996 -0.664001,0.276993 -0.740997,0c-0.035004,-0.129005 0.051994,-0.203003 0.067993,-0.338005c0.030006,-0.233002 0.188004,-0.462997 0,-0.603996c-0.207001,-0.156006 -0.367996,0.167 -0.605995,0.268997c-0.260002,0.109001 -0.438004,0.109001 -0.673004,0.270004c-0.260994,0.177994 -0.322998,0.375 -0.538994,0.605995c-0.253006,0.271004 -0.383003,0.440002 -0.673004,0.673004c-0.222,0.177994 -0.369003,0.247993 -0.607002,0.403999c-0.569,0.375 -1.009995,0.444 -1.478996,0.942001c-0.246002,0.258995 -0.229004,0.562996 -0.538002,0.740997c-0.253998,0.145996 -0.457001,0.057999 -0.740997,0.132996c-0.298004,0.080002 -0.493004,0.088005 -0.741005,0.270004c-0.240997,0.178001 -0.222,0.440002 -0.470993,0.606003c-0.207001,0.139 -0.384003,0.087997 -0.604004,0.201996c-0.170998,0.085999 -0.239998,0.175003 -0.403999,0.269997c-0.296997,0.169006 -0.483002,0.232002 -0.809998,0.335007c-0.357002,0.114998 -0.584,0.089996 -0.941002,0.201996c-0.270004,0.085999 -0.422005,0.141998 -0.673004,0.270004c-0.369995,0.188995 -0.516998,0.397995 -0.875,0.605995c-0.255997,0.146004 -0.393997,0.251999 -0.674995,0.336998c-0.376999,0.114006 -0.625,-0.024994 -1.010002,0.067001c-0.512001,0.123001 -0.862,0.208 -1.210999,0.605003c-0.231003,0.264999 -0.097,0.630997 -0.403999,0.807999c-0.229004,0.133003 -0.426003,-0.025002 -0.674004,0.066002c-0.278,0.107002 -0.354996,0.306999 -0.603996,0.473c-0.528999,0.349998 -1.256004,0.079002 -1.481003,0.672997c-0.073997,0.197006 0.051003,0.362999 -0.065002,0.538002c-0.208,0.305 -0.686996,-0.195 -0.943993,0.067001c-0.139008,0.143997 -0.127007,0.285995 -0.203003,0.472c-0.052002,0.130997 -0.181,0.202995 -0.134003,0.337997c0.057999,0.153999 0.243004,0.099998 0.403999,0.134003c0.308006,0.065002 0.537003,-0.163002 0.808006,0c0.126999,0.075996 0.170998,0.158997 0.269997,0.268997c0.111,0.125 0.175003,0.199005 0.270996,0.338005c0.119003,0.173996 0.113007,0.326996 0.269005,0.470993c0.366997,0.338005 0.791,0.047005 1.277,-0.067993c0.355995,-0.084 0.542,-0.189003 0.876999,-0.336006c0.375,-0.165001 0.581001,-0.270996 0.942001,-0.471001c0.349998,-0.195 0.520996,-0.352997 0.875,-0.538994c0.404999,-0.215004 0.713997,-0.191002 1.077995,-0.472c0.322006,-0.25 0.401001,-0.499001 0.672005,-0.807999c0.304001,-0.350006 0.437996,-0.593002 0.807999,-0.875008c0.243996,-0.186996 0.435997,-0.210999 0.673996,-0.403999c0.172005,-0.140999 0.222,-0.275993 0.404007,-0.403999c0.396996,-0.276001 0.765999,-0.077995 1.210999,-0.268997c0.248001,-0.106003 0.403,-0.159004 0.605995,-0.336998c0.153,-0.135002 0.172005,-0.281006 0.336006,-0.403999c0.421997,-0.313004 0.834999,0.113998 1.347,0c0.242996,-0.053001 0.412994,-0.045006 0.606995,-0.201004c0.244003,-0.199997 0.153,-0.478996 0.334999,-0.739998c0.223999,-0.320999 0.397003,-0.484001 0.739006,-0.674004c0.357994,-0.196999 0.700996,-0.003998 1.012993,-0.268997c0.171005,-0.147003 0.18,-0.307999 0.335007,-0.472c0.221001,-0.232002 0.389,-0.32 0.674995,-0.473c0.248001,-0.131004 0.405998,-0.176003 0.672005,-0.267998c0.257996,-0.090004 0.448997,-0.044006 0.672997,-0.201004c0.215004,-0.153 0.203003,-0.371002 0.403999,-0.540001c0.161003,-0.136002 0.305,-0.139999 0.471001,-0.268997c0.264999,-0.208 0.264999,-0.479004 0.537003,-0.674004c0.232994,-0.162994 0.474998,-0.069 0.674995,-0.268997c0.32,-0.317001 0.445,-0.820999 0.134003,-1.144997c-0.111,-0.110001 -0.191002,-0.172005 -0.341003,-0.201004" id="path5152"/>
  <g id="Layer_7"/>
 </g>
</svg>